/* XPM */
static char *f3ab715ec83647faf74e804c2a89b3e8scrdhs5nMkX6fN2f[] = {
/* columns rows colors chars-per-pixel */
"64 64 219 2 ",
"   c #001D0D",
".  c #001609",
"X  c #001E11",
"o  c #081F17",
"O  c #1C1C1E",
"+  c #201E1F",
"@  c #012315",
"#  c #002B16",
"$  c #032619",
"%  c #022D1C",
"&  c #0A2B1D",
"*  c #0A241B",
"=  c #12261F",
"-  c #01321E",
";  c #03351F",
":  c #00200E",
">  c #1E1F21",
",  c #251E22",
"<  c #062E21",
"1  c #0B2D22",
"2  c #132D23",
"3  c #1C2C26",
"4  c #1D2F29",
"5  c #192522",
"6  c #023422",
"7  c #0B3425",
"8  c #013B25",
"9  c #093926",
"0  c #0D3628",
"q  c #043D28",
"w  c #0B3C2A",
"e  c #133226",
"r  c #1A3127",
"t  c #143329",
"y  c #1B332A",
"u  c #143B2D",
"i  c #193A2E",
"p  c #1C3D32",
"a  c #242425",
"s  c #222A26",
"d  c #262729",
"f  c #2A2629",
"g  c #252D2A",
"h  c #2B2B2B",
"j  c #2D2527",
"k  c #33272A",
"l  c #312A2C",
"z  c #312527",
"x  c #23322C",
"c  c #2D312F",
"v  c #2E2E30",
"b  c #322E31",
"n  c #382F34",
"m  c #2C3232",
"M  c #243D34",
"N  c #293A35",
"B  c #263833",
"V  c #323233",
"C  c #3B3B3D",
"Z  c #363739",
"A  c #024129",
"S  c #0C422D",
"D  c #044027",
"F  c #12432E",
"G  c #134331",
"H  c #1B4334",
"J  c #1D4B3A",
"K  c #194936",
"L  c #0F4430",
"P  c #25453A",
"I  c #2B433B",
"U  c #234C3D",
"Y  c #2A4B3E",
"T  c #244236",
"R  c #32453E",
"E  c #21513E",
"W  c #3E3F41",
"Q  c #443D42",
"!  c #2B4D41",
"~  c #254E40",
"^  c #334C43",
"/  c #3D4745",
"(  c #245341",
")  c #2C5646",
"_  c #345A4B",
"`  c #385549",
"'  c #3D5D52",
"]  c #33604F",
"[  c #366352",
"{  c #3B6454",
"}  c #3C6A58",
"|  c #2C634C",
" . c #434345",
".. c #474749",
"X. c #4A4A4C",
"o. c #464949",
"O. c #534E51",
"+. c #445D54",
"@. c #4A5653",
"#. c #525355",
"$. c #565658",
"%. c #5B5B5D",
"&. c #575859",
"*. c #46504E",
"=. c #655C5F",
"-. c #446B5B",
";. c #48665A",
":. c #53655E",
">. c #45715E",
",. c #5F5F61",
"<. c #665E62",
"1. c #4C6E61",
"2. c #586963",
"3. c #457361",
"4. c #4B7463",
"5. c #4C7A67",
"6. c #5B746B",
"7. c #547B6B",
"8. c #577669",
"9. c #5D7D71",
"0. c #626364",
"q. c #676769",
"w. c #6A6A6C",
"e. c #68686A",
"r. c #726A6E",
"t. c #63736E",
"y. c #6E6E70",
"u. c #726E71",
"i. c #677973",
"p. c #737375",
"a. c #7C7C7D",
"s. c #787678",
"d. c #807A7E",
"f. c #5B8877",
"g. c #51826F",
"h. c #6E847C",
"j. c #648B7C",
"k. c #6D8A7D",
"l. c #648377",
"z. c #74847D",
"x. c #66917F",
"c. c #7E7F81",
"v. c #847E82",
"b. c #6A8D81",
"n. c #728D82",
"m. c #7B8784",
"M. c #6D9483",
"N. c #6A9A87",
"B. c #729686",
"V. c #749C8C",
"C. c #79968B",
"Z. c #7AA291",
"A. c #838385",
"S. c #8B8B8D",
"D. c #868889",
"F. c #8E8E90",
"G. c #839B93",
"H. c #8D9A96",
"J. c #8E9293",
"K. c #929395",
"L. c #969799",
"P. c #9B9C9D",
"I. c #969899",
"U. c #89908E",
"Y. c #A19B9D",
"T. c #8AA59B",
"R. c #87A79B",
"E. c #93A49D",
"W. c #85B09F",
"Q. c #9E9EA0",
"!. c #A49DA1",
"~. c #9EA3A3",
"^. c #99ABA5",
"/. c #85B6A3",
"(. c #8AB8A6",
"). c #98B7AB",
"_. c #8FB1A6",
"`. c #A3A3A5",
"'. c #AAA4A7",
"]. c #A6A7A9",
"[. c #AAA6AA",
"{. c #A5ABAB",
"}. c #ABABAD",
"|. c #A3A9A7",
" X c #B2ABAE",
".X c #B0A7AA",
"XX c #A4B4AE",
"oX c #AEAEB1",
"OX c #B3ADB1",
"+X c #ADB3B3",
"@X c #A5BAB2",
"#X c #B2B2B4",
"$X c #B6B6B8",
"%X c #BABABC",
"&X c #B4BAB9",
"*X c #AAC6BB",
"=X c #B1C4BC",
"-X c #9FC3B7",
";X c #BDBFC0",
":X c #AECCC1",
">X c #B2CEC3",
",X c #B9C9C4",
"<X c #BBD4CA",
"1X c #BBD9CE",
"2X c #B7D5CA",
"3X c #BDDED3",
"4X c #C5DCD3",
"5X c #CBDDD6",
"6X c #C2CBC9",
"7X c #CBE5DB",
"8X c #C8E4D9",
"9X c #D2E6DE",
"0X c #D1E8DE",
"qX c #CCECE1",
"wX c #D5EBE3",
"eX c #D8F4EA",
"rX c #D9F8ED",
"tX c #EBFDF9",
"yX c #F8FFFE",
/* pixels */
"& & % - - - 6 6 8 ; - 6 6 - % 9 6 6 6 6 8 8 8 8 8 8 8 8 8 8 8 8 A A A A A 8 8 8 8 A 8 % w w 9 9 w 6 S q 6 8 8 8 8 8 8 8 8 8 8 8 ",
"& % % % - - - - 6 - - 9 9 6 < 7 7 7 7 9 9 8 8 8 9 9 8 8 8 8 8 8 8 8 A A A A A A 8 8 8 ; 6 9 S S - - % - S A % A 8 8 8 8 8 8 8 8 ",
"; - % - - 6 - - - % < 7 e e e t r t t e 0 0 w w 7 7 6 6 8 8 8 8 8 8 8 8 A A A A A 8 8 6 9 - - % E [ K - - 8 8 - 8 8 8 8 8 8 8 8 ",
"- - - - 6 6 6 ; 7 1 2 r y y 4 x x x y r t t t i e 7 7 6 8 8 8 8 8 8 8 A A A A A A - 8 - 9 [ f.{ N.[ K N.f.- q A 8 8 8 8 8 8 8 8 ",
"6 - - - - 6 & & e 3 4 x h h h h h h g g g x x x r t e 0 9 8 8 8 A A 8 A 8 A A 8 8 # S 6 # 3.(.4.f.3.3.N.5.9 S ; 8 8 8 8 8 8 8 8 ",
"6 6 - - % % & & y x g h h l l l l h h h h h h x g y r e 0 9 8 8 A A A 8 8 8 8 8 8 6 9 9 0 H } _ ( ( _ H 9 9 - L 8 8 8 8 8 8 8 8 ",
"; 6 6 - % & 1 2 x x h h l l l l k h l h l h h h h g y r e 0 q 8 A A A 8 8 8 8 8 q w % 9 ) J ' 4.7.-.;._ ) _ w % 8 8 8 8 8 8 8 8 ",
"- ; 6 - % 1 r x x h h h h l l l h h h l l l l h h h g y t 0 9 q 8 A 8 8 8 A 8 q 6 6 w H U { f.Y Y i U 7.} G J 9 8 8 8 8 8 8 8 8 ",
"6 - % % & t x x x g h h h f f b l a a a a a h b b h h x 3 t e % 8 8 8 8 8 8 8 q 6 w - H K -.P Y _ ;.U H } H J 6 9 8 8 8 8 8 8 8 ",
"# 9 7 % 1 r y x g s d h V V h g h / #.e.a.a.%.V a h h s x x 2 7 9 8 8 8 8 8 8 8 w % 6 ] Z.B.-.^ 6.)._ _ j.Z.} 6 9 8 8 8 8 8 8 8 ",
"% 9 < & y B x x s V Z h > 5 C &.D.P.|.{.#X;XoXL...b h h m B 2 e 9 8 8 8 8 8 8 8 8 6 % { N.j.;.{ R.R.H ) f.x.5.- 9 9 9 8 8 8 8 8 ",
"6 % % 7 y y g g v d a d W e.I.&X}.+X+X+X|.|.}.#XS.b a V g x g t 6 8 8 8 8 8 8 8 8 w % ] N.M.[ i B.).1.u j.f.3.6 q 8 8 8 8 8 8 8 ",
"w 7 p p = 3 Z V Z Q #.s.P.+X+X].+X{.{.+X+X{.].}.OXO.f h d m m B 6 6 8 8 8 8 8 8 S 9 6 G V.V.j._ _ B.9.5.Z.V.) 9 9 8 8 8 8 8 8 8 ",
"% % 1 e N t.I.K.!.[.#X$X#X#X+X+X}.{.`.].{.}.}.{.oXS. .> h m g B 7 8 8 8 8 8 8 8 - 6 9 G } [ ) u u _ U G U 3.J % 9 8 8 8 8 8 8 8 ",
"G w 7 M 6.~.%X#XOXOXOX.X[.oXoXOX'. XOXoX}.}.{.].].#X%.a V h s B 0 8 8 8 8 8 8 8 A 8 % 9 F { { -.[ { _ _ 5.U % S 8 9 8 9 8 8 8 8 ",
"6 7 e +.E.#X[. X XOXOX}.}.OX#XOXOX X}.}.}.}.}.}.`.}.&.h v h m x 0 6 6 6 9 8 8 6 8 ; G - 9 ( { [ ) { [ { ( 9 9 9 6 9 9 9 8 8 8 8 ",
"8 9 e i.+X`. X.X X[.{.{.`.`.}.OXOX}.#X}.}.+X`.oX`.`.$.> V V a x i w - 9 9 ; 6 8 q ; w - 9 q L ( K w K K 9 6 - 6 9 - w ; # S 8 A ",
"6 9 7 h.&X[..X[.[.`.{.|.`.}.OX X[.].#X#X`.#X#X{.}.L.&.h v a Z s y u % - S S 9 w ; 9 6 F 9 8 S w J ( J w 6 - F 9 7 7 0 6 L S ; ; ",
"- q & h.+X[.[.}.}.{.}.{.}.#X#X[.#X}.`.`.Q.`.}.}.oX#XA.V h a Z 3 N t 7 0 ; # % 6 9 - ; @ ; % # # # % - # ; @ # @ # % % % % - 8 D ",
"6 q & t.+X`.}. XOX}.+X+XoXoXOX}.[.}.Q.{.}.}.$X}.{.}.`.X.d v v g = M P Y 1.g.3.>.3.-.7.3.5.5.>.4.5.>.4.-.5.7.-.7.7.-.>.5.>.5.| # ",
"8 6 < ;.+X`. X X}.].}.+X}.}.}.OX}.}.oXP.q.y.{.}.#X`.$X`.C O v v *.H.G.;.9.C.j.V.Z.B.k.Z.M.B.Z.M.M.V.B.B.M.B.j.M.B.k.V.x.N.N.3.8 ",
"8 6 7 ^ ^.{.}.`.[.`.].oXoX}.OXOX#XQ.#.a a >  .K.`.#XQ.%Xp.v h s L.a.:.B 2 t @ @ X @ 2 X e     7 . &   $ $   $     $ & : % % ; - ",
"6 6 0 p G.+X{.`.[.[.}.}.}.#XOX`.0.h d X.#.X.V a 0.#XoX#XS.V a q.D.$.w.t.R 3 Y 6.8.' t ' R.l.;.i 6.:.+.t ^ 1.6.` ;.` e 4.u w S S ",
"8 6 7 7 h.+X|.{.}.oX}.`.{.#X[.S.v &.e.$.0.0.$.s.K.{.}.oX#X,.a a.=.r.A.y.@.I 6.rX4X<XM <XT.k.2X^ wX6X7X` n.rX<X8.*XT.;.qXH w 9 9 ",
"8 8 9 1 ;.XX{.S.A.A.S.P.].].%X{.`.A.X.s...a ,.0.P.}.#X{.#XI.a A.<.O.s.S.o.R h.<Xr 0X;.*Xl.8.:X` 9Xx =Xh.n.@XX = ).0Xl.1XU 7 6 9 ",
"q 8 9 u ! H.2.g d f f s.{.%X`.].`.0.P.yXS.$.oX`.L.{.}.{.#X#X .r.r., h 0.2.N i.7XT.8X` >Xk.i.3XI 9X=X7X` z.7XXXI ^.0X2X2X! % G 6 ",
"8 S q 0 i +.g h X.C O...Q.`.#X{.P.{.I.oXoX}.%X#X}.#XoX#X{.#X....OXn f 2.i.N h.7X8X).@ 1Xk.4.>X^ 8Xh.6X:.n.8Xn.N ).*X8X8Xu 0 # 6 ",
"8 q w % p i N #. .Q b n u.#X{.].}.}.P.L.`.#X#X].#X}.}.#X].{.C X.!.V X.K.i.x h.>Xl.3Xt *Xn.l.1X^ 9XR =Xn.k.).* 2 *Xn._.8XH w S w ",
"8 % q 6 H M t.o.6Xu.=.'.u.#X+X{.`.#X#XoX#X[.`.%X}.`.oX}.oX`.v O.L.a.}.&X+.t n.3XH qX;.l.8XqXn.Y 7X8X7XY C.rX0X8.:XC.' rXJ @ S 6 ",
"8 6 6 9 u y t.z.#X[.F.q.v.`.+X|.+X}.#X].}.oX#X}.oXoX#X{.$XK.a C L.].&X^.+.p p _ 0 { U $ ;.;.  T ' ;.M i P ' { H P T P _ 0 G 6 w ",
"6 A 6 9 7 $ ` =XP.D.r.s.}.].].+X#X`.}.}.#X[.}.}.{.}.}.{.#Xs.h V F.P.{.n.M p $ u 7 < $ u 7 X u X @ . p @ & & $ e e & @ 7 w 6 6 q ",
"8 6 8 6 7 1 I I.}.[.Y.!.[.P.}.{.}.oX}.`.oX}.#X{.oX#X{.}.}.X.a h D.~.{.` p T.j.& ) _.U 1 C.9.& R.:X1.1 R.*X_.7 1.T.P ).! % V.f.% ",
"6 8 6 8 6 7 y C.+XY. X'.[.{.E.+X{.oXP.s.`.}.#X}.].%X{.#Xc.V h d *.0.i.N ^ 7X1X1 ' rX9.N eXh.i.4XH.4XN eXR.0XC.6.4XR tXm.2 rXG.1 ",
"6 6 8 8 6 6 e i.|.[.Y.!.'.}.XX~.}.#X`.e.a.L.oXoXoX#X#XP.0.h h h o.m.{./ 2.<X1X^ N wX@X6.yXz.H.E.B 5X:.<X' _._.6.6X/ 9X&Xh.tXG.* ",
"6 ; 8 8 6 6 7 +.XX}..X.Xd.K.+X{.#XP.P.s.q.0.A.{.oX{.}.w. .h v v C D.+X/ m.E.@Xi.I 0X<X<XwXt.E.E.B 9X+.<XqXqX+.i.4XR wX9X,XtXG.* ",
"6 - 8 8 8 6 7 P ^.K. X.Xw.L.`.}.`.O...%.p.q.0.p.`.#X`. .h h h a / I.,Xi.@X^.@XT.I 1X).<X).k.E.T.x 7X;.2XR.3Xp 8.<X^ <X@X4X*XG.2 ",
"8 ; 8 8 8 6 9 u G.~.}.[.v.L.%.X.C O V C Z h V C q.`.S.h h h v d W Q.#XD.~.=X4X2X+.7X8.;.>XC.8.1XG.1XP qX;.3Xl.8.8X^ eX6.1.>XR.X ",
"8 6 8 6 8 8 q 0 ' XX{.Y.v.s.n , b h d a d h h > h A.y.h V h V h &.6X`.P.U.x 3 XX;.).P 1 _.7.u ).2X;.t -XU b.V.7.).p >X` @ W.b.% ",
"6 8 8 ; A 6 8 9 p G.XXP.O.V , f b #.#.0.A.A.0.V V e.#.h h a d a s.Q.`.{.0.o./ = o 2 & 1 & 0 % @ 1 X u % 7 w < @ u & $ 7 1 % 7 7 ",
"6 8 8 ; A 6 8 q u ! G.H.h j n Q u.Q.w.X.%.A.`.I.C X.V a h V V v A.!.oX{.s.H.{.N I M P P U K ( E J ) ~ G U K ( ( J ~ ! ( J ( J % ",
"6 8 8 8 8 8 8 6 w p ^ t.m , q.s.#.$.p.Q.#X#X#X}.X.O Z h a V a #.A.I.P.A.L.&X~.m.T.T.R.W.W./././.(.(././././.(.(./.(.(.W.(.(.g.9 ",
"6 8 8 8 8 8 8 8 6 p Y I m V q.!.#X$X;X%X`.Q.`.}.X.h h h h h V e.s.K.A.#X}.P.,X2.= = & & % - 6 6 6 6 6 6 6 6 6 6 9 9 9 6 9 9 9 6 ",
"6 6 8 8 8 8 8 8 6 u e M B s D.%X`.P.e.%.X.A.%XF.V d h V a v $.,.w.P.oXP.}.`.#.5 g y t e 7 7 9 9 w w q q 8 q q q 6 6 9 S 9 - 8 S ",
"6 6 6 8 8 8 8 6 9 6 % P I 5 t.&Xy.a a a h `.K.X.> V d d h Z 0.D.#X`.P.%XD.V a s g 4 2 1 7 6 6 6 9 9 9 8 8 8 8 8 q q 9 9 q q 8 8 ",
"6 6 6 6 6 6 6 6 9 % 7 7 P I 4 m.~.W h V v w...h V h V a a 0.Q.{.}.`.oXy.h h h m g x r e 7 7 9 9 8 8 8 8 8 8 8 8 ; 9 9 6 6 8 A A ",
"6 6 6 6 6 6 6 6 < 9 0 % e ^ 2 N D.p.a h h a h v h h h V y.{.oX}.K.+Xw.a h h a h h g 4 t e 7 9 9 8 8 8 8 8 8 8 8 8 8 w S S 8 8 8 ",
"6 6 6 6 6 6 6 6 6 w 6 7 < i ! 1 s Z v h Z Z a d V > X.K.#X#X{.`.+Xm.h > h f b h h g x t t 0 9 9 9 8 8 8 8 8 8 8 8 ; - 8 A 8 8 A ",
"- - 6 6 6 6 9 6 9 6 6 6 0 % H ^ s d h h a a Z d d w.{.$X].`.}.].P.m s V a h f h h h x y r t e 7 9 8 8 8 8 8 8 8 6 8 A S A 8 8 8 ",
"6 6 6 6 6 % 6 6 6 - q - 9 7 $ P / s d d h d a  .L.}.}.`.{.}.`.}...c s h V a a h h h g g g g g r 0 9 8 8 8 8 8 8 8 8 8 8 A 8 8 8 ",
"6 6 6 6 6 6 6 6 6 6 8 6 % 6 < 2 g #.X. .V  .0.}.}.].}.oX].[.#Xp.h a a h h h h h h h h h h h h g e 9 9 9 8 8 8 8 8 8 8 8 8 8 8 8 ",
"6 6 - % < 6 6 6 8 6 6 6 % 6 w @ m K.J.p.0.F.{.}.#X`.{.#X`.#XI.Z a h h h h h h h h h h h h h h g t w 7 9 9 8 8 8 8 8 8 8 8 8 8 8 ",
"6 6 - - 6 6 6 6 8 6 6 6 6 9 7 2 t.P.A.p.L.{.oX`.].{.}.`.{.#X#.a h V V h a h h h h h h h h h h g y t e 0 9 9 8 8 8 8 8 8 8 8 q q ",
"6 6 6 6 6 9 6 6 8 6 8 - 9 7 % ` U.~.A.p.P.{.Q.oX`.{.{.`.#XA.a h h h a a h h h h h h h h h h h h x y r t e 0 9 9 8 8 8 8 8 8 8 8 ",
"6 6 6 6 6 6 6 6 8 8 8 % 9 7 7 i.J.P.P.P.A.{.}.~.}.`.{.}.].C a V h a a h h h h h h h h h h h h h h g g r t e 0 9 8 8 8 8 8 8 8 8 ",
"6 6 6 6 6 6 6 6 8 6 6 6 9 7 ) T.H.c.A.+XD.K.oXoX}.`.}.`.e.O V h h h h h h h a h h h h h h h h h k h h g y t e 0 6 8 8 8 8 8 8 8 ",
"6 6 9 6 6 6 6 6 6 6 - 6 6 7 4.@Xm.Q.A.P.#XF.P.}.Q.}.oXF.h h V a h h h a a h h h h h h h h h h h k z h h x y t e 7 9 8 8 8 8 8 8 ",
"6 6 6 6 6 q q 6 q - 9 % 6 1 ;.^.~.`.A.{.}.J.K.}.#XQ.S.C a h V a h h h h h h h h h h h h h h h l k k k l h x r t 0 7 6 6 8 8 8 8 ",
"6 6 6 6 6 9 9 6 9 - 9 7 1 1 ^ @X~.+XK.}.`.}.A.`.K.P.0.a h h h v h h h h h h h h h h h h h h h l z k k k h g x r t 0 7 6 8 8 8 8 ",
"6 6 6 6 6 6 6 6 6 6 9 7 1 2 y H.{.`.K.`.P.].L.A.I.S.C > v h a v h h h h h h h h h h h h h h h h z z k k h h x x r t 0 7 9 8 8 8 ",
"6 6 6 6 6 6 6 6 6 9 7 1 2 x 5 @.#X`.m.{.].`.#XS.#X,.a h V a h d h h h h h h h h h h h h h h h h z z k h k h h x r r e 0 9 8 8 8 ",
"6 6 6 6 6 6 6 6 6 9 7 1 y g c a S.Q.e.+X}.oX`.#XS.h a h v a v h h h h h h h h h h h h h h h h h h h h h h h h h s r t 0 6 8 8 8 ",
"6 6 6 6 6 6 6 9 9 % 1 2 x 5 Z a ..#.p.{.`.}.P.#X..a V a v a h h h h h h h h h h h h h h h h h h h h h h h h h h s 4 r 7 7 6 8 8 ",
"6 6 6 6 6 6 6 9 9 6 1 r x s h h h a I.].{.].oXs.a h Z a v h h h h h h h h h h h h h h h h h h h g g h h h h h h h g y t 7 6 8 8 ",
"6 6 6 6 6 - 6 9 7 u e t g m + h a C `.].{.].~.V d V h h h h V a h h h h h h h h h h h h h h h h g x g h h h k h h x x t 7 6 8 8 "
};
