/* XPM */
static char *d3871e299c67466a98753b553fbb10c3bajB8Mk4xqBR8VoC[] = {
/* columns rows colors chars-per-pixel */
"64 64 221 2 ",
"   c #001C0E",
".  c #001509",
"X  c #011E12",
"o  c #1C1D1F",
"O  c #151517",
"+  c #201E1F",
"@  c #022315",
"#  c #002A16",
"$  c #04251A",
"%  c #022D1C",
"&  c #0A2A1E",
"*  c #092218",
"=  c #11251E",
"-  c #01321E",
";  c #09301F",
":  c #00210F",
">  c #1E1F21",
",  c #211E21",
"<  c #062E21",
"1  c #0C2D22",
"2  c #1D2424",
"3  c #132E25",
"4  c #1B2C26",
"5  c #1E2F29",
"6  c #132823",
"7  c #023422",
"8  c #0B3425",
"9  c #023B26",
"0  c #0A3926",
"q  c #0D3729",
"w  c #043D28",
"e  c #0B3B2A",
"r  c #133326",
"t  c #193227",
"y  c #143429",
"u  c #1C332A",
"i  c #133B2D",
"p  c #193A2D",
"a  c #1C3D32",
"s  c #163A30",
"d  c #232325",
"f  c #2A2526",
"g  c #212A26",
"h  c #262729",
"j  c #252D2A",
"k  c #2B2B2B",
"l  c #2A2728",
"z  c #312A2D",
"x  c #32272D",
"c  c #23312C",
"v  c #2B312F",
"b  c #2E2E30",
"n  c #332E31",
"m  c #243531",
"M  c #2C3232",
"N  c #233D34",
"B  c #2A3C37",
"V  c #323133",
"C  c #3A3B3D",
"Z  c #37383A",
"A  c #413B3F",
"S  c #03402A",
"D  c #0C412D",
"F  c #13412E",
"G  c #144432",
"H  c #1B4434",
"J  c #1D4C3A",
"K  c #1B4837",
"L  c #134B37",
"P  c #254439",
"I  c #2B443C",
"U  c #2A4C3E",
"Y  c #244A3B",
"T  c #31473E",
"R  c #3E3E40",
"E  c #413C40",
"W  c #2C4C42",
"Q  c #254F41",
"!  c #344B43",
"~  c #3D4946",
"^  c #245241",
"/  c #2C5344",
"(  c #2D5A49",
")  c #3C554C",
"_  c #345B4C",
"`  c #375448",
"'  c #3D5E52",
"]  c #34604F",
"[  c #376352",
"{  c #3B6554",
"}  c #3C6A58",
"|  c #2E644D",
" . c #434345",
".. c #474749",
"X. c #4A4A4C",
"o. c #464A4A",
"O. c #4E4E51",
"+. c #435C54",
"@. c #4C5653",
"#. c #525254",
"$. c #5B5A5C",
"%. c #565758",
"&. c #4A504F",
"*. c #605E5F",
"=. c #4B655C",
"-. c #4A6D5E",
";. c #446659",
":. c #51695F",
">. c #45705E",
",. c #5F5F61",
"<. c #4D6D62",
"1. c #596963",
"2. c #467361",
"3. c #4D7765",
"4. c #5B756B",
"5. c #557B6B",
"6. c #567669",
"7. c #5D7C71",
"8. c #636365",
"9. c #6B6A6D",
"0. c #676869",
"q. c #63746E",
"w. c #6F6F71",
"e. c #647C73",
"r. c #6A7874",
"t. c #737275",
"y. c #79797B",
"u. c #736F72",
"i. c #807B7F",
"p. c #5B8575",
"a. c #4F826F",
"s. c #6C837B",
"d. c #638C7C",
"f. c #6D8A7D",
"g. c #668277",
"h. c #72837D",
"j. c #71897E",
"k. c #68907F",
"l. c #7E7E80",
"z. c #837E82",
"x. c #6B8E81",
"c. c #728E82",
"v. c #7C8684",
"b. c #6B9785",
"n. c #729585",
"m. c #7A938B",
"M. c #749C8D",
"N. c #79998B",
"B. c #7E9D93",
"V. c #7CA192",
"C. c #74A08F",
"Z. c #838385",
"A. c #848A8A",
"S. c #8C8C8D",
"D. c #868789",
"F. c #8E8E90",
"G. c #8D9A95",
"H. c #899894",
"J. c #939395",
"K. c #979799",
"L. c #949B9B",
"P. c #9B9B9D",
"I. c #959798",
"U. c #86918D",
"Y. c #88A79B",
"T. c #92A59E",
"R. c #91A89E",
"E. c #85B09F",
"W. c #9E9EA0",
"Q. c #A29EA1",
"!. c #8BABA1",
"~. c #9DA2A3",
"^. c #99AAA5",
"/. c #85B6A3",
"(. c #89B7A5",
"). c #98B7AB",
"_. c #9CBEB2",
"`. c #A3A3A5",
"'. c #A6A6A9",
"]. c #ABA6A9",
"[. c #A5AAAA",
"{. c #ABABAD",
"}. c #A9A5A6",
"|. c #B1ABAD",
" X c #B0A7AC",
".X c #A6B3AE",
"XX c #AEAEB0",
"oX c #B3ADB1",
"OX c #B8ADB3",
"+X c #ADB3B3",
"@X c #A6B9B3",
"#X c #B2B2B4",
"$X c #B6B6B9",
"%X c #B9BABC",
"&X c #B5BABA",
"*X c #A49B9E",
"=X c #ABC6BB",
"-X c #B1C5BD",
";X c #9EC4B7",
":X c #BDBEC0",
">X c #AECCC2",
",X c #B3CDC3",
"<X c #BAC6C3",
"1X c #BBD4CB",
"2X c #BBD9CD",
"3X c #B4D3C9",
"4X c #BDDDD2",
"5X c #C0C1C3",
"6X c #C4DDD4",
"7X c #CBDED7",
"8X c #C0D6CE",
"9X c #CBE4DB",
"0X c #CCE9DE",
"qX c #C6E3D8",
"wX c #D1E7DE",
"eX c #CDEDE1",
"rX c #D5ECE3",
"tX c #D9F5EA",
"yX c #DDFBF1",
"uX c #E8FDF9",
"iX c #F8FFFE",
/* pixels */
"9 9 w w 9 9 9 9 9 9 9 7 D D 9 0 9 9 e e % e e 9 9 9 9 S w S S S S S 9 9 9 9 9 9 7 9 7 9 7 7 7 7 9 - % 7 7 7 - 9 7 7 - % % & & & ",
"9 9 9 9 9 9 9 9 S % e D - - - - F F 9 7 - e 9 9 S S 9 S 9 w w w S 9 9 9 9 9 7 7 9 9 9 9 0 0 8 8 0 7 < 9 8 7 - 7 - - - % % % & ; ",
"9 9 9 9 9 9 9 9 - e 7 - - L [ J # % - 0 7 9 9 9 S S S S 9 9 9 9 9 9 9 9 9 7 7 8 q q q q r y r t t 3 3 r 8 < % 7 % % - - % % % ; ",
"9 9 9 9 9 9 9 9 S e % p.b.L [ b.} d.[ 0 - 9 - S S S S S 9 9 9 9 9 9 9 9 9 0 8 r p p y y u u c c c 5 5 u u 3 1 8 % 7 8 7 % % - - ",
"9 9 9 9 9 9 9 9 7 D 9 3.b.2.2.p.3.(.2.# 9 D % e w w w 9 9 9 w S w w w 9 q r r 4 c c c j j j k k k j k c c u u t & & 7 - - - - 7 ",
"9 9 w w 9 9 9 9 G - 9 7 H ] / U _ ;.H q 0 9 7 9 9 9 9 9 9 w S S w w 0 q r u 5 j c j k j k k k z z z z k k c c u & & & % % - 7 7 ",
"9 9 w 9 9 9 9 9 % e ( ( _ >.-.7.3.' P / q % e e e 9 9 9 9 w w S w 0 q y u 5 j h k k k k z z k z x x z z k k c c 3 1 & % - 7 7 7 ",
"9 9 w 9 9 9 9 7 9 J G { 5.U p U U p.{ Y H e 7 7 e e e 9 9 9 w e e e y t u j j k k k z z z z k k x x z k k k k c c t 1 % 7 7 7 - ",
"9 9 9 9 9 9 9 9 7 J H } H U -._ U P -.K H - e 7 e w w 9 w 9 9 9 % y t 4 c k k V k f d d d o d k k f f f f h d g c c t & # % - 7 ",
"9 9 9 9 9 9 9 9 7 } C.d._ ( _.7./ ;.M.M.] 7 % e 9 9 9 9 9 w 9 0 8 1 p c g k z d V %.y.y.8.O.C h h k b b k d d g c c u 1 & 0 0 # ",
"9 9 9 9 9 9 9 9 - 5.k.p./ H Y.Y.;.;.d.n.{ % 7 7 9 9 9 9 9 9 9 8 r 6 m M k k b ..J.{.%X+X[.[.L.A.%.C 2 o k V k d v c m p & < 0 % ",
"9 9 9 9 w w 9 e - 2.p.d.i <.).n.p [ x.b.] % e 7 w 9 9 9 9 9 7 7 t j j j V d V S.#X{.`.[.+X+X+X[.&XL.0.C h d h k k j c p 3 & # 7 ",
"9 9 9 9 9 9 9 9 9 ( M.V.3.7.n._ _ d.M.M.G 7 9 D e w 9 9 9 9 7 % m M k h k f O.#X{.[.[.@X+X[.{.+X[.+X+XW.y.#.E Z V Z 2 = a a 0 i ",
"9 9 9 9 9 w w 9 % J 2.J H U ( i i ( [ } G 9 7 - 9 9 9 9 9 9 9 8 B g b k , ..S.XX{.XX+X{.[.'.{.XX#X#X+X#X$X$X XQ.J.P.q.B 3 < $ % ",
"9 9 9 9 w w 9 9 D # Y 3._ _ { [ } { [ F 9 % 9 e 7 9 9 9 9 7 0 q m g k V d $.#X[.[.{.XXXX#X#XoX].#X#XXXXXoXOXOXoX#X%X~.q.N 1 i G ",
"9 9 9 9 9 9 9 7 9 9 0 ^ [ [ { ( [ { ^ 0 - G 7 7 7 9 9 9 7 7 7 r m M h b k %.{.`.XX{.XX+X#XoXoXoX$X$X#XoXoXOXOXoXoX[.#XT.+.r 8 % ",
"D 9 D # ; i - 8 8 - 7 0 K K i H / F q q % e - 9 9 - - 9 9 7 q p c d V V > %.`.`.#X[.#XXXXX$XoX#XoX{.`.`.[.[.'.|.|.oX`.+Xe.r 7 9 ",
"- - D F 8 r 8 8 8 F - 7 e J U Y i F 8 q F ; 8 - e 9 D D 7 % i p 2 V h b k %.K.XX{.$X#X[.#X$X[.{.{.oX{.`.[.[.`.'.{.|.].#Xs.1 8 % ",
"S w - % % $ % # @ # # ; # - % # # # % 8 : ; % q 7 % # - q 8 r N 2 V h k V D.#X#X{.XX`.`.`.`.{.#X].#X+X[.[.[.[.{.|.{.].#Xh.& 0 # ",
"# | 3.>.6.-.;.5.5.>.5.3.>.3.-.6.3.3.3.6.-.5.;.>.>.2.p.2.U P N = j b b h O.`.XX{.{.$X{.XX[.`.{.{.{.oXXXXX+X+X{.#X#X|.`.+Xq.$ 0 7 ",
"9 2.b.b.k.N.f.n.n.d.n.b.n.n.N.c.n.V.N.f.Y.f.n.V.M.d.M.p.;.N.H.&.k b o C `.$X'.#X{.[.9.8.P.XX{.{.oX{.{.{.+X[.[.{.{.#X'.+X+.& 7 7 ",
"- - # %   & $     $   $ $   & . r     r   ; @ X @ # r 3 m :.h.G.d k b t.%X`.#X'.F. .o d d #.P.#XoXoX{.XX+X[.`.[.[.XX{.[.! 8 % 7 ",
"G D q F <.r ) +.` 4.<.U r ;.1.4.p :.g.Y.) 3 ) <.4.I t T q.q.%.D.8.d V S.#XXX#X8.> b ..#...h h ,.`.oX#X{.{.[.[.[.[.[.+XH.a q 7 7 ",
"9 e q H 0X;.Y.=X6.1XtXc.) 9X8XrX` 2Xj.R.1XN 1X6XtX4.I @.q.v.9.*.y.d ,.#XXXXX[.K.t.#.,.$.#.8.%.k S.[.#X[.`.{.{.{.{.`.+Xh.3 0 7 7 ",
"9 7 0 U 2Xg.0X).&   @Xc.f.-Xu wX` ,X4.r.=X=.wXp ,Xe.I ~ A.y.%.0.l.d K.#X{.#X{.P.8.,.d ..t.X.Z.`.{.%X'.'.P.S.Z.l.S.[..X=.1 q 9 9 ",
"- F % U 2X3X0X^.P ).9Xf.` 0X-XwXT 6Xe.j.,X` qXY.9X4.N 1.1.k f t.0. .#X#X{.{.[.K.`.XX%.S.iXP.8.`.[.`.:X{.t.h h h h 1.G.W i 0 9 e ",
"7 # q i qXqX-X).N f.qXc.:.8Xs.9X! ,X1.j.1X* ).qXqXs.B r.1.k Z #X ...#X{.#X#X#X{.#X%X{.XXXXK.[.P.[.#X`.W...X.C o.k j +.p q e D e ",
"e F q K 9X).c.=X& * ).f.c.=XT wX` 6Xg.c.-Xp 6Xe.>Xs.p r.G.X.V }...C [.[.#XXX{.XX'.#X#X`.K.P.{.{.[.{.#Xt.V b R R @.B p a % e e 9 ",
"- e # P tX' m.,X6.0XyXn.I 9X9X0XI c.rXqXg.=.eXa 4Xx.t +.&X[.y.K.X.k `.#XXX#X`.{.%X`.'.#XXX#X#X`.{.#X#Xt.}.$.9.5Xo.4.N a 7 e % e ",
"e 7 i y ` P P P N ' ' P p N ;.+.P   -.;.$ P ' 8 _ a N +.^.&X`.K.C d J.%X{.$XXXXX{.#XXX{.'.#X{.+X'.+X'.Z.0.S.].#Xh.4.p i q 7 7 9 ",
"e 7 7 q 8 @ & t 3 $ & & @ N . $ X y X 1 p $ < 8 s $ a N c.[.P.S.b h t.%X{.XXXX[.{.{.'.#X{.{.`.#X+X[.'.{.t.9.D.P.&X) $ 0 9 7 e 7 ",
"# d.M.$ W ).P Y.<.1 ).=X!.1 <.>XY.& 7.m.1 P !./ & x.!.m ) ^.~.D.h d X.XX#X[.#X{.[.#X{.XX`.{.XX{.[.+XW.[.Q.P.'.{.L.P < 0 7 0 7 e ",
"1 B.yX1 m.uX! 6X4.m.0XY.tXP 6XH.7Xr.h.tXB e.tX) 1 2X9X! B r.1.O.h k b l.#X{.%X'.{.#X{.`.y.P.XX[.+X~.[.{.].oXQ.#Xm.p 8 9 9 7 7 7 ",
"$ N.uXs.@XrX! 8X6.!.^.) 1X-.7XN T.G.h.iX4.@XrXN ! 2X1X1.~ [.v.o.h k k 8.P.#X#XXXXXXXK.y.0.`.#X{.~.+X{.].}.*X[.[.e.y 9 9 9 9 7 7 ",
"$ B.uX,XwXrXI 6Xe.' eXeX1X+.0XN R.R.q.rX1X1X9XP e.@XR.m.~ +XD.C b k k  .9.XX{.#X[.D.8.0.t.P.P.#X[.+XJ.i. X|.#X@X+.8 9 7 9 9 - 7 ",
"8 B.=X4X@X1X` 1X4.a 4XY.3X;.9Xp R.R.f.).1X).1XP Y.@X^.@Xr.<XI.~ d k k k  .`.#X`.t.8.0.t.$...O.~.[.`.K.9.|.|.G.^.I 8 9 9 9 9 - 7 ",
"X Y.>X<.4.tXW qX6.d.4X;.rXP 3XB.2X4.N.,X;.4.9X+.3X6X-X^.A.#XW.R h k k k k F.'.0.C V k Z C V o C ..$.J.i.}.{.^.H.i 0 9 9 9 9 - 7 ",
"% d.!.X ` ,Xa _.5.M.x.Y ;Xy ;.3X_.i 5.(.1 P ).=..X4 c U.P.`.5X%.k V k V k w.D.b > k k h d h k b , V u.z.P.[..X+.q 0 9 w 7 9 7 7 ",
"0 7 % < 8 $ & i @ < q 8 % i X < # # 0 % < & 6 X = ~ o.1.{.`.W.t.d h h k k #.9.V V 8.Z.Z.8.#.#.b f , n O.P..XH.a q 0 7 S - 9 9 7 ",
"% K Q K / W W J ^ ^ K ^ H Q / K ^ ^ K J P P N B B [.G.y.[.XXQ.Z.k b b k h V X.C K.`.D.$.o.9.W.w.A b d h H.H.U q 0 9 7 D - 9 9 7 ",
"9 a.(.).E.(.(./.(./././././.(.(./././.E.Y.Y.Y.T.m.~.&XK.D.P.P.D.#.h V d k V O ..#X%X#X$X`.t.%.#.y.8.d M q.! p q 7 9 9 9 9 9 7 7 ",
"7 9 0 9 8 0 0 0 7 7 7 7 7 7 7 7 7 7 - % & & = = 1.<XP.{.#XZ.K.y.0.V k k h h h o.#X'.`.`.%X5X%X#XQ.9.V m I I i % 9 9 9 w 9 9 7 7 ",
"D 7 - 0 e 0 7 7 e e 9 w e e e e 9 9 0 0 r t u c 2 #.`.{.W.#XW.9.,.%.b d b h d b J.5XS.O.,.9.W.`.:XA.g m m y i 7 9 9 w 9 9 7 7 7 ",
"9 e e e 0 e e e 9 9 9 9 9 9 9 9 7 7 7 8 1 3 5 j d d V S.%XP.`.#XS.8.V k h h V o o.J.`.k h h d w.&Xr.6 P P % 7 0 9 9 9 9 7 7 7 7 ",
"S S w 7 7 9 9 - 9 9 9 9 9 9 9 9 9 9 8 8 r u j j k k k k w.XX`.{.{.`.8.h h b k V k ..9.b V k R ~.v.u I P 8 0 % 7 7 7 7 7 7 7 7 7 ",
"9 9 9 D D e 9 9 9 7 9 9 9 9 9 9 9 9 0 8 t 5 j j k , k k d 0.+XJ.XX#X{.w.V k k k b k > k h > w.Z.B 3 ! y % 0 7 % 7 7 7 7 7 7 7 7 ",
"w 9 9 e 7 % - w 9 9 9 9 9 9 9 9 9 0 q y u c j k k k h k o j v.+X'.{.#X#XJ.X.d V h d V V h k V 2 6 W s < 0 7 0 7 7 7 7 7 7 7 7 7 ",
"9 9 9 e D e 9 7 9 9 9 9 9 9 9 9 0 r r u c c k k k h k h M d M P.{.XX`.{.%X{.w.k d V d d k h d 2 ! P & q 7 7 7 7 9 9 9 7 7 - - - ",
"9 9 9 e e 9 9 9 9 9 9 9 9 9 9 q u j j j j j j k k h h V k d b ..{.`.{.{.`.{.XXK.R > d h d d 2 ~ I $ 8 8 7 e 7 7 7 7 % % 7 7 7 7 ",
"9 9 9 9 9 9 9 9 9 9 9 w 9 0 0 r j k k k k k k k k k k k k h h k w.#X'.'.#X{.'.{.[.8. .b  .o.O.g 3 1 < % 7 9 7 7 7 7 < % < 7 7 7 ",
"9 w 9 9 9 9 9 9 9 9 9 9 0 0 q y j k k k k k k k k k k k k k k d V K.#X`.#X{.`.#X{.[.F.,.t.S.F.M * y < % 8 7 7 7 7 7 7 7 < 7 7 7 ",
"e w 9 9 9 9 9 w 9 9 0 0 q r y u j k k k k k k k k k k h k V V k > #.#X[.`.{.{.[.'.XX[.K.t.Z.I.q.3 r 8 7 7 7 7 7 7 7 7 7 7 7 7 7 ",
"9 9 9 9 9 9 9 9 9 0 q q r t u c j k k k k k k k k k k l h h k k k > D.$X`.{.{.`.+X~.[.P.t.Z.~.A.) & 8 q % 9 7 9 7 7 9 7 7 7 7 9 ",
"7 7 9 9 9 9 9 9 9 q r y t t c v j k k k k k k k k k k k k h h k b > C '.{.[.`.XX`.+X{.D.W.P.P.G.e.r 8 q % 0 7 9 7 7 9 7 7 7 7 9 ",
"7 7 9 9 9 9 9 7 0 q y p c j j j k k k k k k k k l h k k k k k k k b o 0.`.{.`.{.#X#XJ.S.#XZ.Z.L.Y.W 8 8 7 7 7 9 7 7 7 7 7 7 7 7 ",
"9 9 9 9 9 9 9 0 q y p c j j k k k k k k k k k k k k k h h k k k d b k k F.#X{.W.+XW.J.$X~.D.`.v.@X<.8 < 9 - 7 7 7 7 7 7 7 7 7 7 ",
"9 9 9 7 7 7 8 8 r r u c j k z k k k k k k k k k k k k k k k k k d V h d C S.W.#X{.J.J.XX{.Z.W.~.^.=.1 < % 9 - 0 7 9 q 8 7 7 7 7 ",
"9 9 9 9 9 0 q r t u c j k k k f k k k k k k k k k k k k k k k k k k k k h 8.P.J.~.Z.XX[.{.F.XX~.@X! 1 < 8 0 % 7 7 9 9 7 7 7 7 7 ",
"9 9 9 0 q q r t u c c j k f f f k k k k k k k k k k k k k k k k k h k V d C S.P.Z.I.[.W.`.J.W.[.G.c 3 1 8 0 7 7 7 7 8 7 7 7 7 7 ",
"9 9 9 0 q y t t c j j k k f f l k k k k k k k k k k k k k k k k h k h V k h ,.#XS.#X`.[.{.v.`.+X@.2 c 3 < 0 9 7 7 7 7 7 7 7 7 7 ",
"9 9 7 7 8 r 4 g j j k k k k l l k k k k k k k k k k k k k k k k h b d b k d k S.#X`.XX{.#X0.P.D.d b j u 1 8 8 7 7 7 7 7 7 7 7 7 ",
"9 9 7 8 r t g g k k k k k k j j k k k k j k k k k k k k k k k k k k h b d V d o.#XP.{.'.{.t.O. .d Z 2 c r < % 9 7 7 7 7 7 7 7 7 ",
"9 9 7 8 r u j l k z z k k j j j k k k k j k k k k k k k k k k k k k k b d V k h y.XX[.{.[.K.d h z k g c p < 7 9 9 7 7 7 7 7 7 7 ",
"9 9 7 q y c j k z z z k l j j j k k k k k k k k k k k k k k k k d V k k k h V h V ~.[.{.'.`.C d z + M c t 8 i 9 8 < % 7 7 7 7 7 "
};
