/* XPM */
static char *_72412faba6d43d9e704212d13503dc5KA5fvD0WFPPgVCSe[] = {
/* columns rows colors chars-per-pixel */
"64 64 172 2 ",
"   c #140100",
".  c #1D0501",
"X  c #1C0905",
"o  c #1C0D0B",
"O  c #160B09",
"+  c #14110E",
"@  c #110F10",
"#  c #151515",
"$  c #1B1515",
"%  c #171719",
"&  c #191718",
"*  c #1D1D1D",
"=  c #250905",
"-  c #2A0B05",
";  c #210D0A",
":  c #2A0D09",
">  c #23120E",
",  c #2B110D",
"<  c #34130D",
"1  c #39140E",
"2  c #251310",
"3  c #2A1612",
"4  c #211817",
"5  c #2D1915",
"6  c #2E1C19",
"7  c #251D1B",
"8  c #331511",
"9  c #3A1511",
"0  c #351A16",
"q  c #3B1A13",
"w  c #341D19",
"e  c #3A1E1A",
"r  c #1E201F",
"t  c #24201F",
"y  c #34221F",
"u  c #1E1E20",
"i  c #222222",
"p  c #292826",
"a  c #2B2B2B",
"s  c #2C2626",
"d  c #342523",
"f  c #3B2623",
"g  c #3C312F",
"h  c #343434",
"j  c #3D3D3C",
"k  c #421B15",
"l  c #4A3C3B",
"z  c #3F3F41",
"x  c #444444",
"c  c #4F4140",
"v  c #4B4B4B",
"b  c #524745",
"n  c #544947",
"m  c #544D4B",
"M  c #5A4F4D",
"N  c #52514F",
"B  c #5A504E",
"V  c #545454",
"C  c #5D5352",
"Z  c #595856",
"A  c #5C5C5C",
"S  c #625655",
"D  c #635957",
"F  c #645C5A",
"G  c #5E605F",
"H  c #76615C",
"J  c #5F6160",
"K  c #626262",
"L  c #6B6464",
"P  c #696967",
"I  c #666668",
"U  c #6C6C6C",
"Y  c #726866",
"T  c #726E6E",
"R  c #7E6C68",
"E  c #6D6E70",
"W  c #737374",
"Q  c #7C7472",
"!  c #7F7A77",
"~  c #787679",
"^  c #7C7C7C",
"/  c #8B7F7D",
"(  c #817976",
")  c #81817F",
"_  c #8F817E",
"`  c #B4887F",
"'  c #B9897F",
"]  c #848484",
"[  c #8C8482",
"{  c #898987",
"}  c #878789",
"|  c #898788",
" . c #8B8B8B",
".. c #978F8D",
"X. c #9A8F8D",
"o. c #91908E",
"O. c #939393",
"+. c #9C9897",
"@. c #979998",
"#. c #9C9C9C",
"$. c #AC8B86",
"%. c #B38A84",
"&. c #BA8A82",
"*. c #A09E9E",
"=. c #A19FA0",
"-. c #A2A2A2",
";. c #A9A7A8",
":. c #AEAEAE",
">. c #B0A2A1",
",. c #B3A9A8",
"<. c #BAAFAD",
"1. c #B0B0AE",
"2. c #BAB1AE",
"3. c #B5B5B5",
"4. c #BAB4B2",
"5. c #BBBBBB",
"6. c #C58F84",
"7. c #C98E85",
"8. c #C79186",
"9. c #CB9186",
"0. c #C4938B",
"q. c #CB938A",
"w. c #D0968B",
"e. c #DF9F95",
"r. c #E49A8D",
"t. c #E69A8C",
"y. c #E69A8D",
"u. c #E6998F",
"i. c #E49A8F",
"p. c #E79B8E",
"a. c #E6998D",
"s. c #E69A8D",
"d. c #E19F93",
"f. c #E69E91",
"g. c #E59F95",
"h. c #E49E93",
"j. c #E89E92",
"k. c #E89E91",
"l. c #DDA096",
"z. c #DEA298",
"x. c #E2A196",
"c. c #E4A195",
"v. c #E3A095",
"b. c #E9A194",
"n. c #E2A398",
"m. c #E2A399",
"M. c #C2B9B7",
"N. c #C3BDBB",
"B. c #C2C2C2",
"V. c #C5C5C5",
"C. c #C6C6C6",
"Z. c #C5C5C5",
"A. c #CECECE",
"S. c gray81",
"D. c #CDCECE",
"F. c #CCCCCC",
"G. c #CCC3C4",
"H. c #D2CECC",
"J. c #CED0CF",
"K. c #D0D0D0",
"L. c gray82",
"P. c #D2D2D2",
"I. c LightGray",
"U. c #D4D4D4",
"Y. c #D1D1D1",
"T. c #DEDEDE",
"R. c #DEE0DD",
"E. c #DFDFE1",
"W. c #E2E2E2",
"Q. c #EDEDED",
"!. c #EFF1EE",
"~. c #F1F1F1",
/* pixels */
"y.y.y.y.y.y.y.y.y.y.y.y.y.y.y.y.y.y.y.y.y.y.y.y.y.y.y.y.y.y.y.y.y.y.y.y.y.y.y.y.y.y.y.y.y.y.y.y.y.y.y.y.y.y.y.y.y.y.y.y.y.y.y.y.",
"y.y.y.y.y.y.y.y.y.y.y.y.y.y.y.y.y.y.y.y.y.y.y.y.y.y.y.y.y.y.y.y.y.y.y.y.y.y.y.y.y.y.y.y.y.y.y.y.y.y.y.y.y.y.y.y.y.y.y.y.y.y.y.y.",
"y.y.y.y.y.y.y.y.y.y.y.y.y.y.y.y.y.y.y.y.y.y.y.y.y.y.y.y.y.y.y.y.y.y.y.y.y.y.y.y.y.y.y.y.y.y.y.y.y.y.y.y.y.y.y.y.y.y.y.y.y.y.y.y.",
"y.y.y.y.y.y.y.y.y.y.y.y.y.y.y.y.y.y.y.y.y.y.y.y.y.y.y.y.y.y.y.y.y.y.y.y.y.y.y.y.y.y.y.y.y.y.y.y.y.y.y.y.y.y.y.y.y.y.y.y.y.y.y.y.",
"y.y.y.y.y.y.y.y.y.y.y.y.y.y.y.y.y.y.y.y.y.y.y.y.y.y.y.y.y.y.y.y.y.y.y.y.y.y.y.y.y.y.y.y.y.y.y.y.y.y.y.y.y.y.y.y.y.y.y.y.y.y.y.y.",
"y.y.y.y.y.y.y.y.y.y.y.y.y.y.y.y.y.y.y.y.y.y.y.y.y.y.y.y.y.y.y.y.y.y.y.y.y.y.y.y.y.y.y.y.y.y.y.y.y.y.y.y.y.y.y.y.y.y.y.y.y.y.y.y.",
"y.y.y.y.y.y.y.y.y.y.y.y.y.y.y.y.y.y.y.y.y.y.y.y.y.y.y.y.y.y.y.y.y.y.y.y.y.y.y.y.y.y.y.y.y.y.y.y.y.y.y.y.y.y.y.y.y.y.y.y.y.y.y.y.",
"y.y.y.y.y.y.y.y.y.y.y.y.y.y.y.y.y.y.y.y.y.y.y.y.y.y.y.y.y.y.y.y.y.y.y.y.y.y.y.y.y.y.y.y.y.y.y.y.y.y.y.y.y.y.y.y.y.y.y.y.y.y.y.y.",
"y.y.y.y.y.y.y.y.y.y.y.y.y.y.y.y.y.y.y.y.t.t.y.y.y.t.y.y.y.y.y.y.y.y.y.y.y.y.y.y.y.y.y.y.y.y.y.y.y.y.y.y.y.y.y.y.y.y.y.y.y.y.y.y.",
"y.y.y.y.y.y.y.y.y.y.r.y.y.y.y.y.y.y.g.c.c.x.c.c.x.x.c.g.y.y.y.y.y.y.y.y.y.y.y.y.y.y.y.y.y.y.y.y.y.y.y.y.y.y.y.y.y.y.y.y.y.y.y.y.",
"y.y.y.y.y.y.y.y.y.y.y.y.y.y.y.j.j.h.q.0.0.0.0.0.0.0.0.q.d.j.y.y.y.y.y.y.y.y.y.y.y.y.y.y.y.y.y.y.y.y.y.y.y.y.y.y.y.y.y.y.y.y.y.y.",
"y.y.y.y.y.y.y.y.y.y.y.y.y.r.e.9.q.&.9 = : , : : : : = 1 &.q.e.g.r.y.y.y.y.y.t.y.y.y.y.y.y.y.y.y.y.y.y.y.y.y.y.y.y.y.y.y.y.y.y.y.",
"y.y.y.y.y.y.y.y.y.y.y.y.p.n.&.8 = 2 M C S / S C C C C M 2 8 %.q.d.j.y.y.y.y.y.y.y.y.y.y.y.y.y.y.y.y.y.y.y.y.y.y.y.y.y.y.y.y.y.y.",
"y.y.y.y.y.y.y.y.y.y.r.d.q.` 3 n C V K K K P P P P P P K Z B > < &.w.d.r.y.y.y.y.y.y.y.y.y.y.y.y.y.y.y.y.y.y.y.y.y.y.y.y.y.y.y.y.",
"y.y.y.y.y.y.y.y.y.r.x.&.0 > 7 K I P K A A A  .O. .O. .P P K C M > < &.n.r.y.r.y.y.y.y.y.y.y.y.y.y.y.y.y.y.y.y.y.y.y.y.y.y.y.y.y.",
"y.y.y.y.y.y.y.y.r.n.&.e [ O.O.@.@.O.} i # & * * * * p {  .A A K A m 0 &.d.r.y.y.y.y.y.y.y.y.y.y.y.y.y.y.y.y.y.y.y.y.y.y.y.y.y.y.",
"y.y.y.y.y.y.y.r.x.&.0 B +.-.=.=. .p * i i i i i i i i * * # * V A F m 8 q.j.r.y.y.y.y.y.y.y.y.y.y.y.y.y.y.y.y.y.y.y.y.y.y.y.y.y.",
"y.y.y.y.y.y.y.x.' q M K P @.-.O.p # p 3.C.B.B.B.B.C.5.a * i i & # * m ; ' d.r.y.y.y.y.y.y.y.y.y.y.y.y.y.y.y.y.y.y.y.y.y.y.y.y.y.",
"y.y.y.y.y.r.h.&.0 b F K K @.-.@.& * 3.U.I.I.I.I.I.I.I.C.B.C.3.a i i & O < q.g.y.t.y.y.y.y.y.y.y.y.y.y.y.y.y.y.y.y.y.y.y.y.y.y.y.",
"y.y.y.y.y.g.q.1 c i * V K @.-. .* a C.I.S.S.S.S.S.S.S.I.I.I.I.B.C.3.a 4 X %.e.y.y.y.y.y.y.y.y.y.y.y.y.y.y.y.y.y.y.y.y.y.y.y.y.y.",
"y.y.y.y.y.x.%.. $ $ # p K #.O.i i 5.I.S.S.S.S.S.S.S.S.S.S.S.S.I.I.I.C.4.4 : q.f.y.y.y.y.y.y.y.y.y.y.y.y.y.y.y.y.y.y.y.y.y.y.y.y.",
"y.y.y.y.j.q., o $ # & v K #.O.i i 5.I.S.S.S.S.S.S.S.S.I.S.S.S.S.S.S.U.C.p   q.f.r.y.y.y.y.y.y.y.y.y.y.y.y.y.y.y.y.y.y.y.y.y.y.y.",
"y.y.y.y.f.9.. + & # # p A O.-. .* p B.I.S.S.S.I.S.I.S.S.S.S.S.S.S.I.S.I.3.y %.x.r.y.y.y.y.y.y.y.y.y.y.y.y.y.y.y.y.y.y.y.y.y.y.y.",
"y.y.y.y.j.q.X # # # i V K K O.O.* * B.I.S.I.S.S.S.S.S.I.S.S.S.I.S.S.S.S.U.<.k 7.g.y.y.y.y.y.y.y.y.y.y.y.y.y.y.y.y.y.y.y.y.y.y.y.",
"y.y.y.y.j.q.X # # & V K K K P K & i B.I.S.C.I.S.S.S.S.S.S.S.S.S.S.S.J.S.I.N.: 0.c.y.y.y.y.y.y.y.y.y.y.y.y.y.y.y.y.y.y.y.y.y.y.y.",
"y.y.y.y.j.q.X @ # i A A K O.O.K # * B.I.C.O.C.I.S.S.S.S.S.S.S.S.S.S.J.S.I.N.y %.x.y.y.y.y.y.y.y.y.y.y.y.y.y.y.y.y.y.y.y.y.y.y.y.",
"y.y.y.y.j.q.X + * A A p A K I A & a C.S. .]  .C.I.I.I.I.I.I.I.I.I.S.S.S.S.I.<.e 9.j.y.y.y.y.y.y.y.y.y.y.y.y.y.y.y.y.y.y.y.y.y.y.",
"y.y.y.y.j.q.X # V K K A A K A * i 3.I.C.} ] { C.S.C.C.C.C.C.C.C.C.I.I.I.S.U.B.> 0.b.r.y.y.y.y.y.y.y.y.y.y.y.y.y.y.y.y.y.y.y.y.y.",
"y.y.y.y.j.q.X * A K J K A K A # * C.U.C.O.]  .B. .] W ~ ~ W W }  .C.F.F.C.S.5.d &.h.r.y.y.y.y.y.y.y.y.y.y.y.y.y.y.y.y.y.y.y.y.y.",
"y.y.y.y.j.q.; v K K G G A K V & a B.I.S.B.{ ^ } W W W O.O.U P P W { | } { } O.>.k 9.f.y.y.y.y.y.y.y.y.y.y.y.y.y.y.y.y.y.y.y.y.y.",
"y.y.y.r.j.q.X i A K K K K A & * 3.I.J.C. .^ V P U O. .V v v v v P ] ] v K P U Y - 0.b.y.y.y.y.y.y.y.y.y.y.y.y.y.y.y.y.y.y.y.y.y.",
"y.y.y.r.j.8.; v A A A A K Z # a B.S.I.C. .} ^ ~ v v V x v v x x v { 5.V x v v D - 0.b.t.y.y.y.y.y.y.y.y.y.y.y.y.y.y.y.y.y.y.y.y.",
"y.y.y.r.j.q.. # & & & u V * p :. . .C.S.C.C.{ v v V { A O.O.v v } 3.#.V v v v l 1 9.f.y.y.y.y.y.y.y.y.y.y.y.y.y.y.y.y.y.y.y.y.y.",
"y.y.y.r.d.&.> & * * u u # i W  .] ]  .C.I.I.Z. .3.@.-.#.-.@.} { C.5.3.#.O.V x > %.e.r.y.y.y.y.y.y.y.y.y.y.y.y.y.y.y.y.y.y.y.y.y.",
"y.y.y.g.q.q _ O.O.O.O.{ a W { ] } ] { C.C.S.I.C.O.O.C.I.B. .C.S.S.5.3.3.-.#. .> 0.b.r.y.y.y.y.y.y.y.y.y.y.y.y.y.y.y.y.y.y.y.y.y.",
"y.y.y.c.0.- X.-.#.#.*.*.O.] ^ ] } ] } {  .C.I.S.C.C.I.C.O. .S.I.S.5.3.3.3.S.5.3 6.p.y.y.y.y.y.y.y.y.y.y.y.y.y.y.y.y.y.y.y.y.y.y.",
"y.y.y.f.q.q _ #.#.@.#.#.@.V v v ^ } } } ]  .C.I.S.I.S.S.C.C.C.C.C.5.3.3.5.I.5.3 6.j.y.y.y.y.y.y.y.y.y.y.y.y.y.y.y.y.y.y.y.y.y.y.",
"y.y.y.r.x.%.6 o.=.@.#.#.@.~ x x ) } ^ ] } ]  .C.I.S.I.S.I.S. . .3.3.3.3.3.5.5.3 6.j.y.y.y.y.y.y.y.y.y.y.y.y.y.y.y.y.y.y.y.y.y.y.",
"y.y.y.y.c.q.; o.-.#.#.#.O.V x v ] ~ v ^ } } ]  .C.I.S.S.I.C.} :.5.5.5.5.3.5.5.3 6.j.y.y.y.y.y.y.y.y.y.y.y.y.y.y.y.y.y.y.y.y.y.y.",
"y.y.y.t.j.9.0 [ *.#.#.#.O.v x v ^ V v ) } } } ]  .C.I.I.S.{ V ;.3.:.:.:.3.5.;.3 8.f.y.y.y.y.y.y.y.y.y.y.y.y.y.y.y.y.y.y.y.y.y.y.",
"y.y.y.y.t.x.%.5 ..=.@.#.O.v ~ ] ] ^ ^ ] ] ] ] ] ]  .C.C.C.] x j j j j x ;.3.;.3 6.f.y.y.y.y.y.y.y.y.y.y.y.y.y.y.y.y.y.y.y.y.y.y.",
"y.y.y.y.y.c.q.9 [ -.*.-.@.V ^ } } } } ] ] } { { { ] { { { } v h h h h h j V 3.5 6.f.y.y.y.y.y.y.y.y.y.y.y.y.y.y.y.y.y.y.y.y.y.y.",
"t.y.y.y.y.r.d.&.6 } O.O.O.] ] } ] ] } } ] { C.S.C. .] ]  .B.^ x x x x z h ] 5., 6.f.y.y.y.y.y.y.y.y.y.y.y.y.y.y.y.y.y.y.y.y.y.y.",
"y.y.y.y.y.y.j.q.X * p i p W } } ] } } } ]  .F.I.I.C. . .C.C.V x x x x v v { ,.e 7.p.t.y.y.y.y.y.y.y.y.y.y.y.y.y.y.y.y.y.y.y.y.y.",
"y.y.y.y.y.y.f.q.; h x j j p W } ] } } ] { C.I.I.S.I.C.C.U.B.v x x v v W ] ( w %.e.y.y.y.y.y.y.y.y.y.y.y.y.y.y.y.y.y.y.y.y.y.y.y.",
"y.y.y.y.y.y.j.q.; j v x x j p ^ } } } ] { C.I.S.S.S.I.I.C.} x x x W v v  .2., 0.m.y.y.y.y.y.y.y.y.y.y.y.y.y.y.y.y.y.y.y.y.y.y.y.",
"y.y.y.y.y.t.j.q.; j x x v x * ~ ] ^ ) ] { C.I.I.I.S.S.C.} v x x v A V V @.M.8 0.x.y.y.y.y.y.y.y.y.y.y.y.y.y.y.y.y.y.y.y.y.y.y.y.",
"y.y.y.y.y.y.f.q.; j x v ~ x * x v x v ^ { C.I.C.C.I.S.{ V ] }  .:.3.1.{ O.M.< 0.h.y.y.y.y.y.y.y.y.y.y.y.y.y.y.y.y.y.y.y.y.y.y.y.",
"y.y.y.y.y.y.f.q.; j v ^ ] v j i j x x ~ { C.S. . .C.B.O.5.S.C.C.C.C.C.3.C.2.k 7.g.y.y.y.y.y.y.y.y.y.y.y.y.y.y.y.y.y.y.y.y.y.y.y.",
"y.y.y.y.y.y.j.9.; j v ] ] v x j * x x v ] O.B.{ ] { O.C.I.C.C. .{ { } O.5.d &.x.f.y.y.y.y.y.y.y.y.y.y.y.y.y.y.y.y.y.y.y.y.y.y.y.",
"y.y.y.y.y.y.j.q.o j v ^ } ~ v z * j x v ^ } { } ] } 5.I.C.O. .{ { } } O.3.3 0.b.r.y.y.y.y.y.y.y.y.y.y.y.y.y.y.y.y.y.y.y.y.y.y.y.",
"y.y.y.y.y.y.d.&.3 T V ^ } ] ~ v j i * j v ~ ] } } }  .C.I.C.C.C.C.C.C.H.N., 6.j.t.y.y.y.y.y.y.y.y.y.y.y.y.y.y.y.y.y.y.y.y.y.y.y.",
"y.y.y.y.t.f.q.1 Q } ] } ] } } ^ v j j * * x v ^ ] ^ ^  .C.I.I.I.I.I.I.I.<.e 9.j.y.y.y.y.y.y.y.y.y.y.y.y.y.y.y.y.y.y.y.y.y.y.y.y.",
"y.y.y.y.t.e.%.f H.O.] ] ] } } } ^ v x x j * * x x x v ~ { C.S.C.C.C.S.N.d %.l.y.y.y.y.y.y.y.y.y.y.y.y.y.y.y.y.y.y.y.y.y.y.y.y.y.",
"y.y.y.y.j.q.e G.~.T.O.{ ] ] } ] } ^ v x x x j * * j x x v ] } } { { @.4., 0.x.y.y.y.y.y.y.y.y.y.y.y.y.y.y.y.y.y.y.y.y.y.y.y.y.y.",
"y.y.y.r.d.&.2 ~ W.~.Q.T.O.} ] } } } ^ v x x x x j i * r j x x v ~ ] ! R 9 q.g.y.y.y.y.y.y.y.y.y.y.y.y.y.y.y.y.y.y.y.y.y.y.y.y.y.",
"y.y.y.g.q.1 F P ^ T.Q.Q.Q.T.O.] ] ] } ^ v x x x x x x z i & * j v Y 3 1 &.d.r.y.y.y.y.y.y.y.y.y.y.y.y.y.y.y.y.y.y.y.y.y.y.y.y.y.",
"y.y.y.n.%.3 L W P ^ T.~.Q.~.W.O.{  .] ] ~ v x x x x x x j x j t o 0 %.q.d.f.y.y.y.y.y.y.y.y.y.y.y.y.y.y.y.y.y.y.y.y.y.y.y.y.y.y.",
"y.r.h.&.w F T U U P ^ E.~.Q.Q.Q.Q.W.O.{ } ^ ] ^ v x v v v x v g < &.m.g.y.y.y.y.y.y.y.y.y.y.y.y.y.y.y.y.y.y.y.y.y.y.y.y.y.y.y.y.",
"y.g.q.1 S W U U U U U ^ T.~.Q.~.~.Q.Q.W.O.{ } ] ] ] ^ ) ~ N L w &.n.y.y.y.y.y.y.y.y.y.y.y.y.y.y.y.y.y.y.y.y.y.y.y.y.y.y.y.y.y.y.",
"y.n.%., L U U U U U U P ^ T.~.Q.Q.Q.~.Q.Q.R.O.{ ] ] } } { Q 5 %.z.r.y.y.y.y.y.y.y.y.y.y.y.y.y.y.y.y.y.y.y.y.y.y.y.y.y.y.y.y.y.y.",
"n.&.0 F T E U U U U U U U ^ E.~.Q.Q.Q.Q.!.!.Q.W.o.{ ] } ^ ( - 0.x.y.y.y.y.y.y.y.y.y.y.y.y.y.y.y.y.y.y.y.y.y.y.y.y.y.y.y.y.y.y.y.",
"$.e D T U U U U U U U U U P ^ T.Q.Q.Q.Q.Q.Q.~.Q.Q.W.O.T d H k 9.g.y.y.y.y.y.y.y.y.y.y.y.y.y.y.y.y.y.y.y.y.y.y.y.y.y.y.y.y.y.y.y.",
"; D T U U U U U U U U U U U P ) Q.~.Q.Q.Q.Q.Q.Q.Q.~.U.s / e ` l.r.y.y.y.y.y.y.y.y.y.y.y.y.y.y.y.y.y.y.y.y.y.y.y.y.y.y.y.y.y.y.y."
};
