/* XPM */
static char *_5c5661175a24ec6e499b6896950dcddfbvt9id8mO9z0oX4[] = {
/* columns rows colors chars-per-pixel */
"64 64 250 2 ",
"   c #030406",
".  c #0B120C",
"X  c #1A1616",
"o  c #291309",
"O  c #311A10",
"+  c #002715",
"@  c #00381D",
"#  c #3B2215",
"$  c #003923",
"%  c #1D3328",
"&  c #342E2E",
"*  c #561F0C",
"=  c #462919",
"-  c #54321D",
";  c #73381E",
":  c #4E3228",
">  c #4A3428",
",  c #583A29",
"<  c #643B2A",
"1  c #004226",
"2  c #00442A",
"3  c #004B2C",
"4  c #00512E",
"5  c #054832",
"6  c #004E32",
"7  c #005334",
"8  c #015937",
"9  c #005C3A",
"0  c #234F3C",
"q  c #00643B",
"w  c #00693C",
"e  c #584137",
"r  c #77442A",
"t  c #72482D",
"y  c #6A4639",
"u  c #795238",
"i  c #433F40",
"p  c #095D43",
"a  c #006443",
"s  c #016A47",
"d  c #007444",
"f  c #007C48",
"g  c #0B7956",
"h  c #2F6F55",
"j  c #377E67",
"k  c #494746",
"l  c #524F4B",
"z  c #595756",
"x  c #72564B",
"c  c #785749",
"v  c #645C5A",
"b  c #4E6C59",
"n  c #70665C",
"m  c #4E7A66",
"M  c #6A6864",
"N  c #6E796C",
"B  c #833F22",
"V  c #86482B",
"C  c #94512D",
"Z  c #874D33",
"A  c #8A5538",
"S  c #995836",
"D  c #A25E3B",
"F  c #A6633E",
"G  c #B46A3F",
"H  c #8A5C49",
"J  c #89624A",
"K  c #966448",
"L  c #8E6956",
"P  c #AB6542",
"I  c #AD6A44",
"U  c #A66648",
"Y  c #AB6B4A",
"T  c #B26646",
"R  c #B36B44",
"E  c #B26D49",
"W  c #B3724D",
"Q  c #BB744A",
"!  c #AE6C54",
"~  c #A87359",
"^  c #B57553",
"/  c #BA7757",
"(  c #8F796E",
")  c #AC7362",
"_  c #B97A65",
"`  c #C27D5A",
"'  c #C67D58",
"]  c #C57C63",
"[  c #068A56",
"{  c #33876C",
"}  c #4D8F6D",
"|  c #5A8772",
" . c #688A77",
".. c #6E8E7A",
"X. c #70A775",
"o. c #BC825C",
"O. c #998375",
"+. c #B9866A",
"@. c #A78877",
"#. c #B28D75",
"$. c #A7AB75",
"%. c #C8825A",
"&. c #D3885D",
"*. c #C98666",
"=. c #D38C65",
"-. c #D28968",
";. c #C8916E",
":. c #D9946B",
">. c #CB8C74",
",. c #CD9178",
"<. c #D7967A",
"1. c #E1956E",
"2. c #E29E74",
"3. c #569B84",
"4. c #699B85",
"5. c #759685",
"6. c #71A58C",
"7. c #95968D",
"8. c #AA968A",
"9. c #AD9A8F",
"0. c #87A991",
"q. c #95A897",
"w. c #B5AB85",
"e. c #BBB589",
"r. c #ACA895",
"t. c #BCB596",
"y. c #96B1A4",
"u. c #B4AFA9",
"i. c #A7B7A7",
"p. c #B9B3AA",
"a. c #BABAB2",
"s. c #CA9785",
"d. c #DA9A84",
"f. c #C2B78A",
"g. c #D1AA93",
"h. c #C2BD93",
"j. c #C3BC99",
"k. c #E4A990",
"l. c #C5B7A6",
"z. c #D9B5A6",
"x. c #C6BBB4",
"c. c #D0BBB0",
"v. c #AAC28F",
"b. c #B9C4BB",
"n. c #C7C297",
"m. c #CAC59D",
"M. c #DACA97",
"N. c #DDCE9D",
"B. c #DDD09E",
"V. c #E3CD92",
"C. c #E8D296",
"Z. c #E5D29C",
"A. c #E9D49D",
"S. c #CCC8A8",
"D. c #D4CDA7",
"F. c #D3CEAA",
"G. c #DCD4A6",
"H. c #D5D1AC",
"J. c #DBD4AC",
"K. c #C9C5B7",
"L. c #D4CDB3",
"P. c #D4CAB8",
"I. c #CCD7BF",
"U. c #D5D3B3",
"Y. c #DBD5B2",
"T. c #DED9B4",
"R. c #D6D2BB",
"E. c #DBD5BB",
"W. c #DDDABB",
"Q. c #E6C6AD",
"!. c #E2D4A4",
"~. c #EAD6A2",
"^. c #E6D8A6",
"/. c #EDD9A4",
"(. c #E3D6AC",
"). c #E5DBAD",
"_. c #EBDCAC",
"`. c #F1DCA4",
"'. c #F1DEAB",
"]. c #E3DCB4",
"[. c #EADEB2",
"{. c #E7DAB9",
"}. c #E4DCBB",
"|. c #EDE1AE",
" X c #F2E0AC",
".X c #E7E1B4",
"XX c #EBE2B4",
"oX c #E6E2BC",
"OX c #EBE3BB",
"+X c #F2E3B3",
"@X c #F9E7B6",
"#X c #F1E3BC",
"$X c #BECFC1",
"%X c #C8C9C4",
"&X c #D2CDC5",
"*X c #D5CEC8",
"=X c #CAD1CB",
"-X c #D5D3C2",
";X c #DBD4C3",
":X c #DEDAC4",
">X c #D4D2CC",
",X c #DBD4CC",
"<X c #DEDACC",
"1X c #D8D7D2",
"2X c #DDDAD3",
"3X c #EACCC5",
"4X c #E3DDC3",
"5X c #E6D8CA",
"6X c #E3DDCB",
"7X c #E3DCD4",
"8X c #E6DDD7",
"9X c #E6E3C3",
"0X c #ECE5C2",
"qX c #EDE9C3",
"wX c #E6E1CC",
"eX c #EBE4CB",
"rX c #EEE9CB",
"tX c #F4EAC5",
"yX c #F5E8C6",
"uX c #F4EBCB",
"iX c #FAECC9",
"pX c #E5E1D4",
"aX c #EBE5D4",
"sX c #EEE9D4",
"dX c #E6E2DB",
"fX c #EBE4DB",
"gX c #EDE9DC",
"hX c #F2EAD3",
"jX c #F7EBDB",
"kX c #F2ECDD",
"lX c #FAF1DB",
"zX c #E5E3E1",
"xX c #EAE6E1",
"cX c #EEEAE4",
"vX c #EEECEB",
"bX c #F2EDE4",
"nX c #FAECE1",
"mX c #F4EFEB",
"MX c #F6F0E6",
"NX c #FAF3E4",
"BX c #F5F1EC",
"VX c #F6F1EE",
"CX c #F9F3ED",
"ZX c #F8F4EF",
"AX c #F0EFF0",
"SX c #F6F4F2",
"DX c #F9F5F0",
"FX c #F9F5F3",
"GX c #FCF9F6",
"HX c #FCFBFB",
/* pixels */
"CXhX[./.A.A.A.A.A.A.A.A.A.A.A.C.C.C.A.[.hXDXGXHXfXM.C.[.CXHXHXGXDXDXCXCXCXCXCXVXVXVXVXVXVXVXVXVXmXmXmXmXmXmXmXmXmXmXmXVXVXVXmXVX",
"[.~.A.~.~.~././.~.~.~.~.~.A.A.A.A.A.A.C.C._.hXDXHXaXZ.C./.hXCXDXDXDXCXDXCXCXCXCXCXCXVXVXVXVXVXVXVXmXmXmXmXmXmXmXmXVXVXVXVXVXmXVX",
"~./././././././././.~.~.~.~.~.~.~.A.A.A.A.C.C.[.jXHXfX!.V.C.~./.0XCXDXDXDXCXDXCXCXCXCXVXCXVXVXVXmXmXmXmXmXmXmXVXVXVXVXVXVXVXVXVX",
"_./././././././././././././././.~.~.~.~.A.~.A.C.C.#XCXSX{.N.V.V.).CXDXDXDXDXDXDXCXCXVXVXVXVXmXmXmXmXmXmXmXmXmXmXVXVXVXVXVXVXVXVX",
"'.'.'.'._./._._./.).).(.(.^./././././././.~.~.~.A.C.^.nXHXbX4X].aXDXDXDXDXDXDXCXCXCXCXVXVXVXmXVXVXSXDXSXVXmXmXVXVXVXVXVXVXVXVXCX",
"'.'.'.'.[.eX(._.kXmXMXbXbXbX}./.[.}.]././././.~.~.~.A.A.hXHXHXDXDXDXDXDXDXDXCXCXCXCXVXVXVXCXDXCXxX8X7X8XmXVXmXmXVXVXVXVXVXVXVXVX",
"[.Y.^. X#XCX6X_.yX0XhXDX0XyX[.#XCXDXMXbX4X(.'././.`.~.A.A.rXDXGXDXDXDXDXDXDXCXCXCXCXVXVXDXSXc.#.#.+.~ ~ 8.&XVXVXVXVXVXVXVXVXVXCX",
"kXxXJ._.+XNXfX).'._.#XCX{. X'.yXDX}.+XNXVX[.'./././.`.`.~.A.#XbXDXDXDXDXDXDXDXCXDXVXVXCXVXw.Z t J L K A u L p.vXVXVXVXVXVXVXVXCX",
"CXGX;X_.'.lXbX].@X+X+XCXeX'.@X@XNXaX(.hXMX_. XuXkXeX).`.'.`.A./.yXMXDXDXDXDXDXCXCXVXVXVX8.r t , , > , : = = c c.GXVXVXSXSXVXVXCX",
"CXDXbX(.+XyXDX}. X@X@XNXhX'.@X@XiXGXDXDXbX'.iXHXDXCXbX].'.`.'.`.A./.#XhXMXDXDXDXCXVXHXP.r - = O # , u y y o O J 7XSXVXSXSXVXVXCX",
"bXhXCXE.+X#XGX6X_.@X+XNXgX_.@X@XCXNXyXNXbX_.nXVX0X[.uXmX(./././.~.A.A.A./.[.}.kXVXCXmX@.- O # - - # # c d.*.- = 8.VXSXSXSXVXVXCX",
"bX].NXfXJ.@XNXbX].+X+XlXbX[.+XlXDXrX XNXbX).nXkX[._.^.uXaX!.^.~.~.!.!.Z.Z.V.M.].DXDX;Xu # = = O o o < >.k.k._ # n dXSXSXSXSXSXSX",
"kX!.hXCX4X[.hXbX}.OX#X0XrXOX#XuXuXOXXXNXbX).uXbX].[.).{.bX(.^.!.!.!.!.Z.Z.N.M.N.bXDXc.= = = o o o r ^ d.k.k.s.: e >XHXSXSXSXSXSX",
"6XXX0XCXaX{.0X0XOXOX#X#X#X#XOXOXXXOXXX0X0X[.XXMXpXJ.).oXmX].sXvXY.N.G.Z.G.N.N.M.wXHXl.= = # = O A *.<.,.s.s.s., > l.HXSXSXSXSXSX",
"E.OXOXqX0XOXOXOX0X0X0X0XOXOX#X#XOXOXOXXXXXXX[.oXCXcXaXMXbX].MXNXbXF.B.!.N.N.N.M.].DXr.= = u # < _ <.<.J < y #.c e 9.HXSXSXSXSXSX",
"}.OX0XOXOX0X0X0X0X0X0X0XqXqX0X0XOXOXOXOXXXXXXX_.OXjXCXDXeX!.kX[.@XcXD.G.!.G.N.N.G.MXO.o , K , , Z *.<.K - c s.#.J P.HXSXSXSXSXSX",
"0X0X0X0X0XqXqXqXqXqXyXyX0X0XOXOXOXOXOXOXXXXXXX.X).).{.OX).^.0XaX[.CX6XB.!.G.!.B.B.gXn   , o.H < r / d._ K ~ >.z._ 3XHXSXSXSXSXSX",
"0X0X0XqXqXqXqXqXqXqXqXyX0X0X0XOXOXOXOXOXXXXXXXXX[.[.).).).).^.eXVXmX].!.!.!.!.!.B.sX8.o , &.Q ^ ^ ' <.d.<.d.k.Q.] z.HXSXSXSXSXSX",
"0X0XqXqXqXqXqXqXqXqXqXyXOXOXOXOXOXOXOXOXXXXX.X.X[.{.[.[.[.[.^.oXDXwX!.^.G.^.!.!.!.0X5Xr < =.:.-.Q *.<.k.*.<.k.Q.>.3XHXSXSXSXSXSX",
"0X0X0XqXqXqXqXqXqXqXOX0XeXeXwXwX6X4X}.{.XXXX.XXX[.[.[.[.[._.[.bXbX!.^.[.<XN.^.!.^.).bX] C :.<.Q D H ! ! ~ ^ s.z.5XDXSXSXSXSXSXSX",
"OXOX0X0XqXqXqXqXqXqXsXbXbXbXkXgXkXkXgXpXW.].XXXX[.[.[.[._._.).rX4X[.4XG.eXR.!._._.^.VX3X<.+.%.Z Z S T ) ) A +.z.SXSXSXSXSXSXSXSX",
"OXOXOX0XqXqX0X0XsXbXbXsX0XoXOX.XXXOXOXhXgX7XY.).XX[.[.[.[._._._./.hXGX<XG.:XJ._._./.aXHXSX#.E Z Z ! s.s._ ! +.g.SXSXSXSXSXSXSXSX",
"{.}.oX0X0XeXaXbXbXrX0XOXoXOX.XXXXXXX.X[..XeXfX;XJ.).[.[.[._._._._.hXaXbX<X6XL.^._._.eXSXHXl.F W / / / ] d.+.@.9.HXSXSXSXSXSXSXSX",
"4XdXfXfXgXbXkXsXqX0X0XOXOXOX.X[.XXXXXXXX.X[.OXsXpXW.].)._.XXXX_._.0X;X[.CXSXL./._._.0XSXHX7XJ u K *.Y / <.J L l.HXSXSXSXSXSXSXSX",
"kXaXeXrXrXuXqX0XqXqX0XOXoX9XaX6XW.}.]..XXXXX[.XX0XaXdXpX6XU._._._.XX7XD.OXaX[._._._.OXVXSXSX#.- = U ! ~ ~ , L g.HXSXSXSXSXSXSXSX",
"bX{.#X0XyXyXyXyXyXyXqXqXwXxXVXZXpXpX:XJ.XXXX{.[.).XXOX0XhX<XJ.|._._.0X2XG._._._._._.[.bXSXSXg.S = = , = , x +.g.mXSXSXSXSXSXSXSX",
"fX[.iXyXyXyXiXyXyXyXyXaXgXbXMXMXbXpXcXpXY.XXXX[.)._.|.|.|.hXY._._._._.OX)._._._._._.[.bXSXGXg.Q U , # = J +.*.d.fXHXSXSXSXSXSXSX",
"5X@XiXiXiXiXiXiXiXiXyXaXpXbXMXMXMXMXbXbXY.XXXXXXXX)._.XX|.0X4X_.XXXXXX|.+X+X_._._._._.kXHXSXs.Q Q Y A ~ +.+.>.d.z.vXHXGXSXSXSXSX",
"{.yXiXiXiXiXiXiXiXiXuXmXbXMXMXMXgX}.].4X].[.].XXXX}.E.}.XX+X6X[. X|.|. X'.|._._.'. X_.hXHXq.A %.' ` / *.,.,.<.k.) v %XvXHXGXSXSX",
"OXyXiXyXuXuXuXuXuXyXuXaXgXMXMXMXfXE.}.U.4X4X[.XXXXgXcX<X).+XeXJ.0XwX4X4X4X4X}.}.}.}.0XgXi.X = ` *.*.*.>.<.<.d.,.&   M y.1XSXDXSX",
"0XyX0XqXrX0X0XyXyXuXuXhXVXVXMXMXbXaXgX].XXXXXX|.OXVXmXfX[.+XqXL.kXSXSXmXAXAXvXvXvXvX=Xq.7.&   # Y =.-.>.<.<.) O   N 1X&X&X2XvXSX",
"}.0X9XpXcXbXpXwX9XqXyXhXrXbXMXMXgX}.].XXXXXXXXOXkXsX0XXXXXXX0XE.hXDXSXDXDXSXSXSXVX>Xu.K.6Xx.z     y ^ *.~ <   X 7.2XfX8XbXkXbXxX",
"{.0XqX4XfXMXbX6XaXW.qXaXgXVXMXbXbXfX6X}.].9XeXgXbX].|.XXXXXX#X4X9XDXVXDXDXmXVXcXaX7X5X5X5X*X,X7.k   X : X   z a.&XK.1X7X8XnXjXkX",
"}.OX0X0X6XcXfX0XuX6X4XeXbXcXmXmXbXmXpX:XJ.gXcXgX:X[.XXXXXXXX#X6X}.DXSXSX1XpXnXNXnXjX8X;Xa.q.....m 5 + . $ 7 h m h h m  .q.q.b.5.",
"{.oXOX0XqXrXqXqXqXwX4XuXaX6XbXmXmXmXcXpX}.}.pX:X4X].XXXXXXXX+XwX].uXlXi.[ I.wXi.i.i.q. .h 3 3 3 3 9 8 9 s a 8 3 8 9 8 9 9 w [ w ",
"Y.}.oX0X0X0XqXqXqX9X4XuX6X4XgXaXbXpXvXaXcX:XOX4X[.XXXXXXXXXX+XwX[.@XG.[ f [ } d d s q 4 3 7 3 4 6 7 3 7 7 8 4 7 8 8 8 9 q q d s ",
"J.].}.oX0X0X0X0XqX6X9XrX:X}.wX4XbXR.sX6X4XpXY.XXXXXXXXXXXXXX+XwX{.|.X.[ [ f d q w s } | 7.5.h j m | | m h | | .. . .| | | ..4.} ",
"D.J.T.oXoX0X0X0XqXpX4XqX0XY.6XE.9X6XY.9X6XxXpXY.XXXXXXXXXXXXXX9X}.G.[ [ [ f f }  .4.4.4.4.3.y.*X*X>X1X&XK.>X>X&X&X%X&X,X7X<X2XpX",
"m.D.J.T.}.oX0X9XeX7X}.qXqXL.aXxX:X:XdX6X6XmXmXxX:X{.OXaXW._.XX0X4Xv.[ [ d d j >X7X$X3.} X.} y.7X7X8X8X7X,X5X7X7X7X&XK.a.b.fX%X1X",
"n.m.D.J.T.oXoXoXaX6X0XqXqXaXmXVXmX6X}.}.pXwXgXmXvXcXbXmX7X].XX0X0XX.w q 8 w a ,XaX1X6.X.$. .b.fX8X8XxXfX7X7XfXfXfXfXfX,Xi.q.j b.",
"h.n.S.H.Y.W.}.9XfXE.rXqXqXgXbXxXbX7X6X2X4X4XfX4XaXbXbXmX<X].XX9XyX} w 4 3 7 9 x.5X6X6.} } } a.8X8X7X8X8X5X,X7X,X,X,X,X2X8X>Xa.1X",
"e.n.m.D.J.T.}.aX<X9XqXqX0XgXVX7X6XgXvX2XJ.0X.X[..XOXOXrX6X).XXoXrX} 8 8 8 4 3 7.7X*Xi.3.{ 6.>X,X>X&X>X>Xx.x.*X*X&X&X&X=X=X>X2X>X",
"e.f.n.S.H.Y.}.fX;X9X9X0X0XgXcXbXpX7XpX}..XXXXXOXXX.XXXXX}.XXXX0XrX5.w s w q 4 b &XK.a.i.4.0.0.5.5.5.4.0.q.7. .| } j h h h h j { ",
"e.e.h.S.H.J.4XdXE.9X9X9XeXcX<XwXpXpXW.)..XOXXXXXXXXXXXXXXX.XXX}.eX0.q w q w w 1 ..m 7 7 7 7 7 8 9 9 8 8 3 @ 2 7 8 9 9 s 9 s s s ",
"h.e.h.m.F.J.4X7XU.9X9X9XaXmXcX6XT.T.E.pX;XY..X.XXXXXXXXX.X.XXX4X0X0.w d f d d 7 + 1 @ 2 3 7 9 9 a a a 9 5 $ 3 8 9 8 9 s a s s g ",
"t.e.h.m.F.J.W.8XS.9X9X9XxXcXpXY.].W.:XpXmXR.)..XXX.X.XXXXX.XXX4X#XX.w 7 2 1 3 7 $ $ + 2 2 3 6 7 7 6 8 7 6 1 1 3 3 $ 2 9 q s a s ",
"t.e.h.m.D.U.T.wX*XR.:XdXcXcX8XL.W.;X7XxXmX<X].OXOXXXXXXXXXXXOX4XXXk . X X X X     + + @ $ 2 6 6 a p p h p 2 6 h h m .. .h b 4. .",
"l.e.h.m.F.Y.T.E.8XzXdXcXcXcX7XK.U.fXxXmXcXW..X.XXXXXXX.XXX.XoX6Xw., K ! +.*./ ~ < % M N q.r.u.p.p.%Xa.a.u.i.p.a.K.x.7.l & & ( u.",
";X$.h.m.F.Y.T.W.wXaXfXcXcXcXpX<XL.wXmXvX8XY.OX.X.X}.{.OXXX.XoX:X@.o.*.T ^ U U ` -.>.@.( M M 7.N M ( z k l M M z v p.k   l l 7.x.",
"5Xt.h.m.F.Y.T.W.E.W.aXcXcXcXpX:XR.6XfXaXxX;XY..XaX;XJ.OX.XXX4XU.l.*.%.;.*.*._ / :.1.] ~ & k X > & e l v & z X k & 7.n > x l n ( ",
"L.K.e.m.D.H.T.T.wXcXcXcXcXcXpX;XY.T.].6XfXxXdXxXvX7X-X].OX.X:X4X5X*.^ *./ ] *.] -.-.=.` x n & & i & z z & v & > L ~ :.2.:.>.*.' ",
"h.&Xe.m.F.Y.T.W.W.wXgXcXcXcX<XP.T.].}.7X4X:XpXaXvXdXR.T..X}.R.eX8X*.! _ >.] *.] ' ' ' ' U = M v M z ( ( c ~ ^ %.:.:.:.<.k.k.d.:.",
"w.;Xl.n.F.H.Y.T.W.P.E.xXcXbX7XU.].].].].].T.].].9X6XJ..X{.wXL.fXSX+.S / ] ] / / %.%.=.=.=.' / +.+.+.o.*.=.&.:.:.=.=.*.;.<.k.d.;.",
"t.j.;Xj.D.H.Y.T.W.pX2XdXcX7X<XF.].T.T.T.].].].}.].]..X{.oX;XE.cXSXg.G R P Q ' =.:.:.2.2.2.2.2.1.:.:.:.=.:.:.-.=.*.` %.:.<.>.>./ ",
"7Xw.;XK.S.H.U.U.U.W.wXgXxXL.J.Y.T.T.T.].].].].].].{.].{.4XR.}.4X0Xz.G R R Q %.` / / %.*.=.=.=.=.=.-.*.-.*.*.*.` / ` W Z r V E ' ",
"bXl.w.,Xt.F.U.U.U.U.U.E.pXK.J.T.T.T.T.T.T.].].].].].{.{.<XY.{.].[.(.W G F F F I E W W / / / / ` %.%./ / / ^ ^ ^ / ^ ; * B G %.&.",
"bX7Xw.S.&XS.F.U.U.U.U.-XxX>XF.T.T.T.T.].T.T.].].].].].6XR.[.{.{.{.[.;.R P F I R R I I I W W Y W W ^ W E Y Y ^ ^ U V ; C D R E W ",
"bXbXx.w.<XK.S.H.H.U.U.Y.6XxXP.U.R.F.T.T.T.T.].].].].}.;XY.{.].].].OXg.I R R Q E E I I I Y Y I P Y E E ^ ^ / Y Z V S R R P P P P ",
"t.e.e.e.S.7XK.S.H.U.U.J.U.pXvXdX2XS.].T.T.T.].].].].2XU.].[.[.[.[.{.{.o.F I I P E W P I I Y W I W ^ ^ ^ U Z V C F R R E R E E R ",
"$.w.e.t.h.S.7XS.S.U.U.U.Y.pXdXxXS.J.T.Y.T.].].].].<XR.J.].[.[.[.).).9Xl.D D S F P P S F P I I E W Y ~ K r ; V C S D S F P P P P ",
"w.w.e.h.j.j.F.2XK.S.Y.U.Y.pXK.wXS.J.Y.T.Y.Y.J.].6X-XJ.].(.(.].(.(.].:X7X+.C C C C C S S S K U U ) @.( @.@.K A C C S S S S D D F ",
"e.e.e.h.j.n.m.L.2XP.S.H.J.Y.S.J.J.J.Y.Y.J.J.(.6X;XJ.(.J.(.(.(.(.(.E.L.eX,X@.#.f.9.@.@.@.O.8.9.O.8.p.u.r.r.8.( ( L J A C S S S S ",
"e.f.f.h.j.n.m.m.F.<X>XS.D.H.J.J.J.J.J.J.J.J.6X;XH.J.J.J.J.J.J.!.!.4X8XP.Y.P.J.yX2Xp.p.p.r.r.r.r.u.p.x.x.p.p.p.x.r.r.7.n x , > , ",
"e.f.f.h.h.j.m.S.S.S.:X2XP.S.D.H.J.J.J.J.Y.<X;XD.J.J.J.J.J.J.G.Y.L.L.<XS.!.!.!.rXb.N  .N b b b m N N N  . . . . .....b 0 $ + $ + "
};
