/* XPM */
static char *_28c7259725a48b6d4bc1b1ed167c137PC4EKqN3ya0U9k5D[] = {
/* columns rows colors chars-per-pixel */
"64 64 15 1 ",
"  c black",
". c #070002",
"X c #0A0003",
"o c #0C0003",
"O c #0F0004",
"+ c #130006",
"@ c #29000D",
"# c #2C000E",
"$ c #360011",
"% c #440015",
"& c #59001B",
"* c #65001F",
"= c #740024",
"- c #850029",
"; c #990030",
/* pixels */
";;;;;;;;;;;;;;;;;;;;;;;;;;;;;;;;;;;;;;;;;;;;;;;;;;;;;;;;; ;;;;;;",
";;;;;;;;;;;;;;;;;;;;;;;;;;;;;;;;;;;;;;;;;;;;;;;;;;;;;;;;;; ;;;;;",
";;;;;;;;;;;;;;;;;;;;;;;;;;;;;;;;;;;;;;;;;;;;;;;;;;;;;;;;;; ;;;;;",
";;;;;;;;;;;;;;;;;;;;;;;;;;;;;;;;;;;;;;;;;;;;;;;;;;;;;;;;;;; ;;;;",
";;;;;;;;;;;;;;;;;;;;;;;;;;;;;;;;;;;;;;;;;;;;;;;;;;;;;;;;;;; ;;;;",
";;;;;;;;;;;;;;;;;;;;;;;;;;;;;;;;;;;;;;;;;;;;;;;;;;;;;;;;;;; ;;;;",
";;;;;;;;;;;;;;;;;;;;;;;;;;;;;;;;;;;;;;;;;;;;;;;;;;;;;;;;;;; ;;;;",
";;;;;;;;;;;;;;;;;;;;;;;;;;;;;;;;;;;;;;;;;;;;;;;;;;;;;;;;;;;; ;;;",
";;;  ;;;;;;;;;;;;;;;;;;;;;;;;;;;;;;;;;;;;;;;;;;;;;;;;;;;;;;; ;;;",
";;;; ;;;;;;;;;;======-;;;;;;;;;;;;;;;;;==========;;;;;;;;;;; ;;;",
";;;; ;;;;;;;;&&&===-;;;;;;;;;;;;;;;;;==========;-;;;;;;;;;;; ;;;",
";;;; ;;;;;=&%%&oooXOO@==-;;;;;;;;;;;=&&oooXXXXXOO===;;;;;;;; ;;;",
";;; ;;;;==&&&   OOO$;;;;;;;;;;;;;;;;;++++++++++;$;;-;;;;;;;; ;;;",
";;; ;;;=&&O   O       O@=-;;;;;;;;;;+++          OO==;;;;;;; ;;;",
";;; ;;;;++ ++          +$;;;;;;;;;;;;;            .+-;;;;;;; ;;;",
";;; ;;;+++              $;;;;;;;;;;;;              .;;;;;;;; ;;;",
";;; ;;;;;              ;;;;;;;;;;;;;==             $;;;;;;;; ;;;",
";;; ;;;;              =-;;;;;;;;;;;++++           =;;;;;;;;; ;;;",
";;; ;;;==           .#;;;;;;;;;;;;;;;+           ;-;;;;;;;;; ;;;",
";;; ;;+++;     X=O     .$;;;;;;;;;;;;;;==O         +;;;;;;;; ;;;",
";;; ;;;;+   O==O  +;;;;;;;;;;;;;;;;;;;;;;;;;;;;;-;$$;;;;;;;; ;;;",
";;; ;;;;;;==O  +;;;;;;;;;;;;;;;;;;;;;;;;;;;;;;;;;;;;;;;;;;; ;;;;",
";;;; ;;;;;;;;;;;;;;;;;;;;;;;;;=;;;;;;;;;;;;;;;;;;;;;;;;;;;; ;;;;",
";;;; ;;;;;;;;;;;;;;;;;;;;;;;=;=;;;;;;;;;;;;;;;;;;;;;;;;;;; ;;;;;",
";;;;  ;;;;;;;;;;;;;;;;;;;;;=&;O;;=;;;;;;;;;;;;;;;;;;;;;;;; ;;;;;",
";;;;; ;;;;;;;;;;;;;;;;;;;;;=X;O;;=;;;;;;;;;;;;;;;;;;;;;;; ;;;;;;",
";;;;;  ;;;;;;;;;;;;;;;;;;;;OX; ;+*=;;;;;;;;;;;;;;;;;;;;; ;;;;;;;",
";;;;;; ;;;;;;;;;;;;;;;;;;;;O.   +O=;;;;;;;;;;;;;;;;;;;;  ;;;;;;;",
";;;;;;; ;;;;;;;;;;;;;;;;;;;.      *;;;;;;;;;;;;;;;;;;;; ;;;;;;;;",
";;;;;;;; ;;;;;;;;;;;;;;;;;;O      =;;;;;;;;;;;;;;;;;;; ;;;;;;;;;",
";;;;;;;; ;;;;;;;;;;;;;;;;;+=      ;;;;;;;;;;;;;;;;;;; ;;;;;;;;;;",
";;;;;;;;; ;;;;;;;;;;;;;;;;+*     +;;;;;;;;;;;;;;;;;;; ;;;;;;;;;;",
";;;;;;;;;  ;;;;;;;;;;;;;;;.=+   O+;;;;;;;;;;;;;;;;;;; ;;;;;;;;;;",
";;;;;;;;;; ;;;;;;;;;;;;;;;+;.. ;O+;;;;;;;;;;;;;;;;;; ;;;;;;;;;;;",
";;;;;;;;;; ;;;;;;;;;;;;;;;;;++X;..;;;;;;;;;;;;;;;;; ;;;;;;;;;;;;",
";;;;;;;;;; ;;;;;;;;;;;;;;;;;;;=;++;;;;;;;;;;;;;;;;; ;;;;;;;;;;;;",
";;;;;;;;;; ;;;;;;;;;;;;;;;;;;;;;;;;;;;;;;;;;;;;;;; ;;;;;;;;;;;;;",
";;;;;;;;;;; ;;;;;;;;;;;;;;;;;;;;;;;;;;;;;;;;;;;;; ;;;;;;;;;;;;;;",
";;;;;;;;;;; ;;;;;;;;;;;;;;;;;;;;;;;;;;;;;;;;;;;;; ;;;;;;;;;;;;;;",
";;;;;;;;;;; ;;;;;;;;;;;;;;;;;;;;;;;;;;;;;;;;;;;; ;;;;;;;;;;;;;;;",
";;;;;;;;;;; ;;;;;;;;;;;========;;;;;;;;;;;;;;;;; ;;;;;;;;;;;;;;;",
";;;;;;;;;;; ;;;;;;;;;========;;=====-;;;;;;;;;;; ;;;;;;;;;;;;;;;",
";;;;;;;;;;; ;;;;;;;;=&&oooXXXXX&&&-;;;;;;;;;;;; ;;;;;;;;;;;;;;;;",
";;;;;;;;;;; ;;;;;;;;;+++++++O&&ooOOO@==-;;;;;;; ;;;;;;;;;;;;;;;;",
";;;;;;;;;;; ;;;;;;;;+++          O@;;;;;;;;;;;; ;;;;;;;;;;;;;;;;",
";;;;;;;;;;; ;;;;;;;;;;               O@=-;;;;;; ;;;;;;;;;;;;;;;;",
";;;;;;;;;;;; ;;;;;;;;                 +$;;;;;;; ;;;;;;;;;;;;;;;;",
";;;;;;;;;;;; ;;;;;;;==                 $;;;;;;; ;;;;;;;;;;;;;;;;",
";;;;;;;;;;;; ;;;;;;++++               ;;;;;;;;; ;;;;;;;;;;;;;;;;",
";;;;;;;;;;;;; ;;;;;;;+               =-;;;;;;;; ;;;;;;;;;;;;;;;;",
";;;;;;;;;;;;; ;;;;;;;;;==O         .#;;;;;;;;;; ;;;;;;;;;;;;;;;;",
";;;;;;;;;;;;;; ;;;;;;;;;;;;;;;;==O    .$;;;;;;; ;;;;;;;;;;;;;;;;",
";;;;;;;;;;;;;;  ;;;;;;;;;;;;;;;;;;;;;;;;;;;;;; ;;;;;;;;;;;;;;;;;",
";;;;;;;;;;;;;;;;  ;;;;;;;;;;;;;;;;;;;;;;;;;;;; ;;;;;;;;;;;;;;;;;",
";;;;;;;;;;;;;;;;;; ;;;;;;;;;;;;;;;;;;;;;;;;;;; ;;;;;;;;;;;;;;;;;",
";;;;;;;;;;;;;;;;;;    ;;;;;;;;;;;;;;;;;;;;;;  ;;;;;;;;;;;;;;;;;;",
";;;;;;;;;;;;;;;;;;;;;;    ;;;;;;;;           ;;;;;;;;;;;;;;;;;;;",
";;;;;;;;;;;;;;;;;;;;;;;;;;        ;;;;;;;;;;;;;;;;;;;;;;;;;;;;;;",
";;;;;;;;;;;;;;;;;;;;;;;;;;;;;;;;;;;;;;;;;;;;;;;;;;;;;;;;;;;;;;;;",
";;;;;;;;;;;;;;;;;;;;;;;;;;;;;;;;;;;;;;;;;;;;;;;;;;;;;;;;;;;;;;;;",
";;;;;;;;;;;;;;;;;;;;;;;;;;;;;;;;;;;;;;;;;;;;;;;;;;;;;;;;;;;;;;;;",
";;;;;;;;;;;;;;;;;;;;;;;;;;;;;;;;;;;;;;;;;;;;;;;;;;;;;;;;;;;;;;;;",
";;;;;;;;;;;;;;;;;;;;;;;;;;;;;;;;;;;;;;;;;;;;;;;;;;;;;;;;;;;;;;;;",
";;;;;;;;;;;;;;;;;;;;;;;;;;;;;;;;;;;;;;;;;;;;;;;;;;;;;;;;;;;;;;;;"
};
