/* XPM */
static char *a4033fa670914b23ad0353b9fe9f8b65aEdRvHuVDFEI9Ozc[] = {
/* columns rows colors chars-per-pixel */
"64 64 5 1 ",
"  c None",
". c #FF7E00",
"X c #2F3699",
"o c #6F3198",
"O c #B5A5D5",
/* pixels */
"                                                                ",
"                                                                ",
"                                                                ",
"                                                                ",
"                                                                ",
"                                                                ",
"                                                                ",
"                                                                ",
"                                                                ",
"                                                                ",
"                                                                ",
"                                         ..                     ",
"                                         ..                     ",
"                                        ...                     ",
"                                       ....                     ",
"                                       ....                     ",
"                                      ......                    ",
"                                      ......                    ",
"                                     .......                    ",
"                                   ..........                   ",
"                                 ............                   ",
"                               ...............                  ",
"                               ...............   .              ",
"                                   ............  .              ",
"              .                   ooooo........  ..             ",
"              .     ..          ooooooo.........  .             ",
"             ...    ..       oooooXXXooo......... ..            ",
"            ....   ...     oooooooXXXXXXo...........            ",
"           .....  ....  ooooooooooooXXXXXo...........           ",
"        .............. oooooooooooooooXXXX...........           ",
"       ...............oooooooooooooooooXXX...........           ",
"      ................ooooooooooooooooooXX...........           ",
"      .................oooooooooooooooooXX...........           ",
"      ........................oooooooooXXX............          ",
"      ........................oooooooooXXX............          ",
"      ......................oooooooooooXX.............          ",
"      ....................oooooooooooooXX.............          ",
"      ...................oOOOOooooooooooX.............          ",
"      .................OOOOOOOOoooooooooX.............          ",
"      .................OOOOOOOOooooooooXX.............          ",
"      .................OOOOOOOOooooooooX..............          ",
"      .................OOOOOOOOOOoooooXX..............          ",
"      .................OOOOOOOOOOOoooXX...............          ",
"      ..................OOOOOOOOOOooXXX...............          ",
"      .....................OOOOOOOXXX................           ",
"      ...............................................           ",
"      ...............................................           ",
"       ..............................................           ",
"       .............................................            ",
"       .............................................            ",
"       .............................................            ",
"        ...........................................             ",
"        ..........................................              ",
"         ........................................               ",
"         .......................................                ",
"          ......................................                ",
"           ...................................                  ",
"           .................................                    ",
"             ............................                       ",
"              .........................                         ",
"                .....................                           ",
"                   .............                                ",
"                                                                ",
"                                                                "
};
