/* XPM */
static char *b72f4321d5df4a34bd878c197cf21cd9cH2Xkqrqw0gIPojP[] = {
/* columns rows colors chars-per-pixel */
"64 64 256 2 ",
"   c #020401",
".  c #050B04",
"X  c #051409",
"o  c #15170A",
"O  c #061A15",
"+  c #16120F",
"@  c #2A1A0F",
"#  c #072719",
"$  c #14281B",
"%  c #0A341D",
"&  c #292719",
"*  c #38271A",
"=  c #31351D",
"-  c #062B23",
";  c #162C24",
":  c #0B3927",
">  c #1A3729",
",  c #1A3C35",
"<  c #0F3E33",
"1  c #282B24",
"2  c #382D24",
"3  c #39332B",
"4  c #243B37",
"5  c #2A392E",
"6  c #443627",
"7  c #463B33",
"8  c #50372A",
"9  c #4A2D1B",
"0  c #19482B",
"q  c #1A4637",
"w  c #195737",
"e  c #0F4C2E",
"r  c #23452E",
"t  c #234B3B",
"y  c #264638",
"u  c #364638",
"i  c #275439",
"p  c #2F5634",
"a  c #1C603C",
"s  c #2B673C",
"d  c #494539",
"f  c #57453B",
"g  c #555639",
"h  c #664A3A",
"j  c #1D5543",
"k  c #1D4D43",
"l  c #234C42",
"z  c #2A4B45",
"x  c #364948",
"c  c #285646",
"v  c #37564A",
"b  c #2D5751",
"n  c #385955",
"m  c #3C4F53",
"M  c #2A6448",
"N  c #366949",
"B  c #36754A",
"V  c #376955",
"C  c #397756",
"Z  c #2C6F4E",
"A  c #3F7460",
"S  c #594B42",
"D  c #455648",
"F  c #465857",
"G  c #58564E",
"H  c #684942",
"J  c #6B554B",
"K  c #775748",
"L  c #695B55",
"P  c #785A54",
"I  c #734D47",
"U  c #43655A",
"Y  c #4E7054",
"T  c #696559",
"R  c #796559",
"E  c #717255",
"W  c #467963",
"Q  c #58756A",
"!  c #576C6C",
"~  c #796A64",
"^  c #76736B",
"/  c #6D7670",
"(  c #4A5D61",
")  c #283D40",
"_  c #825D4B",
"`  c #825C54",
"'  c #86664C",
"]  c #866858",
"[  c #926C56",
"{  c #89745A",
"}  c #93745D",
"|  c #96755A",
" . c #876C64",
".. c #897569",
"X. c #9B7C6B",
"o. c #967867",
"O. c #877A75",
"+. c #977C73",
"@. c #996C63",
"#. c #A17E6C",
"$. c #A27D72",
"%. c #3C875C",
"&. c #478765",
"*. c #5A8872",
"=. c #718A74",
"-. c #618F63",
";. c #98836C",
":. c #888677",
">. c #9D8373",
",. c #978479",
"<. c #959270",
"1. c #A3847C",
"2. c #A58878",
"3. c #A6927C",
"4. c #AD8578",
"5. c #90825F",
"6. c #C6C97B",
"7. c #D7D57A",
"8. c #CFD279",
"9. c #788A88",
"0. c #7A9690",
"q. c #79A48F",
"w. c #988886",
"e. c #999688",
"r. c #9A9B97",
"t. c #8B908D",
"y. c #A88B84",
"u. c #A7948A",
"i. c #A69795",
"p. c #B49489",
"a. c #8AA799",
"s. c #97A49A",
"d. c #8EA98C",
"f. c #A7A59B",
"g. c #B8B997",
"h. c #B5AC8F",
"j. c #95A7A6",
"k. c #96B6AA",
"l. c #91A9A8",
"z. c #A7A9A6",
"x. c #B8ABA9",
"c. c #B4B6A7",
"v. c #A8BAB8",
"b. c #B8BBBB",
"n. c #ABB1B0",
"m. c #989DA2",
"M. c #C3B195",
"N. c #C6B7B7",
"B. c #C2B0AD",
"V. c #C1998F",
"C. c #B5C490",
"Z. c #AEC4B3",
"A. c #99C1AC",
"S. c #C8CA89",
"D. c #D4D38B",
"F. c #D8D789",
"G. c #C8CA98",
"H. c #D1CF9A",
"J. c #CBD39A",
"K. c #D4D593",
"L. c #D3D49B",
"P. c #D3DA9C",
"I. c #DADC9C",
"U. c #D9D894",
"Y. c #D0D18A",
"T. c #E0DD93",
"R. c #DBE196",
"E. c #E2E299",
"W. c #CBCEAC",
"Q. c #C7CAA7",
"!. c #D3CCA6",
"~. c #CDD3A4",
"^. c #CAD6AA",
"/. c #D2D4A4",
"(. c #D3DBA5",
"). c #DADBA4",
"_. c #D3D4AC",
"`. c #D4DBAB",
"'. c #DBDCAB",
"]. c #D9D6A8",
"[. c #C8C8B7",
"{. c #CCD3B4",
"}. c #CED4BB",
"|. c #CDD9B8",
" X c #D2D5B4",
".X c #D4DBB3",
"XX c #DADCB3",
"oX c #D3D5BC",
"OX c #D4DBBB",
"+X c #DCDDBC",
"@X c #D9D5B6",
"#X c #D2CAB4",
"$X c #E3DDB8",
"%X c #D8E1AC",
"&X c #DAE2B4",
"*X c #DAE3BA",
"=X c #E6E5B9",
"-X c #E4E4AA",
";X c #BFBDC0",
":X c #CABDC1",
">X c #B9C5C5",
",X c #B3CFC9",
"<X c #BCE0D6",
"1X c #C7C7CA",
"2X c #D4CBC6",
"3X c #CAD5CA",
"4X c #D4DBC3",
"5X c #D8DBC8",
"6X c #C8CCD4",
"7X c #CDD4DB",
"8X c #C8D8D9",
"9X c #D2D4DC",
"0X c #D4DADC",
"qX c #D7D9D4",
"wX c #E4DDC8",
"eX c #E6DBDC",
"rX c #F0DEDA",
"tX c #DCE3C4",
"yX c #DAE4CA",
"uX c #D8E4DB",
"iX c #D2EDD7",
"pX c #E7E8C8",
"aX c #E7EAD7",
"sX c #F2EDD7",
"dX c #EDF4D7",
"fX c #F4F4DC",
"gX c #FDFCDD",
"hX c #F7F7D7",
"jX c #F3F2C9",
"kX c #CDDCE1",
"lX c #D4DBE2",
"zX c #DADCE3",
"xX c #D7E7E7",
"cX c #D8EEEC",
"vX c #E6E9E6",
"bX c #F5EAE7",
"nX c #E9F3EA",
"mX c #F4F4E3",
"MX c #FDFCE4",
"NX c #F4F4EB",
"BX c #FEFDEB",
"VX c #F8F8E8",
"CX c #E9EEF5",
"ZX c #F6EDF4",
"AX c #EDF3F5",
"SX c #EEF4FD",
"DX c #EAF9F9",
"FX c #F4F4F4",
"GX c #F5FAF5",
"HX c #FDFDF4",
"JX c #F2F5FD",
"KX c #FBF5FC",
"LX c #F5FBFD",
"PX c #FCFBFE",
"IX c #FBF5F3",
"UX c #E2DFEA",
/* pixels */
"SXSXSXSXJXJXJXJXAXAXJXJXAXAXJXJXJXSXJXAXAXFXvXFXFXFXFXFXJXKXPXJXGXGXJXKXKXJXPXHXVXBXVXNXHX+XS.S.g.aXGXGXPXGXFXHXHXGXAXPXJXPXGXvX",
"SXSXSXSXSXSXJXJXAXAXJXAXJXJXJXJXSXJXJXJXCXPXPXNXFXPXFXJXCXKXJXJXFXGXJXJXPXHXfXOXOXmXHXGXVXQ.M.S.W.mXHXGXPXLXGXHXFXPXJXPXJXLXVX5X",
"SXSXSXSXSXSXSXSXJXJXJXJXJXSXJXJXJXLXAXAXPXvXqXb.1XqXIXFXPXFXJXJXPXFXPXPXmX=XG.C.g.aXPXPXmXG.6.S..XHXPXIXPXPXHXHXJXPXJXJXPXBXgXL.",
"SXSXSXSXSXSXSXSXSXSXJXJXJXJXJXSXLXAXLXLXb.^ T L T ^ L ^ n.PXPXPXPXFXPXmX#Xg.g.J. XNXPXPXmXG.6.6./.MXPXIXKXFXHXHXPXPXUXUXHXMXhXS.",
"JXSXSXSXJXSXJXJXSXSXSXSXSXSXSXSXLXCXLXxXG 2 & 3 S 7 d 3 G L z.PXKXHXpXG.g.Q.5XsXNXPXJXGXmXG.6.6.H.sXHXPXPXPXHXMXfXpX[.2XHXBXjXG.",
"JXJXJXJXJXJXJXJXSXSXSXSXJXJXJXJXJXPXLXr.G 3 * 2 3 @ @ 7 & + 3 z.IXmXG.h.].sXKXPXPXHXKXHXVXW.Y.D.S.&XaXVXHXBXsX=X_.G.c.2XHXBXpXG.",
"JXJXJXJXJXJXJXJXSXSXSXSXJXJXJXLXAXAX1X^ T 3 * 6 9 * 2 @ & 1 3 d c.@XS.K.gXBXKXKXHXmXHXPXKX5XS.6.6.S.J.`.XX(.K.6.S.G.W.aXHXBX_.G.",
"JXJXJXJXJXJXJXJXLXLXSXSXJXLXLXJXPXz.L ^ T J f 8 8 * * @ @ 2 & & d g.K.-XgXhXsXwX+X XdXNXPXNX/.S.Y.Y.G.G.G.S.S.S.S./.aXNXHXBXQ.G.",
"JXJXJXJXJXJXJXJXLXAXLXLXPXAXAXLXPX^ L O.,... .X. .o.X.J 6 & * 6 = h.I.U.E.D.Y.H.Y.G.Q.aXHXHXgX].J.J.J.Q.Q.G.J.(.pXMXPXPXPXmXW.C.",
"JXJXJXJXLXLXLXLXLXLXLXAXLXLXPXPXNX~ T O.,.>.o.X.4.X.2.2.>.R f 6 * <.).D.F.F.F.F.Y.K.G.pXHXHXHXfX=X&X*XyXpXaXfXMXBXHXPXJXPXNXtX*X",
"KXJXJXLXLXLXLXLXJXLXPXJXPXJXKXKXeXO.i.w.,.+.1.$.2.X.2.2.3.>.{ h = 5.-XD.D.D.U.Y.Y.U.G.=XBXHXHXHXBXBXHXPXPXHXBXBXBXHXHXHXPXPXBXBX",
"KXKXPXLXLXLXLXLXLXJXLXPXPXZXKXPXqXe.x.u.,.1.1.X.$.2.2.X.2.2.3...6 <.].).-X-X=X=XU.K.J.pXHXIXIXHXBXBXBXBXVXfXsXjXpXpXsXsXMXMXgXMX",
"PXPXLXLXLXLXLXLXPXLXJXKXPXKXPXZXx.f.B.+.R R ..>.>.X.;.2.y.>.>.{ J  XpXsXbXVXMXgXI.J. XmXPXPXBXMXBXhX=X'.K.Y.Y.Y.K.L.L.L.).).-X=X",
"PXPXPXLXLXLXLXLXLXPXPXKXPXPXbXi.e.x.B.~ 7 * f o.2.2.X.o.X.X.3...:.BXBXPXPXKXgX=XL.J.pXPXPXHXhXpX@X/.Y.Y.8.8.F.F.D.D.D.Y.Y.D.D.U.",
"PXPXPXLXLXLXLXLXJXPXPXKXPXPXeXL i.:Xe.L S 6 6 K X.o.K 8 8 K 2.,.f.PXPXKXBXhX=XL./.pXBXHXmXpX'.L.K.D.F.7.7.7.Y.D.U.U.F.T.F.F.U.K.",
"PXPXPXLXLXLXPXPXPXKXPXKXKXPXbX~ w.2Xw.~ ~ S 8 ] 3.{ 8 * 9 h 2.1.wXIXIXmXpX'.).H.@XMXBXsX$X/.G.U.D.7.7.7.7.F.F.U.U.D.F.F.F.F.U.U.",
"LXLXLXLXPXPXPXPXPXPXPXKXPXKXKXO.i.N.i.+. . .X.@.$.@.h h ' K p.>.h.pXXXH.).G._.pXBXfXjX/.S.U.U.F.F.F.7.7.F.F.D.U.U.E.U.U.T.F.F.F.",
"LXLXLXPXPXPXPXPXPXLXPXPXPXKXPXx.i.2Xu.w.+. .@.o.X.@.#.] ' #.p.3.h M.!.H.].XXjXBXfXOXL.K.F.F.D.T.F.F.F.F.U.U.K.L.L.L.L.L.I.U.U.F.",
"LXLXPXPXPXPXPXPXPXJXPXPXPXKXPXeXx.N.i.O.P P y.1.$.y.@.@.X.2.p.+.P 2XfXwXsXBXMXhXXXJ.Y.D.U.T.F.U.L.L.].H.H.'.$X=XpXpXpX=X_.].'.).",
"PXPXPXPXPXPXPXLXPXSXPXLXPXJXPXKXbXx.u.O. . .I ]  . .I $.y.y.M.J B.IXKXIXHXBXsXW.L.K.U.F.D.D.K.L.].@XpX@X!.jXgXMXMXfXgXpX@XwXpXXX",
"PXPXPXPXPXPXPXPXLXLXLXDXLXPXLXPXPXx.u. .J P H H P ` ] ` y.p.,.w.ZXKXKXPXHXaX_./.I.D.F.E.I.H.].jXgXgXBXsX_.XX+XpXMXwX$X@X@XfXhXXX",
"PXPXPXPXPXPXPXPXLXLXLXDXPXPXLXPXZXx.i...7 H o. .P I P J 1.h.u.bXPXPXKXVXsX@X/.'.I.U.K.I.(._.jXMX+XoXmXfXXX(._.sXhX@X'._.@XfXjX'.",
"PXPXPXPXPXPXPXPXLXLXLXLXPXPXPXPXIX1Xi.w.w.P P +.P 8 P 1.,.#XVXHXKXHXfX=XL.L.L./.!.-X-X'.~. XaXNX X{.sXpX).P.~.hXjXXX-X'.+XhX=X).",
"PXPXPXPXPXPXPXPXPXPXJXPXPXJXPXPXqX:XB.O.+.+.J H ] >.X.;.3.hXBXVXBXpX].I.U.E.).].$XhXgXgXpX}.vXLXdXdXBXtX(.%X`.hXjX_.%X).pXMXjX'.",
"PXPXPXPXPXPXPXJXPXLXPXPXPXPXKXPX:Xx.2Xw.O.+.]  .2.o.o.;.M.hXgX$XpX~.K.U.F.U.).=XBXsXsXMXfX4XxXPXmXVXHXpX(.(.`.gXpXXX=XH.sXfX=X'.",
"LXLXLXLXPXPXPXPXPXPXJXPXPXPXPXIXb.w.i.N.w.....>.>.o.>.5.h.jX~.&X/.(.I.R.U.K.=XsX5X#X@XMXsX4XnXNX4XyXVXdX&X(..XMXpXXX-X_.MXmX@X_.",
"LXPXPXLXPXPXPXPXLXPXPXPXPXFXPXKXz.:.~ u.y. .] { o.{ { { G.'./.L.J.I.P.L.(.W.sXpX#XoXQ.pXfX}.aXBX X XmXhX=X(.XXhXpX XXX.XMXaX XXX",
"JXJXLXLXLXPXPXPXLXLXPXLXFXPXPXeXi.w.O.....h H I K { { { ]./.`.(.I.L.~.~.oXoXVXoX}.OXQ.pXhXW. XgX+XW.+XpX'././.XX.X.XXX_.sX4X_.pX",
"LXLXPXPXPXLXLXLXLXDXDXLXLX0Xt.r.z.O.O.+. .H P K ' { } { !.pXQ.^.`.G.pXpX5X5XHX3X[.C.*XhX&X/.XX=X'.J./.(.L.P.(././.XX'./.=XXX`.=X",
"LXLXLXLXPXPXLXLXDXLXLXcX,XF . / i.,...+...o.] o.o.{ { ;.E G.*X.XW. XMXBXaXqXHXvX5X4XhXpX~.].]./.L.P.I.P.K.I.).(.(.'.`./.XX&X`.%X",
"PXPXLXLXPXPXLXLXcX,Xa.Q *.V O O G ,.,...] ] ' o.{ } ;.;.o g W.}.2XvXmXMXaX}.nXLXnXGXdX_./.).H.].H.I.U.K.K.K.L.L.(.`.`..XXX%X%X(.",
"LXnXuX3XZ.Z.k.a.*.v V *.*.W t .   3 ~ O...R +.o.o.+.,.g o & E d.uXLX4XyXpXW.aXNXnXaX|.~.(.L.].].L.I.K.K.I.I.P.(./.~.`.*X`.(.%X'.",
"DXk.Y W W &.&.&.&.*.&.C &.*.C > X   . 1 S L ~ .. .R S o . p Y N *.A.iXdX*X^.^.&X^.^.~.%X(.J.%X(.(.P.P.P.P.P.P.P./.(.`.`.`.`.(.(.",
"q.W N C C Z %.&.%.Z Z %.C Z Z b y $ X       + + + .   . $ N C Z s W q.Z.*X*X`.J.J.&XJ.J.%X~.~.^.`.`.(.(.(.(.(.(.%X`.`.`.'.%X'.`.",
"V M W C C a w w C &.C w w w q q v z 4 > ; O X . X X O > p C Z B &.B N Y -.=.C.%X^.(.%X~.(.`.(.*X.X.X{.^.^.^.^.^.^. X+X+X.X_..X&X",
"M w c M C &.C w w a A &.M j c c l z z c z z z y 4 4 y i N M Z %.B B B B B s Y -.^.^.`.`.`.`.`.Q.{.oXyXpXdXaXpXtXtXOX{. XOX+XOX X",
"Z M j j j C W &.c w e c W V j b c c c l k l l l c l t > c c Z C C B B B B B s s -.^.`.`.XXG.XX&XdXdXdXdXfXfXfXhXhXaXyX4XOXOXOXoX",
"j j q M c j c W *.U b c c A W V b b b c l l l l c l q : c i Z M B B B Z s s a w p =.tXOXW.*XpXhXpX*X.XW.Q.W. XOXtXaXfXdXyXoX4X5X",
"V j : j b q l q z n U n b l l n b c z l l l z v t y q t t q c M M B C Z w e w w s p Z.OXOXhX*XXX~.~.`.&X&X*XXX.X.XOXtXaXdXaXaX5X",
"q c e q c z 0.l.l.j.l.l.a.0.Q b x x v v v x u u v u > D y t c V M s s a a w w e 0 p =.yXdXOXXXXX%X%X(.(.`..X.XXXXXXX.X+XpXaXfXfX",
"j k < q q 0.DXcXCXDXDXDXcXDXcX8XZ.3X>XZ.b.f.w.O.r.c.s.3Xa.Q U i i i w M w w w w w w Y iXyXW.+XXX(.(.&X^.XX.X{.*X.X.XXX&XXXOXOXOX",
"k < < < ! cXkXkX7X>XlX6XkXkXkXkXnX3Xz.e.i.i.y.+.u.f.c.uXc.s.k.k.*.v i i v i q i M i i A.|.tX$X_.*X.XtXtXMXVXpX XOX.X.X&X.X.X&XXX",
"q < < : v.xXkXkX1X/ n.v.n.j.;X>XuXf.O.O.1.y.y.$.1.p.u.f.e.t.9.Z.nXk.Q t t v t t 0 0 0 d.yX+Xh.h.2X5XnXNXLXGXNXaXyXXX.X%X`.`.%X.X",
"q b - , ,X8XxXCXxX! 9.z.>X6XxX6X[.e.,.p.p.4.4.4.X. .,.O.z.s.=.9.8XnXuXv.v y y i i i r =.yXg.{ h.IXCXJXJXJXJXCXuXaXOX`.`.`.`.`.`.",
"l c q - k.cXcXcXCXCXSXCXxX8X0X0Xx.y.1.$.@.] ` ` >.f ..f./ r.r.j.0XxXuXxXQ > r r > > = T dXh.K h.PXFXSXPXLXJXJXvXaX5X`.`.`.%X`.`.",
"l < c : a.xXkX8X8XxX8X8XxXcXxX0Xi.y.1.$.y.V.p.p.u.7 O.3X/ / 9.6XvX9X8XuX9.r 9.d./ Y d g wXM.R 3.qX0XzXLXLXJXJXFXaXtX`..X.X.X.X.X",
"c c < < l ! n F F x x F F ! / t.u.1.1.X.y.1.] ;.i.= D ( 9./ m.lX9X9XzXuXa.r Q =.e.e.<.;.!.M.} ..oX4X3XnXLXPXAXuXaXOX.X*X.X.XOX4X",
"q t t # - b z b x / k.t.! 5 1 ^ u.1.1.1.1.H * T E u u > x v.8XlXzX9X7X0Xs.r 0 p D T ..] o.4.2.p.Q.aXmXGXJXLXLXGXyXoXOXOX{.{.4X5X",
"y t , # - k b l U cXxXJX2Xw.~ y.y.y.y.1.y.L T 3 d D u u ; x / v.8XxX0XqXz.> r 0 r u ^ ] K K _ } 3.$XaXZXKXJXAXvXaXtX{.|.4XaXFXvX",
"z , - O - , q q 0.8XF r.eXB.,.1.y.o.+.x.+.^ w./ 0Xt.9.=.v > > y Q j.3XqX=.$ 0 i 0 v :.,.X.@.[ } | } rXKXKXLXCXqXyX*X{.yX5XnXAXnX",
"; 4 4 O O , y , a.Z.5 ^ i.u.u.1.+.1.u.i.O.^ r./ n.9.8Xv.k.v.*.; y y ! v.u $ : e i p L H ` @.o.;.;.{ B.PXZXJXPXaX}.|.{.yX3XaXaXuX",
"X X O O O ; $ $ :.f.:.i.,.1.2.>.,.~ e.~ 1 r.s.s.xXk.Z.,X<X*.k.t q , $ O $ % % % % D O.P K I _ o.| 2.,.rXKXNXnXaX}.{.|.yX}.yX4X4X",
"    . X + 1 S O.:.,.,.,.>.;.o.>.,.w.:.1 5 F D 4 0.k.a.<Xq.q.q.q y t >   # # % 0 % D ^ P @.$.#.[ [ | >.u.sXBX[.tXOXW.tX4X4XOXOX|.",
"1 .   o 7 ~ ,.y.3.>.>.o...o.3.;.L 1 1 1 $ ; > F z n U V k.A.t t t > > y O # # : q / w.P I ' o.| | | X...h.sXQ.tXOXQ.tXoX4XOX*X.X",
"L d S ~ ,.2.o.#.X.} } } ..X.+.f 3 T F 5 x 4 m 4 z , z t z c q q q y 4 X # # % % # D O.O.] _ } [ [ | ] ;...W.Q.^..XQ.yXoXoX.X`.%X",
" ...,.>.X.#.o.| [ | [ [ 2.+.J R b.b.b.b.b.;Xk.j.9.Q F z z , z y q r r # # # - % > $ 3 L o.[ } [ [ [ } ....h.W._.XXQ.5X5XOX*X(.%X",
"X.X.o.o.| [ [ | | | X.X... .w.N.;X>X1X1X6X7XkXxXxXkX8Xv.0.! x > , y r $ O $ # $ ; 1 1 @ f o.} { [ [ { { { h.W.XX.XQ.4X5X4X.X%X(.",
"' ] [ [ [ [ [ | | X.o. ...i.1X1X1X6X6X7X7X7X7X7XlX7X7XxXcXxXb.t.U y $ Q $ $ ; > O $ .   @ P 2.X.o.[ ] { u.pX+X{. X{.}.qX4XOX%X(.",
"' ' ' _ ' [ | X.o. .R w.:X6X1X6X9X7X7X6X7X9XlXlX0XlXzX0X9X0XlX7X3Xj.Q Z.5 . X         @ f ] ;.] ] ] ] ..#XMXpX{.}.4X[.yXyXOX.X%X",
"K ' ' ' } } { { R ..i.N.;X6XlX7X6X6X7X9XlXlXlXlX9X0XzX0X9X9X9X6X>X3XZ.uX/ o o . o @ 2 f f f J K K R ..,.wXBX5X|.}.4X[.4XaXOX.X%X",
"K _ ' ] } { R ~ O.c.1X>X6X6X6X6XkXkX7X7X7X9X9X9X9X9XzXzXzXvXzX1X1Xb.>XnXuX:.T d d 7 d 6 2 S P R R ] ..u.mXHX5X}.}.oX[.[.aX}.*X.X",
"' ' ' ] R R T ^ c.z.Z.8X8XkXxXkXkXlXkX8X7X7X9XlXlX0X0X9X6X9X9X6X6Xv.0XvXqXf.^ S S 6 6 7 L O.~ R ] { ..x.NXNXyX}.|.}.}.c.yX}.*X|.",
"K ` ] ] L d u D u v n n ( / 9.a.k.v.,X8XlXlXlXlX0X9X9XlXzXzXzX6X6Xb.vXnXaX5X:.d f 7 f L ~ ~ R R ] o.,.[.vXvXaX4X|.{.}.c.}.tXOX|.",
"I I K J 7 o . $ ; ; , , , , 4 4 ) x m ( ! 9.j.v.6X7XlXlX9X9X9X6X1X1XvXaXaXaXe.L f L L ~ O.~  .R { ;.,.2XaXvXVX4X|.W.}.c.[.yX|.|."
};
