/* XPM */
static char *de7b99eea68940489a143d52a68fb1eaIpKmJvWDbe1u313i[] = {
/* columns rows colors chars-per-pixel */
"64 64 255 2 ",
"   c #000101",
".  c #080505",
"X  c #000B04",
"o  c #000C0B",
"O  c #180A07",
"+  c #00120C",
"@  c #02170C",
"#  c #001512",
"$  c #001A15",
"%  c #0C171C",
"&  c #001E19",
"*  c #111312",
"=  c #2C0A0C",
"-  c #26140C",
";  c #2A1A15",
":  c #361917",
">  c #00231C",
",  c #01281C",
"<  c #2D2415",
"1  c #39251A",
"2  c #002621",
"3  c #002B23",
"4  c #003728",
"5  c #143230",
"6  c #242729",
"7  c #31312C",
"8  c #4E1215",
"9  c #462919",
"0  c #4F351D",
"q  c #6E241C",
"w  c #4F1B23",
"e  c #482C27",
"r  c #49352A",
"t  c #543A2A",
"y  c #493D37",
"u  c #563D34",
"i  c #68382D",
"p  c #71352F",
"a  c #074A31",
"s  c #004834",
"d  c #015434",
"f  c #284C3B",
"g  c #5B412D",
"h  c #454C36",
"j  c #5A4434",
"k  c #74542D",
"l  c #6E4F32",
"z  c #674839",
"x  c #76483A",
"c  c #765539",
"v  c #2A3746",
"b  c #2E3B4B",
"n  c #323D4D",
"m  c #323F50",
"M  c #055745",
"N  c #36444B",
"B  c #265048",
"V  c #354354",
"C  c #394555",
"Z  c #394758",
"A  c #364A5B",
"S  c #3C4C5B",
"D  c #3C505E",
"F  c #375B5A",
"G  c #006B4E",
"H  c #007959",
"J  c #256B53",
"K  c #3D4F61",
"L  c #345060",
"P  c #3E5263",
"I  c #514D48",
"U  c #444C55",
"Y  c #414E5D",
"T  c #46535C",
"R  c #58595D",
"E  c #6E4F46",
"W  c #6A5342",
"Q  c #785947",
"!  c #766550",
"~  c #414E61",
"^  c #425464",
"/  c #475966",
"(  c #475B69",
")  c #4B5D6B",
"_  c #535A65",
"`  c #565B66",
"'  c #555D6A",
"]  c #4C626C",
"[  c #586B60",
"{  c #54626D",
"}  c #5B6369",
"|  c #597A65",
" . c #4E6270",
".. c #536572",
"X. c #5B6672",
"o. c #556A73",
"O. c #5B6A76",
"+. c #576978",
"@. c #5B6C79",
"#. c #5A7674",
"$. c #5C727B",
"%. c #696869",
"&. c #746F6D",
"*. c #666B73",
"=. c #616D79",
"-. c #63737D",
";. c #66777D",
":. c #74777B",
">. c #992521",
",. c #8A3832",
"<. c #C13F32",
"1. c #884539",
"2. c #8F533B",
"3. c #935A38",
"4. c #884945",
"5. c #875647",
"6. c #95534D",
"7. c #975948",
"8. c #B2574E",
"9. c #A85B55",
"0. c #866648",
"q. c #926A4E",
"w. c #986859",
"e. c #96775A",
"r. c #A86656",
"t. c #B36958",
"y. c #A87054",
"u. c #B9745A",
"i. c #9D5B61",
"p. c #8B766E",
"a. c #BA7967",
"s. c #B1736A",
"d. c #C65E53",
"f. c #C3785C",
"g. c #C87B69",
"h. c #D07870",
"j. c #00875D",
"k. c #008A67",
"l. c #00936C",
"z. c #00986C",
"x. c #008D71",
"c. c #019873",
"v. c #239B76",
"b. c #578B75",
"n. c #9E8157",
"m. c #908575",
"M. c #B28B6E",
"N. c #BB8577",
"B. c #C9825C",
"V. c #CA8469",
"C. c #D48A6C",
"Z. c #C98877",
"A. c #D78A77",
"S. c #D19172",
"D. c #D99477",
"F. c #DB937D",
"G. c #E38C7C",
"H. c #5F7983",
"J. c #637681",
"K. c #657B83",
"L. c #6A7A85",
"P. c #6B7C84",
"I. c #747D84",
"U. c #857884",
"Y. c #399A85",
"T. c #02AF83",
"R. c #509480",
"E. c #6B8187",
"W. c #6D838B",
"Q. c #7B8386",
"!. c #72858B",
"~. c #77878A",
"^. c #7C8489",
"/. c #69998C",
"(. c #758B91",
"). c #7A8C94",
"_. c #7C9196",
"`. c #7B9698",
"'. c #52A990",
"]. c #6DA996",
"[. c #7BB6A4",
"{. c #84898A",
"}. c #988A89",
"|. c #91928E",
" X c #868896",
".X c #81969A",
"XX c #889898",
"oX c #999897",
"OX c #B19A8F",
"+X c #A79797",
"@X c #93A89A",
"#X c #AEA599",
"$X c #B8A799",
"%X c #899DA1",
"&X c #9898A3",
"*X c #A69AA4",
"=X c #8DA5A5",
"-X c #91B1AA",
";X c #A4A8AB",
":X c #B7A9A7",
">X c #B0B2B7",
",X c #D58D84",
"<X c #CB9785",
"1X c #DA9786",
"2X c #D0968A",
"3X c #D49C8C",
"4X c #E29B84",
"5X c #E69689",
"6X c #E49D8B",
"7X c #EA9C94",
"8X c #F09890",
"9X c #DAA28D",
"0X c #DBA495",
"qX c #C6B399",
"wX c #E4A38B",
"eX c #E9A58D",
"rX c #E8A88C",
"tX c #F1AB8E",
"yX c #E3A494",
"uX c #ECAC93",
"iX c #E8A899",
"pX c #F5A99A",
"aX c #EEB297",
"sX c #EEB39B",
"dX c #F3B296",
"fX c #F3B49B",
"gX c #F5B99C",
"hX c #CDB6AD",
"jX c #F7ADA3",
"kX c #EBB6A7",
"lX c #EDB6AC",
"zX c #F4B3A3",
"xX c #F9B7A9",
"cX c #90C2B4",
"vX c #A5C4BA",
"bX c #DAC2A3",
"nX c #EBC5B2",
"mX c #F7C4B5",
"MX c #B9BAC5",
"NX c #C7BCC6",
"BX c #AACCC4",
"VX c #BBC6C9",
"CX c #C6C4CC",
"ZX c #CACBD4",
"AX c #D1CBD0",
"SX c #CAD3D6",
"DX c #D4D4DC",
"FX c #D8D8DE",
"GX c #E4DCDE",
"HX c #D7D7E1",
"JX c #DCDBE2",
"KX c #E2DCE5",
"LX c #E5E4EA",
"PX c #ECEBF1",
"IX c #F6F4F9",
/* pixels */
"v n V V C Z S S S Y S Y Y Y ^ ^ P ^ P P P ^ P P P P P P L D A A A A A D D D S S Y Y S U U U S C V V N n b b b b b b b v v v v v ",
"v n V C Z S S S Y Y Y Y Y Y ^ ^ ^ ^ ^ ^ ^ ^ ^ ^ P P P P A P { } %.%.p.&.%.R %.} T Y Y U Y U S C C C V N n n n n n b b b b b v v ",
"v n V C Z S S S Y Y Y Y Y P ^ P ^ ^ ^ ^ ^ ^ ^ ^ ^ P L P :.p.e.q.0.M.n.e.n.0.n.q.Q R ^ Y Y S S S C C C N n n n V V n n n b b b v ",
"b n n V C S S S Y Y Y Y Y K D P P ^ ^ ^ ^ ^ P P P / ;.OXm.Q c Q q.n.Q l c q.q.k g k R Y T Y Y S C C C V V V V V V m n n n b b b ",
"b b n N V C Z S S S S S S S A S D P ^ ^ ^ ^ ^ P %.$XM.! t ! ! Q 0.l 0 0 9 0 t 0.0 q.c } Y Y Y Z Z C C V V V V V V V V V m b m n ",
"b b n N V V C C Z S S S S A A A S P ^ ^ ^ ^ ^ *.qXe.W W ! 0.l g t l 0.l 9 1 - 1 l l c m.} ` S S Z C C C C C C C C C V V V V m V ",
"b m m V V V C C Z S S S S A A A S P P P ^ P X.bXM.j z W g 9 9 t g g z g g ; 1   j r c 0.p.&.T Z Z Z C C C C C C C C C C V V V C ",
"m V V V V C C C S S S S Y S A S D D P P ^ / :XqXW r z Q 0 < 9 t c z r r : 1 - < ; t l r r m.R Z Z Z C Z C Z Z C A C C C V V Z C ",
"V V V C C Z S S S D Y Y Y ^ ^ ^ ^ P P ^ ^ ;.qXp.W j 0.g 9 0 g j W t r ; 1 - - 1 e r g 1 . ! _ Z Z A A A A A A A A A Z C C C Z Z ",
"C C Z Z S S S D Y Y T / / / / / / / / ( ( }.OX! W 1 - - - 1 g ! Q r 1 - . O O - t 1 u - O e.` S A A A A A A A A A A A A Z Z Z S ",
"Z Z A A S S D Y ^ / / / ) ) ) { { { { ..) qXp.! ;         - 1 t z 1 O O . . . r z t t - 9 c ` P S S A A A S S S S S A A A Z S S ",
"A A D D D D Y ^ / / ) ' { { ....X.O.O.O...qX! 7 .   . ; * . r ; - ; O O - e 9 Q W W 9 r W Q %.( / / / ^ P P K K A A S S A S K ~ ",
"D P P P P ^ ^ / ) ] ] { ..X.O.@.@.@.$.$.@.$Xt 7     O O 1 .   O O - - e x Q 9 t j z z W W 0.*. . .] ) ) ( ( ^ P P K A A A A ~ ~ ",
"P P ^ ^ ^ ^ / ] ] { o.o.O.@.@.-.-.J.J.K.$.OX-   . ; 1 O - 1 e e u z Q w.w.x t i c 7.5.Q z e.:.+.o.+..... .) ( ( ^ ^ P K A S ~ ^ ",
"P ^ ^ / / / ] ] ..o.@.$.$.-.J.J.K.K.P.P.H.$X1 : r u z Q 5.e.s.w.N.N.<X3XN.7.7.r.a.M.0.g t e.;.-.$.$.+.o... .) ) ( ( ^ P K K ^ ~ ",
"^ / / / / ] ] o.o.@.$.-.J.K.P.P.P.E.W.W.K.hXz Q w.s.N.<X2X<X<X3XkXkXlXlXkX9X<X3X1XZ.c r W p.P.K.K.J.J.$.+.+... .) ( ( P P P P ^ ",
"/ / ( ( ] ] ..o.@.$.$.J.K.P.E.E.W.!.(.(.W.:Xe.0.s.N.<X3X0X3X9X0X0XkXlXlXlXkXiXyX3XN.c Q q.m.!.W.W.P.K.J.$.@.+... .) ( ^ P P K ~ ",
"( ( ) ] ] { o.o.$.$.J.K.P.E.W.!.!.(.(.(.(.;XOXw.w.M.N.<X3X3X3X3X0X0X0XiXiX0X1X1X3XN.y.q.e.}.).(.(.(.W.K.J.$.@.+...) ) ( ^ P K K ",
"( ( ] ] { o.o.o.$.;.K.K.W.W.!.(.(._._..X&X;XhXw.w.a.Z.Z.3X2X3X3X0X0X0X9X0X2X1X,XS.N.y.q.e.oX_._._.(.W.W.K.J.$.@.+...) ) ( P P P ",
"( ] ] ] { o.o.$.$.J.K.E.W.!.(.(._._.`.oX6.s.$Xp.w.a.<X3X0X0X3X0X0XiXiXiX0X9X1X1XZ.Z.M.e.M.XX`.`._._.(.(.W.K.J.$.+.....) ( ^ P P ",
") ] ] { o.o.o.$.$.J.K.W.!.(.(._._..X.Xp.>.Q $XhX<XZ.<X2X0XkXkXyXyXyXiXkXiXiX1X2X<XS.S.F.<X:X0XoX.X`._.(.!.P.K.J.$.+... .) ^ P P ",
") ] ] { ..o.o.$.$.J.P.W.!.(._._.`..X.X%X,.s.<XhXs.N.,X2X2X3XiXyXyXiXiXiXiXiXiXyX9X9X4XxX9XA.<.+X%X.X.X_.(.W.K.K.J.@.o. .) ( ^ P ",
"/ ] ] { o.o.o.$.$.J.P.W.!.(._._.`..X.X%Xp.iXZ.w.i i x w.a.Z.,X3X2X2X3X9X2XZ.Z.2X,X9X5XmXZ.2.>.oX=X%X.X.X_.(.W.P.J.-.+... .( ^ P ",
") ] ] { ..o.@.@.$.;.K.W.!.(.).)._.`..X`.;XzXZ.,.8 : . = p 7.t.t.t.9.1.p i p ,.7.V.3X8XxXF.<.8.=X=X%X%X.X.X).!.W.L.J.$.X.../ ^ P ",
"/ ) { { { ..O.@.$.-.K.P.E.!.(.(.)._._..XhXiXg.p w 8 ; : = w 6.t.,.q 8 = O 8 8 ,.A.1XG.jX5X8.+X=X=X=X%X.X.X_.(.W.P.K.-.@.X.) ( ( ",
"/ ) { { { X.O.@.-.-.J.K.P.E.!.!.(.(.(.oX,XiXt.6.4.p i w = w ,XiX7.8 = w p 4.9.s.5XA.7XjXG.2X-X=X=X=X%XXX.X_.(.!.P.K.;.=.O.{ ) ( ",
") ' { { { X.O.=.-.-.-.;.K.P.E.E.W.W.(.+XyXlXr.h.h.s.i.i.i.s.kXxX6Xs.4.4.9.g.7X5X5Xg.pXjX7XOX=X=X=X%XXXXX.X_.(.!.I.P.;.-.@.....) ",
") ' { { { X.O.@.-.-.;.-.J.K.K.P.E.W.W.hXkXlXs.9.g.g.a.1XiXzXkXlXxXzXiX,XZ.5XpXpX5Xd.pXxXzX@X=X%X%XXXXX.X.X).(.!.I.P.L.-.=.O.....",
"_ _ ' ' { X.O.O.=.-.-.-.-.J.J.K.P.K.oXlXnXnX:Xp 9.,Xs.A.5X9XyXsXxXxXzXzXjXxXlXlXA.g.xXxXzXXXXXXXXXXX.X.X_.~.~.~.!.P.L.;.-.@.O.X.",
"_ _ _ ' { { X.X.O.=.-.-.-.-.-.J.K.E.lX5XlXmXhXs.9.a.g.4X4XrXuXyXyXxXlXiX5XG.A.h.zXmXmXxXzX#XXXXXXXXXXX.X).~.~.~.E.I.L.;.;.-.@.O.",
"_ _ _ ' ' { } X.X.O.O.=.=.=.-.-.;.&X1XyXiXiXiXzX5X8XfXzXsXsXsXsX4XF.C.8.<.,.<.h.xXxXmXmXmXhXXXXXXXXX.X{.).~.~.~.!.I.L.L.;.-.-.-.",
"_ _ _ ' ' ' { } X.X.X.O.O.=.=.=.;.hX9X0X1XwXiXlX1X5XpXzXxXkXzXzXmXmXzX7X7X8X8XxXjXxXxXxXmXmX#X{..X{.{.{.~.~.~.Q.!.E.I.P.L.;.;.-.",
"_ _ _ _ ' ' ' { X.X.X.X.X.O.=.{ NXlX,XA.F.6Xa.a.r.8.g.g.g.Z.Z.A.eXfXfXpXpXpX8XpXjXjXxXzXzXzXmXoX{.{.{.{.^.~.~.~.Q.!.I.I.P.I.L.L.",
"_ _ _ _ ' ' ' ' { } X.X.X.X.X. XGX1XF.A.F.5Xr.p q 8 8 q q p 3.V.4X7XjXjXxXjXjXjXxXxXpXzXzXzXfXkX|.^.{.{.^.^.~.~.~.Q.!.I.I.I.I.L.",
"_ _ _ ` ' ' ' ' { { X.X.} { X.hXnXiXeX6X6X6X1X2XZ.9.8.t.a.N.<X9Xh.h.5X5X5X5XA.G.1XA.pXxXzXjXzXfXuXOX{.Q.Q.^.^.Q.Q.Q.Q.Q.!.!.!.I.",
"_ _ ` ' ' ` ' ' { { ' ' *.{.qXkXeX4XeXiXiXyXyXwX5Xh.h.h.h.C.g.t.4.,.6.6.1.p q q 1.8.8XfXxXxXxXfXpXxXkX$X|.Q.Q.Q.Q.Q.Q.Q.Q.Q.^.Q.",
"_ ` ` ' ' ` ' ' ' ' I.:XlXnXxXeX6X5XiXiX7X1X9XyX5X5X8XpXjXpX7Xh.g.6.x i p p ,.6.N.yXiX5X7XpXpXpXxXxXxXxXkX$X{.Q.Q.Q.Q.^.^.^.^.~.",
"` ' ' ` ` ' ' ` :.:XnXfXtXeXuX6XA.A.4X4XV.g.g.lX,XA.G.,XA.h.h.A.a.a.r.r.t.8.d.A.9XsXpXpX6X5XtX8XpXxXzXfXdXgXkXoXI.Q.Q.^.^.{.^.^.",
"` ' ' ' _ ' :.:XnXaXwX4X4X6X6X6X1XA.h.A.A.V.4.a.9.4.1.x x p i i 1.h.5XiXiX7XG.,XA.V.A.A.F.uXpXfXaXfXfXsXfXdXdXkX#XQ.I.^.{.{.{.{.",
"` ` _ ` {.:XnXsXwXwX4X6X1X1XwXiXwX1XA.g.g.Z.x 9 9 : : : - 1 9 i 9.a.h.5XiX7X7XjXkXiXf.g.g.1XeXzXzXfXfXfXdXfXdXfXkXqX|.!.^.{.{.{.",
"_ ' |.hXnXdXrXF.wXwXwX6X6X6XyXyXyX6XF.A.Z.s.5.1 : = O = = : t r t x p 4.5.4.6.9.N.Z.V.F.A.g.g.A.wXfXaXtXtXrXdXfXfXgXkX@X{.^.{.{.",
":.hXnXkXuXrXrXuXeXeXeXeXeX6XiXsX6XF.g.t.r.7.2.c z p i.s.Z.N.M.z t u e 1 1 t j t i i 7.7.9.t.t.t.u.F.uXfXdXfXdXdXdXdXdXgXbXXX^.{.",
"nXsXwXrXuXuXuXtXuXuXuXuXuXeX4XF.a.a.u.r.7.7.7.7.5.6.N.r.7.5.z j W j u e : : e r y y W W x 5.w.r.6.7.u.1XuXfXfXdXdXdXfXdXdXbX@X{.",
"wXrXuXuXsXuXuXuXeXuX4XF.V.t.7.2.x x x z x x x z r O - O O O - - ; : 1 r e e ;       H j.B I E 7.t.a.t.u.F.4XrXsXsXdXdXfXdXdXkX#X",
"rXuXuXuXaXuXuXeXF.D.D.f.y.2.x i u r 6 5 f f ; .                                 o d d 4 s H v.Q 7.V.Z.V.C.A.F.wXuXaXsXfXdXtXtXsX",
"rXrXrXuXrXeX4XD.D.V.f.u.t.7.Q h s , $ $ > , +                                 , d s 3 $ , s k.T.! 7.a.Z.S.F.F.F.4XrXuXuXuXdXfXdX",
"rXrXrXwXwXD.D.V.V.f.u.t.5.W f d 3 & $ # X o + X X   X X       X + + o o $ 3 d d 4 3 > 3 3 3 d c.T.! 4.r.g.S.1XF.F.4XwXuXuXuXsXfX",
"rXF.F.D.D.C.D.C.V.u.7.2.h d d s 3 $ # o o o $ & > & o X X o o # 3 3 3 3 4 4 s 4 3 > 4 4 4 , 3 G c.T.| x 7.a.D.1XF.1X1X4XrXuXuXaX",
"S.B.D.D.D.D.C.B.y.x j a d d s s 2 $ + o o o & $ $ > & + X X o # > 3 > 3 & > 3 > > s s 4 s 4 > s H k.c.b.E 7.u.S.1X1X1X1XF.wXrXuX",
"C.S.S.D.C.V.t.3.z p.F 4 s d s 3 & # o o o o o o # > 3 3 # # # # & 3 4 2 & > & > s s 4 , s s , , G G H j.J E 4.r.g.A.F.1X4X4XF.4X",
"D.S.V.B.t.3.c j :.>X).> 4 4 4 > + o X o o o o # 2 > # # > 2 # # # $ & $ + + $ 4 4 > 3 f J B B f #./.R.`.-XCXQ x 9.u.g.A.4XwX4XA.",
"V.B.u.7.x g 6 $ *.&X*X..s 4 4 # o         X X o & o X o # & & & $ # o o $ U oX|.*.:.{.:XhX:X:X#X+XAXGXKXCXKXAXp.x 7.t.g.A.F.wX4X",
"u.7.2.z 7 , @ X U I. X;X&X XI.*.7 6 6 6 % % 5 B 7 & 4 4 B N F F B 5 5 N %.:X:X*XoX}.*X:X:X:XhX:X+X#XCXAXNXDXFXZX%.z 5.9.a.A.A.1X",
"7.2.g < @ @ @ X 7 *.:. X*X&XU.%.%.R 6 N 7 U / :.>X;X&X;X;X>X;X|.|.{.oX*X*X+X+X}.U.{.oX:X:X:X:X:X:X+X:XhX:XAXAXMX>X! E 5.7.r.V.F.",
"5.j @ X X + @ $ N R } U. X&.R %.%.T } #./.].=XMX>XHXHXDXSXLXLXCX>XCXDXSXCXZXNXCXSXSX;XXX^.|.:X:X:X:X|.:X+XNXMX*X:Xf W E 5.7.t.Z.",
"r   X X X + @ / / U R oXU.:.;XMXb./.].'.].].'.vXZXCXHXDXJXJXDXDXZXCXVXSXDXDXJXDXJXLXPXLXvXb.[ | b.| f +X:X:X}.}.p.X , W E 5.w.y.",
".   X X   X 2  XP.U R MXCXZXDXHX].-XR.>X].].].-XHXZXFXLXDXZXMX>XMXSXFXDXDXDXDXDXHXJXLXLXPXGX:Xm.| d f +X#X}.p.}.6 X X % W z 5.w.",
".   X X   X ^  X!.` %.;XHXFXDXZX-X]./.JX[.].-XSXHXHXSXMX>X>XVXSXDXDXDXDXDXDXSXDXHXJXJXKXLXLXFXhX:X:X+X+X}.p.p.m.    X X * z z 5.",
"    X       @.).=.' } XXCXHXHXDX].].=X[.v.-XvXLXDXMXMXCXSXFXFXFXDXDXDXDXSXDXDXDXHXHXJXJXJXJXLXJX:X}.+X#X}.p.p.y       X   O u z ",
"    X     X 7 5 $ # % Q.>XKXKXHX/.b./.'.'.].VXCXMXFXPXIXPXLXLXJXHXDXDXDXZXSXFXHXJXLXPXPXLXLXKXJXFX+XOX#X}.} 6               ; u ",
"    X             &   & B /.SXLXSX[.b.'.[.VXCXJXIXIXIXIXPXPXPXPXPXPXLXLXKXJXDXDXSXSXSXBXcX-X-X-X-X-X&.R 5 >                 ; r ",
"6 6               M o X $ s v.SXDXVX-X/.`.-X-XcX[.].'.'.'.'.'.'.'.'.].].'.'.Y.x.x.l.l.l.j.j.k.j.H H G , $ +                 . y ",
"_ `             X M $   & > G c.v.x.G H k.k.k.l.l.l.z.z.z.l.l.l.k.k.k.k.k.k.k.k.x.c.c.c.'.cXcX-X'.H k.G G o                   ; ",
"T R N o   +   & $ M 3   + 3 3 H k.k.k.l.k.k.l.l.c.z.c.z.l.l.l.x.k.k.k.x.k.x.x.l.c.c.T.BXKXPXPXPXIX].H H H                 % 7 6 "
};
