/* XPM */
static char *_073159e10ed4c80a0407ec409606272JEEFqyc9zNPz00sN[] = {
/* columns rows colors chars-per-pixel */
"64 64 254 2 ",
"   c #020101",
".  c #0B0403",
"X  c #090A07",
"o  c #02030C",
"O  c #130502",
"+  c #170B07",
"@  c #001603",
"#  c #001B0A",
"$  c #17120E",
"%  c #1B110B",
"&  c #020513",
"*  c #040B18",
"=  c #140E11",
"-  c #051716",
";  c #1B1414",
":  c #181616",
">  c #240806",
",  c #340804",
"<  c #2A150C",
"1  c #36170A",
"2  c #261915",
"3  c #341D15",
"4  c #00240C",
"5  c #002514",
"6  c #002B14",
"7  c #06261B",
"8  c #002C1B",
"9  c #1B251B",
"0  c #003115",
"q  c #00321C",
"w  c #193015",
"e  c #26261C",
"r  c #372219",
"t  c #2F301A",
"y  c #061625",
"u  c #151A23",
"i  c #2A1D21",
"p  c #032A23",
"a  c #1D2929",
"s  c #003522",
"d  c #003B25",
"f  c #01352B",
"g  c #003D2A",
"h  c #1B3525",
"j  c #003A35",
"k  c #242D24",
"l  c #282825",
"z  c #382A26",
"x  c #253125",
"c  c #2D3324",
"v  c #2C362A",
"b  c #313626",
"n  c #343926",
"m  c #36362A",
"M  c #353C2B",
"N  c #393E2C",
"B  c #2E2C30",
"V  c #283635",
"C  c #393933",
"Z  c #46130A",
"A  c #46281B",
"S  c #4F2B18",
"D  c #65290E",
"F  c #462C27",
"G  c #57292A",
"H  c #4B3328",
"J  c #583729",
"K  c #553A2C",
"L  c #493A36",
"P  c #593A34",
"I  c #543D3A",
"U  c #633A2B",
"Y  c #6C3234",
"T  c #653A38",
"R  c #00412B",
"E  c #004333",
"W  c #00483A",
"Q  c #16413B",
"!  c #35412E",
"~  c #3A442E",
"^  c #3C482D",
"/  c #364331",
"(  c #3A4633",
")  c #3C4A35",
"_  c #3C453B",
"`  c #36483B",
"'  c #3D4C3B",
"]  c #3D5235",
"[  c #3F523D",
"{  c #00782B",
"}  c #454838",
"|  c #414E3B",
" . c #5D4134",
".. c #54423E",
"X. c #5C423B",
"o. c #445338",
"O. c #41513D",
"+. c #68402C",
"@. c #634234",
"#. c #63453A",
"$. c #68473A",
"%. c #6B4B3E",
"&. c #734539",
"*. c #383946",
"=. c #583A41",
"-. c #6F3A47",
";. c #03504B",
":. c #005749",
">. c #3E4E43",
",. c #394844",
"<. c #3F5248",
"1. c #354755",
"2. c #324C58",
"3. c #006458",
"4. c #007558",
"5. c #0A5C67",
"6. c #3B5A74",
"7. c #006B61",
"8. c #007666",
"9. c #0A7471",
"0. c #2D6A72",
"q. c #414D43",
"w. c #434845",
"e. c #594946",
"r. c #425244",
"t. c #4A5344",
"y. c #43544B",
"u. c #4D564D",
"i. c #565749",
"p. c #514955",
"a. c #445553",
"s. c #495755",
"d. c #455955",
"f. c #455659",
"g. c #465A5A",
"h. c #4A5B5D",
"j. c #545754",
"k. c #654B43",
"l. c #6C4D42",
"z. c #674949",
"x. c #734A45",
"c. c #6A5246",
"v. c #6E534B",
"b. c #775448",
"n. c #73554C",
"m. c #6E4854",
"M. c #6C5655",
"N. c #775956",
"B. c #7A5C54",
"V. c #56614C",
"C. c #646359",
"Z. c #7B615A",
"A. c #475D60",
"S. c #4D5E60",
"D. c #495B6D",
"F. c #6D5966",
"G. c #7C5863",
"H. c #4C696D",
"J. c #7D6263",
"K. c #78656B",
"L. c #746F73",
"P. c #814A3D",
"I. c #88504D",
"U. c #845956",
"Y. c #84625C",
"T. c #94665A",
"R. c #814F68",
"E. c #845A69",
"W. c #856768",
"Q. c #95686A",
"!. c #8D706D",
"~. c #96716E",
"^. c #876974",
"/. c #966A78",
"(. c #8B7276",
"). c #967778",
"_. c #9B7B7B",
"`. c #A07979",
"'. c #518C22",
"]. c #158A4F",
"[. c #008575",
"{. c #8AA20C",
"}. c #A6827B",
"|. c #347285",
" X c #4F7490",
".X c #747A80",
"XX c #966987",
"oX c #8B7986",
"OX c #967A85",
"+X c #95748C",
"@X c #9C7B8C",
"#X c #A17C8B",
"$X c #A47D91",
"%X c #A67CAC",
"&X c #008B81",
"*X c #09938B",
"=X c #2D9993",
"-X c #33AAA0",
";X c #538C95",
":X c #698798",
">X c #5E89A7",
",X c #7094B2",
"<X c #4FADA8",
"1X c #6DB1B2",
"2X c #729BC6",
"3X c #7EA9CD",
"4X c #9B8488",
"5X c #898794",
"6X c #9B8797",
"7X c #A68689",
"8X c #A78996",
"9X c #AC8F92",
"0X c #AB9497",
"qX c #B49A9B",
"wX c #9A8BA3",
"eX c #A888A4",
"rX c #B48AA8",
"tX c #AA96A6",
"yX c #B49AA6",
"uX c #B79AB8",
"iX c #8FB3B8",
"pX c #B9A3A8",
"aX c #ACA8B2",
"sX c #B8A5B6",
"dX c #C5ABB3",
"fX c #8AC1BF",
"gX c #8DB0CA",
"hX c #86ADD7",
"jX c #8AB2D4",
"kX c #BCABC5",
"lX c #A9B8CD",
"zX c #94B6E7",
"xX c #C7AED1",
"cX c #D0BBE4",
"vX c #97C4CD",
"bX c #9BCCD2",
"nX c #A8CCD6",
"mX c #B4D8DB",
"MX c #96C1E6",
"NX c #A8C7E9",
"BX c #ADD3EA",
"VX c #A9C5F6",
"CX c #B3CCF9",
"ZX c #B7D5FA",
"AX c #C8C9D2",
"SX c #CBD8EB",
"DX c #C6DCFD",
"FX c #CCE8EB",
"GX c #C9E1FA",
"HX c #D7E9FB",
"JX c #E7EEF9",
"KX c #E9F5FA",
"LX c #F4FBFE",
"PX c #FCFFFF",
/* pixels */
"t.t.t.t.t.t.t.t.t.t.t.t.t.t.t.t.t.t.t.t.t.t.t.t.t.t.u.u.u.u.u.u.u.u.u.u.j.u.m 2 2 ; ; ; ; ; ; 9 l ; = = = = = ; 2 2 L j.u.u.u.u.",
"N N N / / / / / / ! ! / / / / / / / / / / / / / ( ( _ _ _ _ _ _ _ _ w.>._ %       . X . . .     X                 . O e } _ _ _ ",
"N N N N N / / ! ! / / / / / / / / / / ( ( ( ( ( _ _ _ ' ' ' w.| w.,.q._ % . . .           . + = . X                 O O 2 w._ _ ",
"! ! N / / N / / / / / / / / / / ( ) ) ( ( ( _ ' ' ' ' ' w.q.q.q.q.q._ % . + .                 . ; X                 O O O k q._ ",
"/ / / / / / / / / / / / / ) ) ) ) ( ) ( ( ( ' ' >.' ' >.q.q.q.q.q.q.e   O O     .                 X             O + X + % + C q.",
"/ / / / / / / / ( ) ) ) ) ) ) ) ) ' ' ' ' ' ' ' q.>.q.q.q.q.q.q.r.N   . + . O                   X . .           . 2 ; 2 + % ; q.",
"/ / / ( ( ( ( ) ) ) ) ) ) ) ) ) ) ' ' ' ' ' ' ' ' q.>.r.q.q.q.r.q.+   + O +         + % % $ ; e z F r 2 $         = C i z % + N ",
"( ( ) ) ) ) ) ) ) ) ) ' ' ' ' ' ' ' ' | | | | [ [ >.q.q.q.q.q.y.b   . O + .     O < A K K K K  .k.l. .k.z.L <       l C C 2 % m ",
") ) ) ) ) ' ' ' ' ' ' ' ' ' | | | | ' | | | | [ O.r.r.r.r.r.r.u.% . . + 2   . > r A H K @.$.%.n.l.$.%.n.G.M.X.3       l B z 2 M ",
"' ' ) ) ) ' ' ' ' ' | | | O.| | | ' | ' O.O.O.O.r.r.r.r.r.r.y.q.+ .   z +   > 1 A K X.#.%.l.v.n.c.n.G.W.(.K.z.K <     + B B ; v ",
"' ' ' ' ' | | | | | | O.O.O.O.O.O.O.O.[ O.O.r.r.r.r.r.y.y.y.y.| +     C + O 1 A K X.k.k.v.v.v.n.N.B.(.oXoX^.G.F.K +   . l B ; l ",
"' | | | | ' | O.O.O.O.[ [ O.O.O.O.O.O.O.O.O.r.r.r.r.y.y.y.y.y.| O     m + > A H K  .#.#.l.v.B.J.B.N.W.J.J.W.oXoXz.3   . ; l ; l ",
"| | | O.O.[ | O.O.O.O.[ O.O.[ [ O.O.O.O.O.O.O.r.r.r.r.r.y.y.y.q.O   . % O 3 H H H J  .#.l.c.B.B.n.n.B.B.Z.^.@X6XK.K O . . + O 9 ",
"| O.O.O.O.O.[ O.O.O.O.[ [ [ O.O.[ O.O.O.O.O.O.r.r.r.r.r.r.y.y.r.+       + F H K I k.M.B.J.W.W.Z.B.W.(.OX6X6XwXtXOXJ.< .       9 ",
"O.O.O.O.O.[ [ [ [ O.O.O.[ O.O.O.O.[ [ O.O.O.O.O.r.r.r.y.r.r.y.a.C       r I L L I I e.M.K.oX(.W.(.K.K.F.F.F.F.oX6XOXk.%       k ",
"O.O.O.O.[ [ [ [ [ O.O.O.[ [ O.O.[ [ [ O.[ r.r.r.r.r.r.y.y.y.a.d.w.    . I I r r r < < F k.J.J.W.J.z.I H L e.K.L.6X6X).L     + z.",
"O.O.O.O.O.O.O.[ [ O.O.O.[ [ O.[ [ [ [ O.r.y.y.y.y.y.y.a.a.s.d.h.F O   O I e.X.X.k.k.K H J l.B.Z.n.%.$.l.W.^.(.4XyX6X7Xe.  < B.P.",
"O.O.O.O.O.O.O.O.[ O.O.O.O.[ O.O.O.O.[ r.y.y.y.a.s.g.g.d.g.g.h.u.Z , . . ..M.k.$.l.n.b.x.U @.B.W.B.b.&.#.M.K.J.W.0XtX8XL ; Y.`.Q.",
"O.O.O.O.O.O.O.O.O.O.O.O.O.O.r.r.r.r.y.y.y.y.g.g.h.h.h.h.h.h.S.i.Z U A % e.c.K 3 r ; 2 P x.@.Z.4X!.x.I = X p.F z.4XsX9XL H T.T.7X",
"O.O.O.O.| O.| | | O.O.[ O.y.y.y.y.y.a.a.y.d.h.h.h.h.h.h.h.h.h.j.Z U 1 2 X.k.F r F 3 3 F l.U b.8X4Xn.F 2 r M.E.oXtXsXqXv.z.P.U T.",
"| | O.| | | | | ' O.O.r.y.y.y.a.a.a.g.d.g.h.S.S.h.h.S.S.h.h.h.A.X.Z , F k.k.#.$.+.T T l.U J &.8X8X!.n.l.b.Y.OXtXtXyXyX(.OXQ.D I.",
"| | | | | | | ' [ [ r.y.y.y.a.h.h.d.g.h.h.h.h.h.h.h.h.S.h.h.g.g.j.Z 1 I v.c.n.B.n.l.b.x.@.J U.sXsX8X_.~.~.).7X0XuXsXpXOXyXU.&.U.",
"} } ' | ' | ' O.r.r.y.a.y.a.g.S.h.g.h.h.h.h.h.h.S.h.h.h.g.f.f.d.a.#.1 H v.n.B.Y.Y.Z.B.x.@.@.W.uXxXtX_.~.~.`.7XtXsXsXqX).7X~.7XJ.",
"} ' ' r.r.r.r.y.y.y.y.d.g.g.h.h.h.g.h.h.h.g.h.h.h.g.f.f.f.a.y.y.<.c.U K v.n.B.W.W.B.n.P S @.W.rXyX8XW.U.Q._.8XsXkXpX7X(.b.7XqXC.",
"' [ r.y.y.y.y.d.d.a.a.g.h.h.h.h.S.h.g.g.g.g.g.h.f.a.a.a.y.y.q.q.q.e.$.H c.n.B.W.W.B.@.S P v.XXuXdXrXOXx.U.~.8XsXsX0X_.K.} b.Z.) ",
"' r.y.y.y.y.y.d.h.h.f.h.h.h.f.g.S.h.f.d.d.d.a.a.a.y.<.y.q.q.>.| ' ' } L e.M.n.b.b.&.S U T T U.).^.^.@XU.&.b.W._.9X9X4XC.) ( ~ ^ ",
"r.y.a.a.a.a.a.d.h.h.h.g.h.h.f.f.h.f.y.<.y.y.r.>.>.>.>.| ' ' ' ) ) ) ) ` t.M.%.+.U U J K r 3 S J L =.^.(.n.$.b.Y.`.7X7XV.^ ) ^ ^ ",
"y.a.a.d.a.a.a.f.h.h.g.f.f.f.d.a.a.<.<.q.>.q.' ' ' ' ' ) ( ) ) ) ( ( ) ) } v.#.J J J H z 3 > H F 2 C p.F.=.I U.T._.9X4Xi.^ o.^ ^ ",
"d.d.g.g.a.a.g.f.g.h.g.a.a.a.a.y.r.>.>.' ) ) ( ) ( ( / ( ( ) ) ( ( ( ) ' | c.#.U J < . 3 3 1 G =.=.m.M.z.2 + U.`.}.9X).o.o.| ^ ^ ",
"h.g.f.g.d.d.g.d.a.g.a.<.<.<.<.>.>.>.' ) ( / ^ ( / ( / / / ( ( ( ( ) ) ' ' e.k.@.H . O 1 F k.z.E.6X6Xk.< < z W.`.7X9XK.] o.| ) ^ ",
"S.h.f.f.d.f.d.a.y.y.<.>.' ' ' ) ) ) / ~ ~ ~ ~ ~ ( ( / ( ( / / ( ) ( ) ) ) e.c.X. .F A < F K.5XtXaXtXXXz.N.W._.`.7XOXC.] o.] ) ^ ",
"S.S.g.d.a.a.a.y.y.<.>.) ) ( ( / ^ / ~ ~ ^ ~ ^ ^ ( ( ( ( ( / ) ) ) ) ) ) ) | k.#. .%.l.T I -.G.R.XX%XeX#X_.`.)._.}.(.V.] o.) ^ ^ ",
"S.S.h.d.y.y.y.y.r.' ) ) ) ( ( ^ ^ ~ ~ / / / ( ( ( ( ( ( ( ( ) ) ) ) ) ) ' ) ..e.P  .#.$.#.T T -.G.^.4X7X_._.~.~.!.(.V.] o.) ) ) ",
"d.g.d.a.y.y.y.r.' ( ( ( ) ( ( ~ / / ( ( ( ( ) ) ( ( ( ) ) ) ) ) ) ) ) ) ) ) ..e.I X.#.%.%.P H F X.G./.#X7X_.~.W.(.4Xi.] ) ) ) } ",
"<.<.y.y.r.<.>.' ) ( ( ( ) ( ( ( ) ( ( ( ( ) ) ) ) ) ) ) ) ) ) ) ) ' ) ' ) ) ..I ..X.X.#.v.n.z.I z.W.OX7X7X_.W.W.9X9Xt.^ ( ~ ^ } ",
"r.>.' ' ' ' ) ( ) ( ( ( ( ( ( ) ) ( ) ( ( ) ) ' ) ) ) ) ) ) ) ) ) ) ' ' ' ) } P K I X.P X.e.I F I M.^.OX).J.J._.qX9X} ! ^ ~ ~ ~ ",
"r.' ' ) ) ) ( } ( ) ) ) ( ) ) ) ) ) ) ) ) ) ) ) ) ) ) ) ) ) ) ) ) ) ' ' ' ) }  .J F F H r % + ; 2 z L e.M.M.!.9XyX9X} ! ^ ~ ~ ^ ",
"' ' ) ( ( ( ( ( ( ) ) ) ) ) ) ) ) ) ) ) ) ) ) ) ) ) ) ) ) ) ) ) ) ' ' ' ' ) }  .J H r r +     X X = = l v.!.4XqXpX9Xt.n ! ! ~ ~ ",
") ) ) ) ( ) ( ( ) ) ) ) ) ) ) ) ) ) ) ) ) ) ) ) ) ) ) ) ) ) ) ) ( ( ( ( ( ` } #.U K H A <           = M.7X9X0XqXpXqXi.n ~ ! ! ! ",
"( ( ( ) ( ( ( ( ( ) ( ( ( ( / ( ) ) ( ( / ( ( ( / ( ( ( / ( / / / / / ( ) v e $.@.K J H H r O O + r Z.7XyXyXyXqXqXdXC.9 N N N N ",
"/ / / / / / / / / / / / / / ( / / / / / / / / / / / / / / / / / / / / / _ = ; l. . .K J J H A A J Y._.9XyXyXqXqXyXdX^.- v ~ N n ",
"/ / / / / / / / / / / / / ! / / / / / / / / / / / / / ! ! ! / ! ! ! / _ k   2 l.#.@.@.#.@. .K J @.Y.).9XyXqX0XqXyXdXL.* u v n n ",
"/ / / ! ! / / / N ! ! ! / ! ! ! N ! N N ! N ! N N N N N N N N N ! / v ;     X L %.$.$.l.l.$.#.$.$.B.!.9XyXqX0XqXyXsXj.* y * 7 q ",
"N N N N N M N N N N M N N M N M N M N N M M M N M M M M M M N N n w @ &   o   . L %.l.n.n.l.%.l.n.Y.).9XyX0X0XqXpXoXu y * o :XvX",
"N N M M N N m N M M M m M M n M M M M M m m m M m m n n n m b t V p  X3Xu   o     z c.n.n.n.c.n.Z.W.).7X0X0XqXtXL.u * y & H.NXHX",
"m m m m n n n n n n n n n m n n n n n n n n n n b b b n t t h 2.,X2XhXhX2X*.        ; ..n.B.n.n.Z.W.!.4X9X0XoXw.& & y & L.HXHXKX",
"b b b b b b b b b b b b b b b b b n b b m m b b b b b c ,. X>X2XzXzXjXCXZXVXD.          ; ..B.Z.Y.!.).4X(.*.*   & & y 5XLXJXGXPX",
"c c c c c c c c c c c c c c c c c c c h 5 9 x n N v `  X3XhXVXVXVXVXVXVXZXDXZX,Xa           ; e.W.).L.*.& o o & o 1.AXPXLXDXKXPX",
"c c c c c c c c c c c c c c c c c c d :.0.4 4 5 9 1.,XhXzXVXDXDXDXZXCXCXVXCXZXGXCX:Xy           l *.& o & & & a H.mXKXLXDXSXPXHX",
"c c c c c c c c c c c c c c c c b g R :.ZX5.@   p hXzXzXCXCXCXZXGXGXZXjXhXVXZXDXBXMXjX,Xf.&   o o o o & o o 2.lXPXKXFXjXSXJXSXZX",
"c c c x c c c c c c c c c c c b k # 0 d ;XhX X X,XCXZXVXVXVXCXNXlXNXhXjXMXgX>X|.5. XgX3X0.f - & o o o o - W 7.[.;XiX,X5.[.iX0.3.",
"x k k k x x k x x x x x x v v f @   @ 6 d j  XzXVXCXNXzXjXjX5XoXOX6XgX>Xj - # 5 V K.oXQ 5 s W j p * y W :.3.:.f p # 5 :.5 # p d ",
"k k k k k x k k k x x c c h g s 8 # @ @ s # p ;.;.0.,XgXlX5XW./.8X8X4X_ # 5 ,.(.$X@X8X6XH.W E f g W :.3.7.:.E W 8 @ :.;.@ s W s ",
"k k k k k k k k k x v h g d g d g s s @ 6 s 8 4 # 5 # 5 c.N.oXG.^.$X8XOXV w.@X8X@X@X4X4X7XL.f g ;.:.3.7.3.:.W f @ :.8.q # :.W g ",
"k k k k k k k k x k s g R R g g g g R 5 6 g s f p 5 s e.^.@XeXrX$X$XeX^.< G.$X/.$X/.).8X4X7XK.;.E W 3.3.3.E 8 @ E 8.:.@ E 3.E E ",
"k k e e e e e k h d g g g g g g g d s q 6 f s 8 s m K.uXxX$X-.m.-./.eXXXP XXXXY Z , G ^.@X7X#X(.u.:.3.:.E #   8 3.E # s :.W s 6 ",
"9 9 9 9 9 k l p d g g g g g d d d s q s q j 8 x N.tXxXkX8Xz.> > 2 .X-.-.Y R.T O O X > Z x./.tXtX0XL.:.g # f :XfX<X X;X<X*X9.0.;X",
"k a a V V V f g R g g g g d s s s s q s E ,X_ J.sXcXcXuXE.P , S H.8.p.Y Z -.Y ,.7.3._ Z T U.@XeXtX7XK.0.|.gXKXPXLXHXLXPXKXDXCXHX",
"1.1.1.1.1.j R R R g g d s s s q q s q 6 E oXoXkXcXxXrX+XE.m.=.L.*X&X=XH.s.e.H.&X<XFXSXK.G x.U.@XwX6X7XwXhXmXmXnXvXbXbXvXnXnXmXmX",
"6.6.D.6.;.d R g d g s s s q q q q 8 6 v M.oXkXcXuX/.E.G.E.E.G.*X[.=X&X7.8.8.*X*X4.bXnX,XP U x.^.6X6X8X8XtXJXPXKXHXJXGXZXFXKXPXLX",
" X X X;.d d d g s s g s q q 8 6 5 6 } K.6XkXxXxXeXG.G.XXXXG.tX1X&X[.7.4.].4.8.*X[.1XNXNXwXU T N.OX8X6XtXtXsXJXLXKXHXGXFXnXlXvXnX",
",X5.g d g d s q s 8 q q 6 6 4 4 8 e.^.6XuXkXxXuXXX+X6X+XE.G.SXbX<X=X3.'.{.{ [.-X-XnXGXHXJX4XJ x.Q.@X8XyXkXuXtXAXHXHXDXHXHXmXiX,X",
"|.q 6 q d d q 8 6 q 4 d h 6 h L M.W.OXtXuXxXuX@X8XuXuXeXXXoXGXvX1X=X:.'.'.{ 4.<X1XnXGXJXPXAXG z.I./.@XeXsXkXtXOX6XtXoX).pXSXLXKX",
"d g s q 0 s s 8 4 4 } U.U.N.G.W.W.OX8XeXrXuX8X$XuXuXuXrX@XwXDXnX1X<X8.'.'.{ 8.1X1XmXHXLXPXsXG z.x.I.Q.@XtXsXuX0X4X4X_.7X9X8XsXAX"
};
