/* XPM */
static char *c5f05f60c7f449dfb76de98e1daee06amJex5p6Pr5Az5OPc[] = {
/* columns rows colors chars-per-pixel */
"64 64 255 2 ",
"   c #020402",
".  c #000C01",
"X  c #0A0804",
"o  c #0D0D0D",
"O  c #140D07",
"+  c #001401",
"@  c #001C03",
"#  c #0C110D",
"$  c #041909",
"%  c #1B1305",
"&  c #13110C",
"*  c #1C130D",
"=  c #0D1612",
"-  c #131312",
";  c #171815",
":  c #1B1915",
">  c #1B1D1B",
",  c #21130D",
"<  c #281A0A",
"1  c #351E0D",
"2  c #241B14",
"3  c #271A14",
"4  c #231D1A",
"5  c #002304",
"6  c #002B05",
"7  c #00240A",
"8  c #002B0B",
"9  c #003306",
"0  c #00330C",
"q  c #003A0D",
"w  c #072814",
"e  c #182618",
"r  c #1D211D",
"t  c #003313",
"y  c #003C13",
"u  c #06371B",
"i  c #003D1B",
"p  c #173516",
"a  c #39280F",
"s  c #23221D",
"d  c #2C2619",
"f  c #2B231C",
"g  c #362719",
"h  c #32241C",
"j  c #1F1F23",
"k  c #1E2321",
"l  c #1B2B23",
"z  c #153724",
"x  c #232422",
"c  c #2C2621",
"v  c #262926",
"b  c #2C2A25",
"n  c #252B2A",
"m  c #2C2C2A",
"M  c #332B23",
"N  c #362B25",
"B  c #2E312C",
"V  c #253928",
"C  c #383225",
"Z  c #33322D",
"A  c #3B342C",
"S  c #2C2D31",
"D  c #2D3533",
"F  c #333533",
"G  c #383935",
"H  c #353C3B",
"J  c #3B3C3B",
"K  c #471B07",
"L  c #452A17",
"P  c #4E2812",
"I  c #49311D",
"U  c #56341D",
"Y  c #66381D",
"T  c #453528",
"R  c #4C362C",
"E  c #573A25",
"W  c #443C35",
"Q  c #663C24",
"!  c #00420C",
"~  c #004313",
"^  c #00431C",
"/  c #014B1A",
"(  c #00511C",
")  c #2C4018",
"_  c #014522",
"`  c #014D24",
"'  c #094A27",
"]  c #184629",
"[  c #005224",
"{  c #02542B",
"}  c #07572A",
"|  c #005C2D",
" . c #17532E",
".. c #055C31",
"X. c #175933",
"o. c #2D4A2F",
"O. c #39423D",
"+. c #285737",
"@. c #006433",
"#. c #046833",
"$. c #056939",
"%. c #186639",
"&. c #1D643A",
"*. c #23683C",
"=. c #2F7039",
"-. c #4E492A",
";. c #48433C",
":. c #574638",
">. c #68432B",
",. c #76492D",
"<. c #694935",
"1. c #774B34",
"2. c #655832",
"3. c #7C5236",
"4. c #536C39",
"5. c #3B3E41",
"6. c #3C4443",
"7. c #3C4945",
"8. c #385947",
"9. c #3F5350",
"0. c #1A7241",
"q. c #2C6D46",
"w. c #38674A",
"e. c #36744C",
"r. c #397854",
"t. c #424543",
"y. c #454C48",
"u. c #574D44",
"i. c #47534C",
"p. c #54534D",
"a. c #4A5654",
"s. c #565A58",
"d. c #675546",
"f. c #795845",
"g. c #675851",
"h. c #4B6F4F",
"j. c #496856",
"k. c #56675A",
"l. c #477759",
"z. c #726655",
"x. c #565C60",
"c. c #556D62",
"v. c #577965",
"b. c #656869",
"n. c #68766B",
"m. c #737471",
"M. c #923F25",
"N. c #854D32",
"B. c #875638",
"V. c #975B3B",
"C. c #A16635",
"Z. c #CB6E27",
"A. c #885C44",
"S. c #915B45",
"D. c #8B6348",
"F. c #986648",
"G. c #886C58",
"H. c #996B53",
"J. c #9C7359",
"K. c #A56848",
"L. c #AC6D4C",
"P. c #AA7457",
"I. c #B77A59",
"U. c #887767",
"Y. c #8F7869",
"T. c #AD7B64",
"R. c #C27C59",
"E. c #D27353",
"W. c #C87F65",
"Q. c #6B8E2E",
"!. c #3A8354",
"~. c #4A8956",
"^. c #678C4B",
"/. c #588568",
"(. c #518B69",
"). c #64876D",
"_. c #688674",
"`. c #758A7C",
"'. c #69947B",
"]. c #709175",
"[. c #6EAE72",
"{. c #9E8F26",
"}. c #EA9407",
"|. c #988473",
" X c #BB8567",
".X c #AF8E76",
"XX c #D0865C",
"oX c #C78968",
"OX c #D48D69",
"+X c #D7926D",
"@X c #CC9174",
"#X c #D99674",
"$X c #E8956F",
"%X c #E79975",
"&X c #E0A16F",
"*X c #E7A57D",
"=X c #F4A77B",
"-X c #778C84",
";X c #799584",
":X c #7AA68D",
">X c #848988",
",X c #87988D",
"<X c #8E8B91",
"1X c #8B9795",
"2X c #949A9B",
"3X c #B59987",
"4X c #89A68D",
"5X c #88A796",
"6X c #98A89D",
"7X c #999CA3",
"8X c #99AAA4",
"9X c #9DB4A8",
"0X c #A4AAAB",
"qX c #A3B3AC",
"wX c #AAADB3",
"eX c #AAB7B3",
"rX c #B4B9BC",
"tX c #CB9C85",
"yX c #EA9A85",
"uX c #D6A98E",
"iX c #EAA988",
"pX c #F6AD87",
"aX c #F8B288",
"sX c #EAB192",
"dX c #F7B798",
"fX c #DBBAA6",
"gX c #F6BCA3",
"hX c #9BC29B",
"jX c #ADC1B3",
"kX c #B6C3BD",
"lX c #FDC5A8",
"zX c #FFD1B5",
"xX c #BABCC3",
"cX c #C0BEC8",
"vX c #BBC4C4",
"bX c #C3C7C9",
"nX c #C4CBCC",
"mX c #C8D1CE",
"MX c #CBCDD3",
"NX c #C8CBDA",
"BX c #D1CFD8",
"VX c #CDD2D4",
"CX c #CDD2DA",
"ZX c #D5D7DA",
"AX c #D4D5DC",
"SX c #CFD1E3",
"DX c #CED0E4",
"FX c #D6D7E6",
"GX c #DCDCE4",
"HX c #E1DDE8",
"JX c #DEE2E8",
"KX c #E3E3EB",
"LX c #E6E5EA",
"PX c #EAE9F4",
"IX c #F0EEF7",
/* pixels */
"b.x.a.6.H F S m x 4 * O O * * * * * 2 2 2 4 4 4 4 Z ;.z.z.z.z.d.:.A f 2 2 f f 2 2 : : 2 * d A W W m > s f c M M M M C C C C M f ",
"b.x.s.y.J F F m x 4 * * * * * * * 2 2 2 s s c 4 f W z.Y.U.:.T h d * X   X : : O X X & * O X O h W A s s f M N N M M C C M M M c ",
"m.b.s.y.J F F m c 4 : * * * * * 2 2 f M c c c c 4 A z.m.z.u.T 2 O # : 2 2 2 : * * * O X X   X * M A c f f N N h h M M M h h c f ",
"m.b.s.i.J F m b s 3 2 * * , , 2 2 2 M N N M M b s A g.g.p.u.:.d   X * 2 2 & O O * 2 * X X   X * f c b f f N h h h h c h h f f s ",
"m.b.s.y.J Z b c 4 2 2 , , , , 2 2 h N C C C N N b W z.g.u.W T h g E Q >.<.R h , 2 I -.-.C * X & 2 f f f f h h h h c f f f f s 4 ",
"m.b.s.y.J Z M c 2 2 2 , , , , 2 d h N C T T A N N u.U.z.W : & R F.P.I.I. XT.f.E E f.T. XD.-., X - b f f f f h M c c f s s s s 4 ",
"b.x.s.t.G N M h 2 2 2 * , , 2 2 h h N T T T T M A g.|.z.N 2 I A.R.XXOX%XsXgXuX@X@X*XsXiX+XP.<.* & s m x f h h M M c f s s 4 4 s ",
"b.s.p.t.G N M h d 2 , * , , 2 2 h h N T T T T M ;.U..Xd.d g >.D.R.XX$X%XiXdXdXaXpXaXaX=X+XXXL.T - r B v x c M M M b x r > > > s ",
"s.p.i.W A N h h f 2 , * * , 2 2 f M N C T T T f u.|..Xd.f C <.B.L.XX+X$X%X=X=X=X=X=X=X%XXXOXoXf.N x Z B m m Z Z N m x r > > r s ",
"s.p.y.W A N M h 2 2 * * * * 2 2 f c M N A T A f :.|.tXz.C L ,.V.L.R.XX$XpXaXaX=X=XpXaX=X$X$XoXG.:.A F F Z Z Z Z B m x x s s x x ",
"s.y.;.G A h h h 2 2 * * * * 2 4 f c M M N C N 4 :.|..Xd.h E V.C.B.N.1.A.P.P.@XiXpX*X@XI.P.I. XF.f.u.O.H H G G F Z m v x x v v m ",
"y.t.W A N h h f 2 2 * & & * : 2 4 f c M M M c ; ;.U..X:.g 1.L.V.Q E I a a a B.+XpX X>.I T <.D.F.G.g.7.7.t.7.O.G Z B B m m B B Z ",
"t.W G Z M f f f 2 2 * & & & * : 4 f c M M M f : W U..X:.E V.L.B.E <.:.2 X O Y  X*XB.< % < a <.J.G.p.y.i.i.i.y.O.D D F D S D F F ",
"J F Z M c c f 4 2 : & & & & & : 4 s b N Z M b x d. X@XG.1.K.L.K.N.>.<.R L E F.OX#XB.E d.C K 1. XY.a.9.a.s.a.i.6.H F F D D F G G ",
"F m v x x f s 2 2 : - & & & - : 4 x b N Z m m R V.E.oXJ.D.L.R.oXoXP.T.T.P.P.oXOX+XL.P.T.:.P N.oXtXU.7.a.s.s.a.y.O.H O.H H H J J ",
"m v x s s s 4 : : : - - o & - : > s x v m v m 1.Z.Z.L.D.A.K.I.#XsXsXsXsXsX@XoX+X+XOX+X@XF.3.V.L.iXuXn.s.a.s.s.i.7.6.6.6.6.6.O.O.",
"x x s s s r : ; - - - # o & - ; : > s x v x m <.E.$XL.,.>.B.K.+XdXlXlXgXsXI.R.%X+XoXoX#X+XOXXXK.+XgXfXm.a.a.s.a.7.7.7.y.t.6.O.;.",
"4 s s s s > ; ; - - & o - - - - ; > > s x x v R R.=XOXS.>.,.V.oXiXdXgXdXiXI.OXdXdX#X#XpXdXdX#XL.C.+XzXfX<Xk.a.i.i.y.y.y.y.t.6.;.",
"> > s r s > ; ; - & o o - - - - ; : > > s x v W P.=X%XL.>.Q B.L.OX%XdXsXOXB.P.uXtXoX+XdXdXdX#XL.M.S.tXzXlX3Xb.y.6.7.y.y.y.y.t.t.",
"> > r r r > : ; - & o o o - - - ; ; : > s s b G J.%X%XL.>.E N.K.R.#XpXiXI.U E S.A.F.oXaXpX#XI.K.B.u.d.uXzXzX3Xg.O.7.y.y.y.y.t.t.",
"> > r r r > > : ; - & o o o - - - ; : > > x b m A.%X=XI.>.E B.K.R.+XpXpXoX>.1 1 P V.+X=X$XI.F.K.f.t.u.Y.sXzXlX3Xz.6.O.t.y.t.t.t.",
"> > r r r r r r > ; - o o o - - - ; : > > x v v W D.I.P.f.E ,.F.oX#X%XoXS.,.Q E L B.OX%XXXC.F. Xg.D H u..XlXlXdXtXY.p.H t.6.t.t.",
"> > r > > r k x k > ; o o o - - - ; : > j x v m b N :.Y.G.E E 3.I.#XI.,.P U S.F.Q >.K.OXI.V.D..Xz.t.g.G..XiXiXaXdXsXU.6.S J O.t.",
"r k x k r r k x x > ; - o o - - ; ; : > k x m m m b A Y.J.:.I E F.oXB.a 1 P N.B.Q K ,.oXI.3.<.J.G.|.sXgXsX#XiXiXpXsX3Xs.l G J O.",
"x x v x x k k k k k > ; - o - - ; ; : > k x b v x m W G.H.E L I 1.L.B.>.1.U K K K P 1.P.D.:.C :.J.iXgXdXsXsXgXdXiXiXsX|.O.n B J ",
"v m m m v x k k k k > ; - o # - - - ; : : x x x s M ;.H.A.T g g E B.K.I.I.H.A.1.N.S.S.3.E N n k G.iXgXdXsXsXlXlXdXiXsXuX|.J n F ",
"m m m m v v x x k k > ; - o o - - - - - - ; > r > b ;.H.D.g < , L 1.I.OXW.yXyXyX%XOXF.I d m D m f.@XdXdX#XoXyXlXlXiX&XdXfXm.G n ",
"m Z B B m v v x k k > - # # # - - - - o - - ; ; ; j W H.F.T 2 * g 1.I.I.N.1.A.H.K.P.3.< f v F u.H.@XuX XD.B.L.iXlXlXiX*XsXuXz.l ",
"N Z Z Z B m v x k > ; - # # # - - - - o o - - ; ; x :.J.K.>.2 O h >.I.XXV.U L >.V.V.>.2 A m m d.B.K. XP.3.U Y P.sXlXdXiX*XsX.Xg.",
"N Z F Z B m v x r > ; - # o # - - - o - - ; : s e M d.J.P.A.g O * g A. X XD.<.3.K.,.I T ;.S v :.E Q F.I.H.Q K ,. XsXdXdXiXiXdX3X",
"Z Z G F Z m v x > ; - - # # # - - - - - > s d g d C d.J. XP.>.* X O g f. X#X#XoXP.I g <.;.m x m m A d.T.W.V.K P S.oX*XsXdXdXlXlX",
"Z Z Z Z B m x k > ; - # # # o o - - ; > r d a -.C m d.H.I.I.A.g O X O g <.H.H.3.E < T D.u.G m j x m A :.d.1.Q P Q K.oXiXlXlXlXuX",
"G Z A Z m v x r > ; # # # # # # - - - : d T -.g.G N f.F.P.I.P.<.2 O X X % 1 a < O 1 >.A.;.O.7.;.G B S n V -.:.E I ,.K.OXiXdXuXn.",
"G F Z m v x x > ; - # # # # # # - ; ; d -.4.h.k.:.U F.F.F.I.oXH.E < O X X X X O < U 1.<.N o.h./.k.p.s.k.w. .} o.o.T ,.F.I. Xz./ ",
"G G G m v x x r > - # # = = #     X V h.4. .u n <.V.B.B.F.I.@XT.B.I < % % % % 1 U Q ,.<.2 + t *.].6X0X0X).[ ! y p p ) -.2.2.o.~ ",
"J J G F m x x k r = # .     X e G k.].4X_.8.z . L B.N.B.F.I.@XoXH.1.U a 1 1 a U >.,.>.T     z _.kXZXMXMXqX).+.y 6 8 0 /  .p t ~ ",
"J J J F m x x x k ; = = e V t.b.,XjXkXeX8X1Xb.= X T 1.B.F.I.@X@XI.S.>.U L a I Q ,.1.E %   n -XbXKXHXAXAXMX0Xv.u 5 5 6 / | y t y ",
"J J J F B v v k ; r n a.`.6XrXnXnXbXvXxXvXnXwX5.  O E B.K.P.@X@X XF.1.E L L U ,.1.>.<   m <XFXGXFXGXKXHXxX>Xk.t + 5 + 6 ( | ^ 0 ",
"5.J H H F x # > i.-X0XxXnXCXFXFXFXSXCXSXSXGXCX<Xv   & E B.L.oX@XoXH.3.Q E Q ,.3.>.1 O H m.xXGXHXGXHXHXrXm.y.z 0 q ~ q 6 i %.$.^ ",
"5.5.J F m v F b.0XCXPXPXJXFXDXDXDXFXFXFXFXGXGXSX-Xk   X L 3.K.oX@XP.B.,.N.V.V.,.g 4 t.>XwXbXnXAXAXcX2Xs.V 8 6 0 ~ ~ ~ p -.C.{.^.",
"5.5.5.F B y.,XNXFXDXNXNXNXNXNXNXNXNXSXSXSXFXFXPXCX>Xm     f >.P.@XI.V.,.B.K.A.T # O.`.6X8X0XrXvXeX_.] $ + 6 q q 6 6 7 -.Z.}.}.&X",
"t.t.J v t.4XVXGXNXNXNXNXNXNXNXSXSXSXSXSXFXFXFXKXKXMX7Xx.x X & T A.H.3.U L 1 d e w u o.8.v.,X8X1Xj.i u i 8 6 ~ q 6 5 @ -.{.}.}.}.",
"6.6.F y.].hXjX9X1X5X8X8X8X9XqXeXeXeXqX9X9X8X8X8X8XqX8X>Xi.=   X 2 T h * - w t t t t t i  .w.w.+.i q ^ t 0 q / ~ 6 5 5 p 2.C.Z.}.",
"H 5.J ).[.(.l.w.r.l.l.l.l.l.l.v.c.l.l.j.j.j.w.w.8.j.j.v.j.] z $ .   o = z ' ` i t u _ _ ^ 0 6 5 y } X.z i ^ ^ y 8 6 6 5 5 o.3.{.",
"S H n.[.~.| ` { | @.| [ ^ i u t 8 7 5 6 8 t u i _ _ _ ` { %.0.X.i w ] X.} i y ^ _ ^ ^ / y 0 0 ^ ~ X.v.n.h.` 0 6 8 0 q 6 @ + w 2.",
"S 7.l.~.%.^ ^ ` ` ` ^ y t i 0 5 6 0 0 9 y ` { | | | | | @.$.$.r.~.e.q.X._ i { q.r.r.w.w.w.h.c.v.l._.1X0X`.X.0 6 0 y y 0 6 + + z ",
"O.h.e.%./ i i i ^ ^ ^ ` { [  .8.8.h.v.l.e.%.@.@.$.@.@.@.@.$.e.'.6X:X;X_._.v./.'.1X5X5X6X8X9XeXrXeX0XwXMXqXl.! 9 y y q y 0 6 5 5 ",
"+.~.~.*.^ 8 t t t ^ [ @.$.| r.;X`.,X6X6X`.q.[ | | @.@.| %.l.;XqXxXrXnXGXJXvXqX0XeXrXbXVXCXCXCXAXGXnXwXGXVX`.~ ! ~ 0 ~ ~ 0 0 6 5 ",
"h.[.!./ 5 8 6 6 8 t i ` ` _ 8.n.`.,X5X6X;X/./.).'.'.'.'.5XeXxXbXMXAXGXJXKXZXnXvXrXvXnXFXKXPXHXVXKXZXxXHXKX6X[ ! q 6 / ( y 0 6 6 ",
"h.~. .8 5 6 o.j.j.j.k.v._._.v.v./.(.(.'./.;XeXeXeXrXnXvXMXGXGXHXKXLXKXGXGXGXHXZXMXvXvXrXkXeX8X-XvXHXMXKXKXeXq.! 9 q ( ( ! q 0 t ",
"h.=.0 5 5 7 c.2X2X2X8XwXxXkX5X(.~.!.r.!.~.5XZXAXnXMXKXGXGXKXPXIXPXKXGXGXHXLXPXLXGXVXkX9X5X;X/.w.2XAXBXFXZXeX/.y 6 / ( ~ q ~ y y ",
"+.y t 6 @ 6 k.1X1X1X2X8XwX8X;X(.~.^.^.~.'.qXBXAXAXMXbXBXKXIXIXPXLXGXGXKXIXPXLXLXLXLXLXKXAXeX5X8X8X0XkXbXxX8X;X' 5 ( ~ q q 0 q 0 ",
"' 8 7 5 5 5 j.1X7X2X7X0XwXqX5X).Q.{.{.~.:XvXZXCXvXrXvXVXAXnXnXnXMXnXMXVXZXZXZXGXKXLXLXKXGXGXZXnXqXeXVXnXeX1X`.] 6 / 0 0 0 5 0 8 ",
"y 7 + + @ @ i.>X7X<X7XwXxXrX5X).Q.Q.Q.~.:XvXMXbXrXrXMXAXnXrXrXrXvXbXnXbXvXbXmXmXmXmXmXmXnXZXnX6X;X4X9X4X_.j.8.u 9 q 0 0 6 + 8 8 ",
"8 + . + + + o.n.<X<X7XxXMXrX,X(.^.Q.=.(.5XeXeXwXkXmXnXbXvXvXbXvXkXbXkXjXeXeXqXqX9X9X9X9X9X5X/.+.+.q.&.` y 0 + 6 y 0 ~ 0 + + 6 8 ",
"+ . . + + + e n.rXxXMXAXFXVX5Xe.~.~.(.:X9XqX6X8X9X5X`.).)._._./././.l.l.l.r.e.e.e.e.e.e.e.X.i ^ %.0.| ^ ^ y + 5 y / / 9 .   + @ ",
". . + + + + + i.2X0X0XwXrXbXqX'.(.!.!./.v.k.l.l.l.q.X.X.X.*.&.%.X.{ { | | | | [ | | | | [ 0 8 { 0.%.{ ` _ t @ @ t / ^ 5   . @ + ",
". + @ @ + + . l k.b.b.n.m.,X8X8X'.q.X.z w 0 ^ ^ / / ^ | %.%.%.X.} } &.*.&.&.&.&.*.0.0.%._ i  .&.0.@.[ { i $ @ + 5 t 8 + . l l = ",
"+ + @ 5 @ + . w i.b.n.c.k.j.c._.).+.@ 7 _ | { { { ..&.&.*.q.&.X.} X.&.&.&.%.&.*.q.0.%.} t ` %.%.$.@.[ ~ 5 + + + + + .   = 9.i.H ",
"+ @ 5 5 5 @ + + w V +.+.]  . . .] t 8 _ { ..' } X.&.*.&.&.&.| ` ` | | | [ [ [ | | #.[ y ` | | | | | ` ] V o.8.o.e $     n a.a.6.",
"+ 5 5 5 5 5 @ +   . @ 5 6 i y 5 + t } | { ^ ^ _ ` { { { } } { } X.&.&.&.&.&.*.e.r.e.+.] q.r.l./.).v.j.j.k.n.m.k.;.C   $ 7.a.a.6.",
"5 5 5 5 5 5 @ +       . $ 7 $ . $ _ @.| ` ^ _ ^ ` `  .X.+.q.w.l.v.v.v.)._.;X4X6X9X-Xk.j.i.m.qXVXVXrX1X>X>X`.n.`.m.y.. = 9.a.i.6.",
"6 5 5 5 5 @ @ +       . + .   . @ 6 i X.w.c._.`.;X1X8XqXeXjXkXvXkXrXvXmXVXmXVXbX0Xm.J v ; J >XbXeX,X>X2X<X>X1X0X<X;.. w 9.7.6.H ",
"t 5 @ @ @ @ @ +     . w z D 7.i.j.j.v.`.5X8XqXrXvXxXrXbXbXrXwX0XwXxXrXwXrXZXKXrXb.S x J p.J y.0X7X1X0X2X>X>X0XrX>Xm . l 7.6.D S "
};
