/* XPM */
static char *_03d2bc4e29645f8dd511071eedbf0b2wYOrKJPFBChSPIam[] = {
/* columns rows colors chars-per-pixel */
"64 64 256 2 ",
"   c #010402",
".  c #030B04",
"X  c #0A0B04",
"o  c #0C0C0B",
"O  c #0B1001",
"+  c #0E110C",
"@  c #0D160D",
"#  c #02180A",
"$  c #12130C",
"%  c #19180B",
"&  c #151A13",
"*  c #191A14",
"=  c #261B0B",
"-  c #2D1C0E",
";  c #03290E",
":  c #1D2603",
">  c #17220B",
",  c #092615",
"<  c #192618",
"1  c #132A1A",
"2  c #05371A",
"3  c #14331C",
"4  c #19361D",
"5  c #28250D",
"6  c #34230C",
"7  c #39250A",
"8  c #273402",
"9  c #2C3806",
"0  c #232314",
"q  c #26281A",
"w  c #362915",
"e  c #26361D",
"r  c #39321A",
"t  c #1A2D22",
"y  c #093A22",
"u  c #183823",
"i  c #282B25",
"p  c #322C21",
"a  c #243523",
"s  c #2C3423",
"d  c #293A27",
"f  c #313425",
"g  c #393A27",
"h  c #34352A",
"j  c #343B2B",
"k  c #383B36",
"l  c #421B02",
"z  c #46280B",
"x  c #552C0E",
"c  c #462C15",
"v  c #473419",
"b  c #563617",
"n  c #6D300E",
"m  c #663919",
"M  c #753D16",
"N  c #473A28",
"B  c #583B24",
"V  c #453D33",
"C  c #6A3D25",
"Z  c #084E19",
"A  c #19451B",
"S  c #3B4C0B",
"D  c #26491B",
"F  c #28571A",
"G  c #355618",
"H  c #30631D",
"J  c #054927",
"K  c #174629",
"L  c #194F2E",
"P  c #035629",
"I  c #065A32",
"U  c #1A5737",
"Y  c #274826",
"T  c #364529",
"R  c #2A5524",
"E  c #375728",
"W  c #284733",
"Q  c #394635",
"!  c #27583A",
"~  c #365337",
"^  c #0C673A",
"/  c #35662C",
"(  c #56431B",
")  c #495D13",
"_  c #6F431B",
"`  c #4F6817",
"'  c #59711A",
"]  c #627D18",
"[  c #46462A",
"{  c #584728",
"}  c #4B5B2A",
"|  c #464737",
" . c #544A38",
".. c #495238",
"X. c #575539",
"o. c #674627",
"O. c #754727",
"+. c #7A542B",
"@. c #6D4E30",
"#. c #67533A",
"$. c #785736",
"%. c #4B6A31",
"&. c #586738",
"*. c #706D37",
"=. c #34524D",
"-. c #385848",
";. c #157244",
":. c #296946",
">. c #366949",
",. c #25774A",
"<. c #367352",
"1. c #474B44",
"2. c #4A5546",
"3. c #4F504C",
"4. c #565948",
"5. c #575A56",
"6. c #665C4A",
"7. c #4F6B46",
"8. c #596549",
"9. c #466456",
"0. c #5A6457",
"q. c #487656",
"w. c #587356",
"e. c #726D4A",
"r. c #677647",
"t. c #666659",
"y. c #687855",
"u. c #757956",
"i. c #4E5F6F",
"p. c #5A6764",
"a. c #56736A",
"s. c #656765",
"d. c #677768",
"f. c #757868",
"g. c #6D7375",
"h. c #777778",
"j. c #874B1C",
"k. c #864A26",
"l. c #89562B",
"z. c #975428",
"x. c #885836",
"c. c #965936",
"v. c #A35A2F",
"b. c #87653D",
"n. c #98633A",
"m. c #A7663A",
"M. c #B56B36",
"N. c #CB7B3B",
"B. c #8C5D44",
"V. c #876646",
"C. c #97754C",
"Z. c #927450",
"A. c #A67549",
"S. c #AA714B",
"D. c #B87647",
"F. c #BA7C56",
"G. c #8D7A65",
"H. c #C67A54",
"J. c #698719",
"K. c #70901B",
"L. c #508139",
"P. c #708F2D",
"I. c #2E875A",
"U. c #208F60",
"Y. c #7A9B46",
"T. c #6E8553",
"R. c #77855A",
"E. c #548A6C",
"W. c #479870",
"Q. c #788865",
"!. c #678978",
"~. c #728A74",
"^. c #699778",
"/. c #A48331",
"(. c #968552",
"). c #B18957",
"_. c #A1BF59",
"`. c #858C69",
"'. c #8D8F73",
"]. c #8A9677",
"[. c #B58765",
"{. c #B48F69",
"}. c #90B273",
"|. c #B6A574",
" X c #CE8853",
".X c #CC8E67",
"XX c #C6946C",
"oX c #D39668",
"OX c #E69A6B",
"+X c #D4A776",
"@X c #D7A77B",
"#X c #EAA873",
"$X c #526E8C",
"%X c #6D7D8D",
"&X c #5370A1",
"*X c #827F84",
"=X c #768E8A",
"-X c #76AC8E",
";X c #698BAA",
":X c #7CA1C5",
">X c #878987",
",X c #969C86",
"<X c #889391",
"1X c #889896",
"2X c #969899",
"3X c #AA9B93",
"4X c #9BA488",
"5X c #92AB9A",
"6X c #A6AB96",
"7X c #AAAB91",
"8X c #859BAA",
"9X c #979DA3",
"0X c #99A6A6",
"qX c #9AB7A8",
"wX c #90A8B5",
"eX c #A5A6A8",
"rX c #A6B5A8",
"tX c #B0B5AE",
"yX c #A6ADB4",
"uX c #A9B7B7",
"iX c #B5B8BA",
"pX c #D3B189",
"aX c #E8B587",
"sX c #F0B689",
"dX c #C4B4B2",
"fX c #92C69F",
"gX c #ACC5B8",
"hX c #B7C5B8",
"jX c #FAC499",
"kX c #CCC9AD",
"lX c #ECCBA9",
"zX c #97B2CA",
"xX c #A8B7C5",
"cX c #B7BBC6",
"vX c #A9BED3",
"bX c #BBC3C8",
"nX c #ABC4D8",
"mX c #B6C8D7",
"MX c #B9D1D8",
"NX c #B4CCE1",
"BX c #BBD3E5",
"VX c #C5C7C9",
"CX c #CDD3CB",
"ZX c #C7CBD6",
"AX c #CBD1D7",
"SX c #D5D7D9",
"DX c #E1E0DC",
"FX c #C4D9E9",
"GX c #C6DAEC",
"HX c #D9DAE5",
"JX c #D7E5EF",
"KX c #CDE5F4",
"LX c #E3E5EA",
"PX c #E9EBF4",
"IX c #F1EFF7",
"UX c #F8F7FD",
/* pixels */
"e D D Y T Q Q h q < a Y E E E E E E E E R R R Y Y Y R R R R F F F D A A A u 4 a i i < 3 4 3 3 a j [ [ T u u a s r s a a a 4 1 & ",
"a Y R R ~ Q Q T 4 1 < a T E %.%.%.7.7.y.w.w.w.7.7.7.7.7.7.%.%.%.%.E A A A A 4 4 t 1 1 4 3 1 3 d Q ....T Y u 4 s f s a u 4 3 , 1 ",
"a Y R R ~ ~ Q W u 1 < q T ..&.&.r.T.Q.].].].].].'.Q.Q.Q.Q.Q.R.R.r.%.E D D A 4 4 u 1 1 4 1 1 1 d Q 2.X.T T a e s r d 4 3 3 3 , 3 ",
"u K Y Y Y W W W u 4 < q f [ X.&.r.R.].4X6X6X6X6X6X4X,X].].].].].R.r.%.F F D A 2 3 3 , , , < , d Q | X.[ g s e s s d 4 4 3 3 3 a ",
"u u 3 3 u K K W Y D e e e e g { &.r.`.].6X6X6X6X6X6X4X4X4X4X6X4X].T.%.F F A } G.[ Z.X.q s # , t d Q | T j f s d d a a a a e a d ",
"y y 2 3 t u u K Y R F D e 0 q g ..&.y.Q.].4X4X,X,X].].].4X6X6X6X].R.%.F &.).aXOXXX+.XX#.F.d , , q s f f s s a d d a j g g f q e ",
"u y y 2 3 u u W R E / F D < < d ~ %.7.y.Q.`.`.Q.`.`.`.].4X6X6X6X].R.&.(.sXaX XO.S.C.n.Z.l.(.; , > < q s e e 4 4 u d T | | g s q ",
"U U K y y t j Q [ g g e e e t W ..r.r.u.R.T.T.T.R.R.Q.'.,X4X7X,X`.`.+XsX.Xl.G Z ( D.n. X$.).} , , < < q q < 1 1 1 d [ X.X.Q s < ",
",.:.:.U W k f 0 * + + o X q X.Z.Z.).x.+.b.R.r.u.u.u.f.Q.'.'.`.R.`.aXjXS.x m.*.%.*.l.m.m.XX.X(.2 3 < < q i q < @ < e N X.4.| s * ",
"U.U.U.:.p * * $ % 0 0 q V.V.v B @.v v c b O.e.r.y.f.u.u.u.u.r.u.pXjX.Xb.u.$.F.F.S.m.n l.oXaX|.2 4 4 3 i i q < & & 0 g [  .Q s * ",
"U.U.U.7.B b o.C @.@. .).A.B v r w = b c O.c O.e.y.u.u.r.&.} e.XXaXpXA.'.'.R.e.&.} k.z.k.n.).aX%.A Y d h s q q & @ & q f h s < @ ",
"W.W.-XpXS.z.m.H.oXXX[.A.o.v w = 5 v o.o.@.w B $.u.f.f.u.(.).oXoXoX@X|.u.Z.u.*.&.&.&.z.M x _ +XpXR Y Y j h f q & & @ * * q < & & ",
"-X-X6X[.l.k.v.D..XZ.n.k.o.w w o.= v B B b w r b u.'.(.{.XXoXA.D.D.jXjXV #.XX+X(.Z.r.V.F.n._ A.jX(.D Y T T T e < * & & & & & & & ",
"-X-XtX[.n.v.M.H.c.{ +.O.c { v +.N [ w v o.{ o.$.Z.[.XX+X(.A.@.7 _ oXaX+XF.c.c.H.oX{.{.aX@XA.m.@XaX} D E T T T a < < < < 1 < < < ",
"-X-Xu.$.O.B B x.o.b O.b w o.v v r w w N $.C.F.[.{.XX).A.o.( 7 = 6 b O.A.S.C.V.w o.S.F.F.pX@Xl.S.sXpX} } } } T Y d e 3 3 3 1 < < ",
"W.W.T - 6 % 6 b B o.b z 6 w = = = #.C.D.C.[.{.(.Z.C.{ v c w  .@.O.k.m. X#XsXaXe.[ X.{ b O.b.b x A.sX+X' ' } E T T d u u u 3 < * ",
"W.U.q.c c.b - C m z 7 6 = % 0  .V.C.A.).[.[.Z.$.+.( w r q N G.[.z.D.H.oXaXsXaX X[ ..8.y.6.[ 7 c k.OXsX).' ` G E Y Y u 4 K 3 1 < ",
"W.W.^.C.H.n.x M M.O.6 = % g Z.C.A.Z.Z.C.e.#.#.{ v f j T w $.).).B B @..XXX{.@XD.[ T X.u.'.`.8.b _ m.aXsX*.) G G F D D Y Y K 4 e ",
"-XqXrXF..XD.k.z.v.m.+.q 6.C.V.A.C.V.C.b.@.{ N r f 2...[ [ G.{.o.6 w - l.x.6 O.n.{ T ..6.u.R.y.X.b _ D.jX@X) F F F F R R R K 4 e ",
"5XgXbX[.H.S.k.v.m.z.A.[.H.F.A.A.$.$.o.b v r q 5 [ 4.4. .@.{.XXk.c z z k.D.B B k.[ g | 6.e.r.r.&.b x k..XjX{.F H H H H E R D e d ",
"qXAXkXV.z l.m.v.M.v.pXOX Xm.l.@.@._ 7 0 q 0 = r 2.8.6.m k.).{.O.x C C S.OX XF.n.j g g  .8.8.8.8. .x _ m.#XjX(.F H H H H E Y e d ",
"bX7XO.o.m k.b n j.k.C.D.n.k.v b w 5 q q * $ w [ 2.4.t.k.c.C.k.b O.n.B b C.H.oXH.#.h g Q ..4.8.8.4.N b j.H.sXjX*.Z H H / E D e e ",
"{.n l b v c - 7 x m m z M b z 5 0 < * $ X 0 v | 3.6.5.B.k.O.O.m m C b @.S.).v.M. .j k Q | ..8.8.4. .b _ v.oXsXaX%.F H / E G D d ",
"M n l z C n x z z b o.x _ 7 = % q * X + o % w | 3.5.4.1.B +.O.k.o.- @.V.$.C.z.S. .j k | 1.2.4.6.6...v b k.D.oXsX+XH / / / E E Y ",
"M n l 6 C x z z c v C 7 7 6 0 0 N  .= $ $ g  .| | 4.1.k B x.O.o.c.O.V.3XB.n.M.x.j h | | |  . .X.X.| g c M v. XOXsX(.H / %.} E T ",
"M n - % 0 6 6 - 6 6 o.r = c b { $.C. .v n e.q.2.| 4. .N C c.o.O.x.n.@.C F.#Xm. .Q h | | V V N  . .| N v x j.M. XOX#X&./ / E E ..",
"n x $       . X = 7 m v % = b _ o.$.Z.dXpXe.P ^ ,.2.#.N $.B.B @.x.m.[.{.@X XV.0.2.Q | k k p w V  .4.4. .z m z.M. XOX).K R R T Q ",
"M 6 + $ % = = % - c b v % % w v c +.C.tXSXeX~.E.I.-XVX6.x.+.c B o.N $.C.A.b.`.f.4.2.1.k p 0 q k 3.0.t.6.v x M v.N. X#XX.2 u d Q ",
"x.o.C C C O.o.o.l.z.c.o.% % 0 5 w @.e.iXSXLXHXcXrXrXSXd.$.k.7 c N N p q B G.>Xf.9.9.-.Q q * q | 4.t.t.t. .7 x j.M. XOXXX1 1 u Q ",
"m m O.O.x.e.e.G.G.G.G.V.r % 5 5 w ( &.VXHXHXHXIXZXK ! J X.l.x 7 6 6 v C x.f.f.t.9.-.-.Q e w S } &.y.u.t.4.r 7 n z.M. X#Xe.1 a j ",
"O.n.B.6.#.#.#.#.#.#. .[ q % 0 r r 5 2.VXZXSXHXAXLX=.J J 2 o.x c 6 - O.M.V.5.5.3.-.=.-.~ e r ) ' *.r.r.0.0.| 6 z _ z.M.oX[.r j Q ",
"C O.o.r v r c v c b r w O f 5 5 > # p.bXVXHXyX:.=XxX1X!.9.; w x b b k.M.%.~.t.2.2.>.W W 4.[ S ` ' &.y.f.t.X.v 7 x n z. X#X{ V k ",
"7 z 7 6 w 6 6 w 6 6 - 0 . t. .$ # e ~.bXcXyXU J <.mXmXHXbXg.; > c b l.@.^ <.q.q.0XhXeX6XSXVX6X|.Y.u.`.@.z 6 w 6 z x M M.#X$.V | ",
"% = - = = = = % * * $ f f 6.G.< T ..>XbX0XW J J ! 1X-X-XbXVXiX:.P L ! E.^.,.5X0XtXIXDXVXVXCXDXCXr.b.m b b x 7 6 6 x M M k. .V  .",
"X $ X $ $ q 0 $ % % $ u.| k 4.......9XbX9.2 U 2 q.-X^.^.qXiXLXSXqXgXLXUXUXVXUXIXLXSX-XAXVXiXiX2.v +.+.+.+.o.b z 7 z x 6 N  . .N ",
"h h k | t.f.G.6.1.i  .'.3.p.<XX.[ 4.0XcXyXg.! K E.gX_.}.-X>.E.qXcXtXLXUXUXUXUXLXSX!.;.-XiXeX>X4 @.$.@.o.( _ m x z = = B  .| | N ",
"h.>Xh.3.4.q | 4.t.t.2XiX9X9Xg.4.T y.0X0XyXuXcX!.<.fX_.}.fX! :.}.pX7Xf.!.DXDX5XE.<.:.I I >XeXa.1 { b v v v v z 6 % 5 V V N g g g ",
"g.>Xs.V g < $ w 0 Q 3.~.cXiX9Xt.4 >X9X9X0XyXAXAX=X-X^.fX-XI ~ ).pXDX|.~ <.I.^ I <.U P J <X<X-.> v v v v c 7 = % r  .g s f s s s ",
"0.s.t.h 0 % % q i | 0 q k Q | | 4 2.d.1XyXiXVXHXeXhX-XE.<.;.~ /.lXDX).r.^ E.E.^.-X1XJ 9.<Xd.Q # r v v r 6 = 0 g X...T a a a a a ",
"| s. .N r 0 f 3.h.p.1.h s k h | 3 , u K a.0XbXPXuXiXPXbX5XE.<.(.kXkX).w.J ;.,.<.!.!.9.1X2X0.Q @ % 6 r w w f Q ....| T d d d d a ",
"Q ..| g N 3.5.s.=X3.5.1.5.3.1.| 1 2 4 K L L 9.rXHXeXSXIXLXSXuX6XkX|.R.<.>.! U y a.cXZXxX=X...., h t.q & Q ~ Q Q Q Q T d d d d a ",
"+ h | T T h.yX%X1.| g.>Xs.1.| 1.3 2 2 2 2 K K U a.=XeXPXIXAXPXUXLXHXZXbXqX0X0XbXAXcXmXwX0.| 8.Q 5.0.# a Q T j j j h h j j h d d ",
". < ..f 0 % | =X0.3.k 4.>X>X5.| 4 2 2 2 2 ; y qX=XJ L 9.rXHXuXVXLXAXxXyXuXbXLXPXbXZXmX9X| X...[ i < a h f h h h h h h f f f f f ",
"$ & | & 0 j < % 2.g.g.3.| t.h.3.4 K K L y 2 W d.rXrX=Xq.U =XbX0XcXLXPXJXJXPXHXuX1XqX=Xp.s h s i p f f f f h h h h h f f h h s f ",
"% Q ..* X i < . Q 1.5.3.h & < 4.L w.-.! L K U ~ hXDXSX=XrXrX5XE.E.!.1XuXVX-X!.w.U U y 1 k 3.a.p.=.k k k k k k Q k k k 3.a.a.1.V ",
"6 `.s.* h s.*   Q s.5.+ j 3.Q 0.! VXcXyX=X-.:.! ~ CXhXrXCX6XgXhX5X^.E.E.:.=XtXrX! J 2 =.i.=X8XwX8X;X%X%X=X=X=X%Xa.i.$X=X;XwX<Xh.",
"7 ,Xh.@ q | % . 1.p.k . & i i d.>.VXVXZXZXZX9X1X-.! E.6X,X6XrX>.5XSXCXkXK rXd.hX>.J L $X$X;XzXnXmXzXzXnXzXnXzXwXzXwXwXzXwXxXcXiX",
"z '.,X$ < Q + * t.s.i   i 5.k w.q.SXAXVXbXZXcXyXHXg.!.>.2 W 0.u 0.,X>X].~ tX9.SX>.Z $X&X$X;XvXNXBXNXBXFXBXBXNXzXnXNXvXnXnXnXZXZX",
"@.2.8.< < 1.+ q 0.5.k $ k 0.h 7.>.5XbXAXAXAXSXyXbXHXeXVXuX=Xa.-.=.u J ! >.tXSXhXI J :X&X$X%XvXnXBXFXFXKXKXFXBXNXNXGXNXnXnXnXZXFX",
"G.Q Q h . q + h 5.5.5.5.5.5.i w.I ! ! !.1XtXAXSXiXLXLXyXLXPXLXPXHXAXuX!.9.0XHXuX1XwXzX;X$X;XvXnXNXnXBXKXKXGXBXBXFXKXGXFXBXnXmXZX",
"u.4 2.i X i $ 1.5.s.g.p.3.1.* w.U W W ! ! U >.E.!.<XSXLXiXHXAXVXLXZXcXcXAXLXLXLXPXPXzX;X&XzXnXNXnXnXBXKXKXKXKXGXKXKXKXKXGXNXvXcX",
"3.2 t.h q Q . Q s.g.Q $ + $ * w.P K K J L U ! :.^ :.>.-XrXtXSXSXVXPXIXPXIXPXPXLXPXJXzX;X;XzXvXnXnXnXBXKXKXKXKXKXKXKXKXKXGXBXxXxX",
"1 A d.| k |   h s.5.o o & i 0 T.P K K K J P I P P I J ^ I.E.q.^.1X<XhXPXIXPXIXPXUXFX;X;X=XwXwXxXxXxXmXBXBXBXBXBXFXBXBXBXMXnX1X0X",
"; ~.'.| 1.1.  k s.1.o $ 1.| * w.L ! ! ! ! J J J J ^ I J ;.;.I.<.,.<.:.I.^.-X^.^.^.^.^.~.T.Q.,X5X5XqXqXqXqXqXqXuXrX5X5XqXqX5X~.`.",
"0.eX>X| Q 3.. 1.h.1.. * t.| + R a.d.-.! ! U ^ U :.;.,.J I ;.;.;.;.;.;.^ ,.,.U ,.,.L.P.P.P.P.P.Y.Y.Y.Y.Y.P.P.Y.Y.Y.P.P.P.Y.Y.P.P.",
"h.>X~.3.< i i 5.g.k   q 5.f & R 1XVXtX2X<X<X=Xa.q.<.:.>.J ,.^ ;.^ ^ ^ ^ ;.J J I P %.K.K.K.K.K.K.K.K.K.K.K.K.K.K.J.J.J.J.J.J.K.K.",
"d ..h.g.$ + $ 5.5.i @ i | < h ~ 2XeX2X9X<XeXeXbXeXiX0X1Xd.>.<.U :.! I ;.J 2 J P J ` K.J.J.J.J.J.J.J.J.J.J.J.J.J.J.J.] ] ] J.J.J.",
", ; p.g.i . k 3.k o . q k & h ~ >X>X%X>X*X>X>X9X2X9XyXeXeX>X2X~.w.a.q.K u U J L L %.' ' ' ' ' ' ' ' ' ' ' ' ' ' ' ' ' ' ' ' ' ' ",
"# # 1.g.3.* k 1.k *     +   i ~ W 3.5.s.g.5.g.h.2Xh.2X<X>Xh.>X2X2X2X>Xg.g.p.9.~ ! } ) ) ) ) ) ) ) ) ) ) ) ) ) ) ) ) ) ) ) ) ) ) ",
". . < 5.3.i i k k i X   X   + 3 , , , , u @ 1 a 2.3.3.g.h.s.s.h.s.s.s.h.h.h.h.h.h.8.S S S S S S S S S S S S S S S S S S S S S ) ",
". #   . t i $ i k i i & . .   # # # # . , # . # # 3 # , a d i 3.5.5.5.p.5.5.5.5.s.T 8 9 9 9 9 9 9 9 9 9 9 9 9 9 9 9 9 9 9 9 8 f.",
"+ .     . .     + * * * & o . . . . .     #       # # . # # . # 1 t i i k k k 1.=.: : : : : : : : : : : : : : : : : : : : : : 5 ",
".                                                               . . .   . # + & & O O O O O O O O O O O O O O O O O O O O O O O ",
"o $ + o o o X X X o X X X X o o o + o o + o o o o o o o o o o o o o o o + + o + + $ + + + + + + + + + + + + + + + + + + + + + + "
};
