/* XPM */
static char *_bf5cf8fb51644cbda8af208f0757614ix5bKicBjnbTKiQn[] = {
/* columns rows colors chars-per-pixel */
"64 64 253 2 ",
"   c #020403",
".  c #0A0504",
"X  c #040A05",
"o  c #0B0C05",
"O  c #040509",
"+  c #0A060A",
"@  c #040B0B",
"#  c #0B0C0C",
"$  c #120D0C",
"%  c #160B03",
"&  c #0D1205",
"*  c #06120D",
"=  c #0C130D",
"-  c #0C190E",
";  c #031407",
":  c #141206",
">  c #12130D",
",  c #1A140C",
"<  c #131B0E",
"1  c #1B160B",
"2  c #050D12",
"3  c #0B0D12",
"4  c #050C1A",
"5  c #060814",
"6  c #120E11",
"7  c #100D18",
"8  c #041213",
"9  c #0C1313",
"0  c #051914",
"q  c #0D1A13",
"w  c #051319",
"e  c #0D1419",
"r  c #0C1B1B",
"t  c #041A19",
"y  c #131413",
"u  c #1A1614",
"i  c #141A14",
"p  c #1B1B15",
"a  c #13151A",
"s  c #141B1C",
"d  c #1B1C1B",
"f  c #19161A",
"g  c #231A0D",
"h  c #26160B",
"j  c #231C13",
"k  c #211D1B",
"l  c #251912",
"z  c #2E150A",
"x  c #092119",
"c  c #132016",
"v  c #15221C",
"b  c #1C221C",
"n  c #192519",
"m  c #04230E",
"M  c #29250E",
"N  c #232215",
"B  c #23231C",
"V  c #2A241A",
"C  c #2B2A1D",
"Z  c #2A2717",
"A  c #342819",
"S  c #2F3C16",
"D  c #161D22",
"F  c #1B1E22",
"G  c #131824",
"H  c #0B1227",
"J  c #0E2625",
"K  c #142222",
"L  c #1C2324",
"P  c #1C2924",
"I  c #1D2429",
"U  c #1D2B2B",
"Y  c #142829",
"T  c #0C3528",
"R  c #1A3328",
"E  c #163837",
"W  c #1B2339",
"Q  c #232423",
"!  c #2B2622",
"~  c #252A25",
"^  c #2A2B23",
"/  c #23252A",
"(  c #232A2C",
")  c #2B2D2B",
"_  c #332E22",
"`  c #3A2C25",
"'  c #2D322C",
"]  c #24372B",
"[  c #313125",
"{  c #33342B",
"}  c #393729",
"|  c #252D31",
" . c #2A2D32",
".. c #2B3333",
"X. c #293936",
"o. c #333433",
"O. c #353B34",
"+. c #3D3D32",
"@. c #3A3C3C",
"#. c #363839",
"$. c #342E30",
"%. c #422B1E",
"&. c #67391E",
"*. c #463729",
"=. c #463C33",
"-. c #54382B",
";. c #623E32",
":. c #244419",
">. c #15442A",
",. c #194A37",
"<. c #254538",
"1. c #3A413A",
"2. c #2B4A30",
"3. c #48463B",
"4. c #574539",
"5. c #54432F",
"6. c #684939",
"7. c #6E4E39",
"8. c #383D42",
"9. c #2D344C",
"0. c #413E47",
"q. c #1F4B49",
"w. c #274C44",
"e. c #334442",
"r. c #3B4D4A",
"t. c #394845",
"y. c #3B554A",
"u. c #395555",
"i. c #2B564D",
"p. c #38685B",
"a. c #23604C",
"s. c #3E6E68",
"d. c #434443",
"f. c #434B43",
"g. c #484A49",
"h. c #5A4B43",
"j. c #564D48",
"k. c #49554C",
"l. c #53544A",
"z. c #484D51",
"x. c #485856",
"c. c #515454",
"v. c #545A5A",
"b. c #575A58",
"n. c #514E55",
"m. c #654A47",
"M. c #655547",
"N. c #785746",
"B. c #665C57",
"V. c #765B56",
"C. c #784D4A",
"Z. c #4B635C",
"A. c #57635A",
"S. c #516F59",
"D. c #62635C",
"F. c #69685B",
"G. c #78645B",
"H. c #757F4A",
"J. c #4B5363",
"K. c #605B62",
"L. c #486864",
"P. c #586766",
"I. c #577873",
"U. c #4D766B",
"Y. c #636C64",
"T. c #646B6D",
"R. c #676968",
"E. c #736969",
"W. c #747668",
"Q. c #696D71",
"!. c #687874",
"~. c #777878",
"^. c #69726E",
"/. c #865B4B",
"(. c #876859",
"). c #986F57",
"_. c #866965",
"`. c #887467",
"'. c #977564",
"]. c #977A74",
"[. c #867D78",
"{. c #A47561",
"}. c #55827B",
"|. c #5B957C",
" X c #62867B",
".X c #78827A",
"XX c #86867B",
"oX c #988271",
"OX c #A58977",
"+X c #B28C74",
"@X c #AD866F",
"#X c #A3B371",
"$X c #9DB174",
"%X c #C2957E",
"&X c #7B7C81",
"*X c #698C85",
"=X c #7B8786",
"-X c #679487",
";X c #7C9590",
":X c #75958D",
">X c #6DA58E",
",X c #5E9182",
"<X c #898C8D",
"1X c #848887",
"2X c #899289",
"3X c #98938A",
"4X c #898D92",
"5X c #889495",
"6X c #9B9C9C",
"7X c #939897",
"8X c #928C8E",
"9X c #B49887",
"0X c #A5988D",
"qX c #9BA29E",
"wX c #89A796",
"eX c #A4A995",
"rX c #9B9EA2",
"tX c #87A9A3",
"yX c #99A6A6",
"uX c #88B6A7",
"iX c #98B2A9",
"pX c #98ADB9",
"aX c #A5A8A7",
"sX c #A7B6AD",
"dX c #B3ABB3",
"fX c #ABB6B4",
"gX c #B6B8B8",
"hX c #B2ACAC",
"jX c #A59EA5",
"kX c #C99F85",
"lX c #CAA999",
"zX c #C7B6B1",
"xX c #E5BAB1",
"cX c #92C8B9",
"vX c #A8C2BC",
"bX c #B9C5BE",
"nX c #C7C1B3",
"mX c #B7BEC5",
"MX c #A7BFC9",
"NX c #B6C4C6",
"BX c #BBD3CD",
"VX c #ABCAC8",
"CX c #C6CBC8",
"ZX c #C8D1CA",
"AX c #C8D8D7",
"SX c #D4D9D8",
"DX c #D0D0CD",
"FX c #DBF6F2",
"GX c #D4E9E7",
"HX c #E6EBE9",
"JX c #E8FBFA",
"KX c #E9F3F4",
"LX c #DFE8DD",
/* pixels */
"> > y u d p y = y # # # # # # O # o o o o X y d d F y #     # + p : y # # y O a 5 +   # * * * ; * * * q s s q 9 9 8 2 2 3 9 3 3 ",
"o > u u y > y y y # O # # # # # o o X   o 9 a d f f # O O # # # p u > y f y a   O 3 a O   = ; q * * * * * * @ @ @ @ @ O O @ @ @ ",
"o > u u y # = y 9 # X X O # 3 9 p p y = > f d f 3 #     # # # # X   u u = d ~ F d F 3 O ..2Xk.X * 9 9 * 9 9 9 8 @ 2 2 # @ @ 9 a ",
"$ $ y y y > = = y * O O @ # 9 y d d i y 9 y y # O     O # # # y b R.B f b = y # y y 9 O ^.x.X.* # 9 9 9 d L L s 8 8 9 9 9 9 f F ",
"$ $ y y y 9 9 y 9 9 # # # # 9 y y y y y y # # 3 3 O @ @ 9 3 3 ) aXgX^.1Xd.y o > l.6Xt.9 1.U *   @ @ 8 a L ( L e 2 9 9 9 y y a a ",
"+ 6 y y # X # y 9 # # * # # # # y u b Q d y 3 a a 3 3 O 3 2 9 t.<Xb.d.1Xb.d.  g.aXqXg.1.A.X.X.@ @ O 3 s / ( L a a e a s F F f y ",
"# $ y # O   O # # # # * @ @ @ # y f Q Q f y 9 9 9 @ 2 O # @ e z.fXQ.Q ~.D.D.+.^ g.O.O.!.k.r.e.r 2 2 3 a F F F F F F F Q ) / d y ",
"6 # # O         @ @ # * @ @ @ # 9 d Q d f a a y 3 O 2 @ 8 2 9 z.mX~.@ c.f.C o C f.1.A.x.r.x.r.Y w 2 2 3 9 9 e D s s d L ~ Q y # ",
"y y y y # O   O * @ * 9 9 9 # # = y y y f F f @ O O 2 @ @ 2 8.T.NXT.# ~ g.o B +.O.1.k.t.e.x.r.8 8 3 3 3 a D F s F L ( ( F y y a ",
"6 y f d y # X O @ X X @ * # O X O # # # 9 a 9 O O   @ @ @ 8 z.4XCXe.L b.@.D.{ 3.A.P X.r.r.x.X.w s e 9 a D L L L / ( ( L a y y y ",
"# y f f y O X O @ X X = = = # # y f f f d L L f #   3 9 9 8 z.7XBXK | R.d.D.{ k.Y.] ] r.r.x.U 2 e 3 e s D D D L I ( L y # 3 y 3 ",
"y y 9 # O   X @ @ X = i d d u y d k Q d L ~ ~ Q 9 @ 9 9 e 8 n.yXNXe.U ~.b.^ b O.Y.r.R e.Z.r.U @ 3 e s F D a s L ( I s 3 3 y a 3 ",
"> # o O     X = X X = p B b p u d b d d d Q Q b y # #   3 9 K.gXAXZ.P 7Xo.o # v 2XP.x e.;Xe.| r s F ( | I s r D U D e 9 e a e 3 ",
"# X   O X X X o X # > u p p > > d d f u d B B d f > #   # 3 v.gXBXJ x.CXo.y # ..CX;X0 y.iXP.X.D L ( ..) K e e r r 8 @ 2 3 3 3 e ",
"o O O # = = = o = > y u > & o o > = = # > y u u d y y # 3 O n.mXiX; !.5X .y ..&XZX=XJ P.yX5X| D I ( ( D 9 9 t e t e e 3 3 w s G ",
"# # # > u p i > > > > > o     .   X # o o = y u d $ # # #   b.SXe.* P.g.o.F  .T.yXx.x !.5XyXs L ( ( L 9 8 r D D ( ..| F e s F F ",
"O X # > p d , $ > y 6 $ # O o # > = # = y p d d f # # y 9   g.aXv * x.v.z.t.7 t.I.w.T *X4X&Xa F P a 2 @ 2 2 G I |  .( D a a a a ",
"9 # X = > , , > u 6 $ # + O 9 y f u f f d B b f = # # 9 a 3 z.rXX.v k.P.!.P./  .x.E I.!.T.aX/ D s 9 2 2 2 5 e F | ( L s a s s a ",
"3 O     o > > > $ # + O O # y d b d d d Q Q d y @ # # * 9 @ z.yXx.0 t.gX5X~.@./ r.X.iXP.T.4X8.e q q 9 9 8 2 e K I L d q a s a 3 ",
"@       o # > > 6 # O O O # y d d i i i b P d * # @ @ 9 9   P.CXP.  ..NX~.v.o.t.f.O.sXP.T.P.X.w q q q r 9 8 9 a a q 9 9 e e 8 2 ",
"@ @ O @ # = > > $ # + # 3 9 9 q i q 9 9 d v i * * * * * i @ ^.SX~.r ..P.c.) ) b.g.g.XXb.r.=XJ w 0 * 9 9 9 0 * = * * * 9 t w 4 4 ",
"@ @ # * # # # # # # + # 3 # @ @ 9 8 # @ 9 q = ; * q = * s # T.gX5X....g.d.^ Q l.B.G.j.B.f.5XJ t r 0 * 0 9 q q - - - q q 8 2 4 4 ",
"O @ # @ O X X O # @ O 3 2 # @ X * # # @ @ # * @ * i = * d   A.aX7Xd.( Q.3.^ i +.`._.m.B.v.;XY w r 0 8 0 0 r q - q - q 9 2 5 4 H ",
"O @ # @ X X @ 9 9 3 @ 3 8 9 * # * 9 9 # @ * * * X = = = v   Y.gX6XR.o.Q.g.B < g.].V._.m.f.wXt w 8 8 8 8 8 9 * X ; X @ 8 5 4 H W ",
"3 3 # O X @ @ @ 2 2 2 2 # # * * # @ O @ # 9 9 = = y = i # y y gXgXaXz.R.B.Q n j._.].C.V.k.;Xr r 8 2 2 8 8 8 9 i X     2 4 G 9.J.",
"O O O X X @ @ @ 2 2 2 2 2 * * * # # # # # = = = = y > > > p # ~.gXdX~.#.o.3.~ XX_.(._._.Y.=Xr 2 8 w w w t s s q # X X O 4 W 9.J.",
"# # # # = 9 9 9 a e 8 8 9 9 9 = O # y y = * = = y y > > p k $ $.dX8XSXT.@ f.i ZXzXV.G.V.Y.7XL 8 2 w w 2 e F d 9 O X X @ 5 4 9.J.",
"+ > y y i i v L L s e 9 a y 9 # O # y y = * = = i > > > p k p 6 K.CXKX=Xs 0 0 sXLXB.[.j.W.6X9 # 8 8 2 2 e D s 3 # # O 3 5 O 4 9.",
"o > , > > i b Q L s 9 9 a 9 # X # # = 9 9 - q q = = y p d p k $ # <XJXr.Y x K bXCXX.b.+.3X1X9 9 a 2 @ 3 a a a y # y # O 3 3 5 4 ",
"% , p , p p b Q s e 3 9 y 3 # # = # # * - q q q q c b ~ B y d y 3 =XNXr.8 E R tXiX] v v.6X~.9 P a # O # 9 3 3 y > # + o 3 3 5 5 ",
"g g j j N B b f a 8 3 e 9 3 # y 9 9 * 9 q q q - q n b ~ B y y y a 5XyXt q.E L.*XtXp.<.iXgX[.X v 9 # O # # # 6 y $   + $ #   O 3 ",
"u u p N C B p o 3 3 3 3 3 + # y 9 9 9 q q q q - - b i d f y + y ..5XNXx.Y E L.VXcXs.}.vXSXaX! d > 9 9 # # $ y y . o $ +   # 9   ",
"9 y b B N , : o > # # + 3 # # * * - - q 9 9 9 9 i i v i d f f u R.yXaXrXF K X.}.s.q.u.VXCXDX].z $ y y y f u k   + + . + # O @ @ ",
"s D b Q C N j j , $ # # y y 9 = q q i i i > y 9 f y d f d d u =.l.1XzXg.y ( <.I.}.U.s.pXaXzXxXC.. + y > u > > + + + + + O O @ @ ",
"s s d B B C V V $ + + # 9 i q = q q q i = = = > = o y d j k k F.F.F.b.B ^ O.y.S.,X-X}.tXqX0XlX9Xh % p > i +   $ + + + + # O # @ ",
"9 9 y d B C V N $ o # # * 9 q - q - q q > > > > > : b B j l ` F.W.eX2X~.D.XXsX:X>XuX-X*X.X[.+XxXM.j V p > #   # # $ # # # # # # ",
"9 y i B ^ ^ B p $ > = = * q q q q q i i p p d d B C _ V j h h.h.3.1.[ C B n ] m >.-X Xy.~ A @XkX`.g V j   O # 3 3 6 6 3 # # # # ",
"f f d C ^ C N 1 & > y = = q q q q q i b B B B N ^ [ _ j g h G.=.o o o   %     ; X T U.!.Y.1 7.+X`.h l j     # 9 3 6 3 6 # # # o ",
"y u d B N p 1 : o = > = = q q q q q c b b d d C C [ V 1 g Z M.` . j j ! ! g : : & X Y t ) V -.).`.z h , . O # 3 3 3 3 3 $ $ # o ",
"y u p p : & o & o = - - q c q 0 0 r K P v i d C { } C j j A =.A h % V ` *.=.4.4.} q v ..o 1 ;.'.OX*.h : y > # @ 3 3 3 6 y > $ o ",
"! B d p = & > & o & = i c c c r t J Y K 9 9 y f B B C N C 1 *.4.A % % 4.].'.lX9XM.: Q B % A 7.'.OXA g , # = O @ O 3 a y $ > > > ",
"{ B p : # = y i = - < c c c r 0 t r r t 8 8 9 9 y i b p d > ` h.4.%.h -.V.N./.+X(.4.V p l *.7.(.OXA : 1 u y @     # 3 # # > > o ",
"[ p & o o o = i = - < i q q * * t 8 8 8 8 2 # @ * i P b f # d 4.5.6.A z 5.7.&.@X).(.4.% 1 4.N.@X9XA : , y # X   O O O   # > > # ",
"N : o = # # * - q i - - - - 0 0 8 * 8 q s 9 9 * q v b n y = > 3.4.6.%.*.'.+X).kX+XoX5.o N M.N.'.0X_ 1 > o   O O O O     O # > = ",
", o # y y 9 9 q c c i - - q q r 8 8 9 a a 9 9 9 q q * * # 9 = 3.V.4.*.*.5.7.&.{.%X7.g & C W.M.oXXXN p > X   # O O +     O # # = ",
"1 o o y 9 9 9 q i - - ; ; ; 8 9 @ @ @ # # O O @ @ * X * * * O Q j.h.E.l %.N.).@X'.N.V i b 2XG.`.3Xd u X     # O + + + + O O @ # ",
"& X o = 9 a s s q - - ; ; @ 2 9 9 * # # y y y # X * * q q # @ # g.E.~.$.M.G.{./.C.m.o.<XyX=X8X0XjXf i     X X O   + + + O   @ @ ",
"= # # a L ( ( P i c c i q q a f b b p b ^ { ^ d > f y d q @ 9 y E.jXc.~.j.l %.6.m.B.HXKXFX;Xv.7X6XX 9   X X   O     + + O       ",
"e s 3 F ..#.1.' i n P P v i d Q ^ C N g A *.} Z : > > y > # = y #.d.A.fXR.  j.W.D.CXHXKXFXVX5XfX=X  #             #   # 9   # O ",
"4 w 5 s ) ' o.~ = * * 9 d f f u p j Z Z A A M g % : , > + o y B > f.!.A.=X1.Y.t.!.7XZX=X XU.uXJXv.    X X         y O   # #   # ",
"2 8 a ~ ' ^ ~ b @ @ # 9 f d d k d j N _ } } A Z > > y y # O y ~ n t.<.P.v.z.<X!.qX.XsXP.L.,.p.-XP         X y   #   9   O # # # ",
"9 a P ' ) B i i * 9 s L Q Q Q ! Q k B ^ } =.+.+.B y # # # # y v R R Z.BX<Xc.1XT.NXsXAXBXBX|.a.<.;   y #   y     O #   # #   # O ",
"n i n n p : = i i y s L ~ Q k u u d B C ^ [ { O.d #     O # 9 v b = yXGXgX0.v.yXJXHXKXJXJXuX<.>.X O     Q.d c.b.~.# z.a X   #   ",
"< - < = & & o = = y d F d p , > y f d B ) { ' ^ y @ O @ 2 8 d ~ ~ ' sXCXaXv.T.AXGXGXJXFXJXuX>.<.X   + F 6XQ CX7XR.b.HX8.  y   O ",
"& & < < : > o # O y d b d p j V B y 9 P o.O.' ~ d 9 a / ) ( L P v R x.<.t.<.p.p.s.p.-X>XcX>X>.m   # O a 4X<X~.=XdX7X7X&XO   # X ",
"- & < & = i = = 9 9 y p B _ _ } Q y 9 b ) ~ ~ ) ( L / 8.g.@.P 9 c v w.<.<.y.T T i.a.i.p.a.a.,.0 X # #   a # O y F O # Q O X X X ",
"q & & = > > = # # # = i N Z A A ! y O y u d b b F ( )  .o.B # # X v.sXaXXX+.W.aXvXvXNXfX:Xw.<.X       O   9 Q.rX4Xd.#     # >   ",
"= * = = > = #   # O o : N Z M M d #   o > p B d d /  .o.) u o y # 1XDXZXhXXXnXSXSXHXKXKXFXU.8 8 X ) c.F o.=XaXv.Q.gXd.  ~ y   y ",
"9 * * 9 > y 9 O # X X : N C M M p d d p i b ~ ~ Q ~ ) o.) u > k d 7XbXgX3X0XhXDXLXJXJXJXBX<.t X   g.CX<X~.6Xo.O   Q.7X<XaXy X   ",
"9 * 9 9 y u v d # @ # > p N M N d ) @.O.B b ~ ) / F F Q Q d p B ) @.f.l.XXeXb.k.S. X:XvXtXR x X   D.1XgX~.aXQ     c.<Xv.hX~ O   ",
"9 9 9 y y d b v * * * = & & : 1 b ) O.O.b i d L F d a f f d k k d v n - A.A.R m T i.w.,.i.>.X X X B < +.' 3X~.f  .aXR.b.yX~ O   ",
"9 9 f i > i i < X @ # @   X # y B v P b i i d d a s F F f d k u o.7X2X.XD.Y.!.-XU.uXtXL.R :.S X   X o   X ^ aXaXdX~.y O # O   # ",
"= = f i : < i = X @ @ @ O @ y a F v d q i P ..| L D F / F f y # b.ZXaXZXaXgXgXNXVXGXJXGXS.:.$X.XS o     o =   #.Q O   O   # X O ",
"& = i < & < i q * @ @ @ @ 2 3 3 a v v q i ' t.e. .D G I F a #   ^.gXaXCXzXdXdXmXpXBXJXHXwX2.#X#XeXXX{ o &   #     O O # O X   # "
};
