/* XPM */
static char *e5a1eb44b2e74319cd8da54e50c6a0999ZwAyYiaHqRVOdK4[] = {
/* columns rows colors chars-per-pixel */
"64 64 256 2 ",
"   c #010403",
".  c #000B05",
"X  c #090907",
"o  c #150C07",
"O  c #051106",
"+  c #00140B",
"@  c #001B0D",
"#  c #17140A",
"$  c #040E13",
"%  c #001D13",
"&  c #071A18",
"*  c #1A1914",
"=  c #300E05",
"-  c #271808",
";  c #341A0A",
":  c #271B15",
">  c #00240E",
",  c #002414",
"<  c #002A15",
"1  c #08231C",
"2  c #002B1A",
"3  c #13251C",
"4  c #00371A",
"5  c #00331C",
"6  c #29250D",
"7  c #37250E",
"8  c #2B2518",
"9  c #382716",
"0  c #131E22",
"q  c #092523",
"w  c #062824",
"e  c #0C2B2A",
"r  c #162824",
"t  c #04352A",
"y  c #003B2B",
"u  c #173426",
"i  c #162B30",
"p  c #043833",
"a  c #1B3835",
"s  c #282A27",
"d  c #352923",
"f  c #25372A",
"g  c #373529",
"h  c #253937",
"j  c #393D35",
"k  c #501606",
"l  c #462A18",
"z  c #512610",
"x  c #47331C",
"c  c #56361D",
"v  c #6B2A14",
"b  c #493725",
"n  c #573A25",
"m  c #4D3730",
"M  c #653A26",
"N  c #783925",
"B  c #004425",
"V  c #00452B",
"C  c #004C2B",
"Z  c #004332",
"A  c #004B34",
"S  c #0D4936",
"D  c #00443A",
"F  c #004D3C",
"G  c #005836",
"H  c #00533C",
"J  c #324734",
"K  c #00653B",
"L  c #31623D",
"P  c #4C472A",
"I  c #59452B",
"U  c #494536",
"Y  c #564737",
"T  c #684529",
"R  c #74462C",
"E  c #674835",
"W  c #784B35",
"Q  c #675734",
"!  c #6D5434",
"~  c #795539",
"^  c #014B42",
"/  c #194C4B",
"(  c #005343",
")  c #005A48",
"_  c #005C54",
"`  c #274748",
"'  c #2B5350",
"]  c #355758",
"[  c #006245",
"{  c #00644C",
"}  c #006B4A",
"|  c #00754C",
" . c #006456",
".. c #006C54",
"X. c #006C5B",
"o. c #007453",
"O. c #007C55",
"+. c #00745B",
"@. c #007B5C",
"#. c #345E61",
"$. c #016B63",
"%. c #166C68",
"&. c #007562",
"*. c #007C64",
"=. c #00756A",
"-. c #007D6B",
";. c #037770",
":. c #007C73",
">. c #386569",
",. c #326F6E",
"<. c #3D7475",
"1. c #4E5149",
"2. c #585647",
"3. c #685648",
"4. c #68574F",
"5. c #795942",
"6. c #546851",
"7. c #72664F",
"8. c #776758",
"9. c #4A6F72",
"0. c #487476",
"q. c #717469",
"w. c #8A3A27",
"e. c #8B5035",
"r. c #87573A",
"t. c #A05032",
"y. c #92643D",
"u. c #914E48",
"i. c #885945",
"p. c #975745",
"a. c #AC574A",
"s. c #876547",
"d. c #996749",
"f. c #95734E",
"g. c #876854",
"h. c #986A53",
"j. c #997757",
"k. c #A46848",
"l. c #A6724D",
"z. c #AF7054",
"x. c #A77958",
"c. c #B67B59",
"v. c #8E7667",
"b. c #A97C64",
"n. c #B07366",
"m. c #C7775B",
"M. c #C97766",
"N. c #00835D",
"B. c #008958",
"V. c #008265",
"C. c #008A64",
"Z. c #00846B",
"A. c #0C876D",
"S. c #008B6D",
"D. c #00956B",
"F. c #008573",
"G. c #008C74",
"H. c #00847C",
"J. c #008C7A",
"K. c #009374",
"L. c #00937A",
"P. c #009C7A",
"I. c #378274",
"U. c #00A16F",
"Y. c #00A37A",
"T. c #468D70",
"R. c #728A76",
"E. c #AC825A",
"W. c #B8845B",
"Q. c #AF8D6E",
"!. c #B78767",
"~. c #A48E73",
"^. c #B98B76",
"/. c #BA9578",
"(. c #C4845D",
"). c #C38A63",
"_. c #C68A68",
"`. c #D28F6F",
"'. c #C8946C",
"]. c #C98C75",
"[. c #CB9776",
"{. c #D39A77",
"}. c #E18E7C",
"|. c #C6A279",
" X c #D3A37C",
".X c #D9A77C",
"XX c #5B7D88",
"oX c #008C83",
"OX c #008A86",
"+X c #009488",
"@X c #029693",
"#X c #129194",
"$X c #2D9796",
"%X c #00A692",
"&X c #31A59B",
"*X c #399EA1",
"=X c #498784",
"-X c #519595",
";X c #689294",
":X c #68A596",
">X c #509DA4",
",X c #6A97A2",
"<X c #779BA5",
"1X c #59A5AC",
"2X c #49B1A5",
"3X c #7BA6A9",
"4X c #72AFB3",
"5X c #7CC7C1",
"6X c #B59A89",
"7X c #98A19E",
"8X c #8AAAB1",
"9X c #8AA9B7",
"0X c #85B6B9",
"qX c #C99B85",
"wX c #D79B83",
"eX c #E79681",
"rX c #CAA588",
"tX c #D8A687",
"yX c #DBAC8B",
"uX c #D5B28E",
"iX c #CCAA96",
"pX c #D7AB94",
"aX c #DAB296",
"sX c #E6AD93",
"dX c #E4B598",
"fX c #CEB1A0",
"gX c #DABBA5",
"hX c #E7BCA4",
"jX c #F3B8A5",
"kX c #E0C4A6",
"lX c #E9C4A7",
"zX c #EFCAB0",
"xX c #8FB4C2",
"cX c #9AB5C5",
"vX c #A4BACB",
"bX c #A5BDD3",
"nX c #93C6CA",
"mX c #A7C3CC",
"MX c #AAC6D7",
"NX c #B5C7DA",
"BX c #B4CBDC",
"VX c #ADD3D1",
"CX c #B9D5DB",
"ZX c #B9CEE1",
"AX c #BDD3E4",
"SX c #BCE3E3",
"DX c #C5D3DD",
"FX c #C3D4E4",
"GX c #C6D9E7",
"HX c #CCDDEB",
"JX c #D1DFEF",
"KX c #CEE6EE",
"LX c #D3E2EE",
"PX c #D8E8EE",
"IX c #D7E7F2",
"UX c #E4EFF6",
/* pixels */
" .X.&.-.-.-.-.&.$. ._ ^ D p p p p p p p e e e e e e q q q q q q r r j 1.2.U Y 4.3.4.3.Y 4.U r 1 1 3 3 3 3 r r r e r u u f f f f ",
"X.X.&.-.F.F.:.-.=.$. ._ ^ D p p t e e p e e e e w q q q q q q q g 3.3.m m : 8 g m 8 : b g 3.1.r & & & 3 3 3 r r e u u u f f f f ",
"X.&.-.F.J.J.F.F.-.=.$. .) ^ p p p e e e e e e q q q q q q q q r U I g 8 8 8 # X # o : U d : 8.8.j s 3 3 3 3 3 r r u u u f f f f ",
"&.&.-.F.J.oXJ.J.F.:.=.X._ ( ^ p p t e e w w q q q q q q q q q s b m - o o * o     o d d 8 # 9 8.4.8.2.j & 3 3 3 e u u a a a a a ",
"*.*.V.G.J.+X+X+XJ.F.-.&.X._ ( F p p t w w q q q q q q q q q q f b - o o   X o X X : : o o o : d 8 b Y 4.U 3 3 3 e u u a a a a a ",
"*.-.V.G.J.+X+X+XL.J.F.-.&. .) ( D p p w q q q q q q q q q q q f U o X X X o o - - d 9 - o * : d d X : : Y j 3 3 2 e a a a a h a ",
"*.-.V.F.G.J.L.L.+XJ.G.-.&.X. .) ^ D p e q q w q q w q q q q q f Y - - ! j.x.x.x.i.E l ; - o o o o X   * 8 8.U 3 q i a a a ` a a ",
"*.*.*.V.Z.G.J.L.L.L.J.F.-.&.X.{ ( D p t w q w & w 1 1 q q e w j m 7 x. X.X X X.X`.d.N M M M 7 o X X X * : 3.Y j q e p a / ` ` ` ",
"*.*.*.*.Z.Z.G.G.G.L.L.G.S.*.+...) ^ D p e 1 g 2.f 4.1.& e q s b.qX/.yXyXtX.X.X.X.X_.k.e.k.c.z.r.9 # * o : Y b 4.s e p S / ' ' ` ",
"*.*.V.V.Z.S.S.G.G.L.G.L.G.Z.*.+. .) ^ p w 2.qXsXpXdXaX8.r s ~.dXyXaXpXyXyXyX.X.X.X{.).c.W.).`.!.T d # o 8 d m 2.1.w a / / ' ] ] ",
"*.*.V.V.Z.S.S.S.K.L.L.L.L.S.V.@...{ ( D 6.dX{.`.tXyXtXhX~.^.dXtXwXdXdXaXyXpXaXyX X X[._.).(._.!.5.d X X X 8 d g m ` / ' #.>.>.>.",
"@.*.V.V.Z.S.S.K.L.L.L.K.K.K.S.V.+...( q.dXyXyXtXwX_.wXn.tXjXn.e.z e.!.hXhXuXiXhXaX/.^.[.).W.!.!.5.d : X   X * * 8 1./ #.>.<.9.<.",
"+.*.*.V.Z.S.S.K.L.K.L.K.K.L.G.Z.*...q.hXdX].p.p.z.wX].^.pX].v k z W z qXaXgXaXpXaXiXj.~ E.].!.x.d.m d * X X o * s ' #.>.<.<.<.0.",
"+.@.*.V.Z.S.G.K.L.L.K.K.K.K.K.S.*.R.hXyXn.N k = = n.M.z.}.t.k k m g.g.v d.rXkXgXaXuXiXv.~ 6XfX^.c.5.b 8 * * * # * ] #.<.<.0.0.0.",
"..+.*.*.Z.S.S.K.K.K.K.K.K.K.K.C.R.hXsXz.N k k k = k M k a.k k T g.~ d.d.k r.aXaXpXrX[.tXqXb.fXiX^.g.m m d 8 s # * ' >.<.<.0.0.9.",
"+...+.*.V.S.S.G.L.K.K.K.L.D.L.7XzXpXc.e.v k k k w.W p e 9 z z b.i.T e.tXi.k x.qXrXpX[.].wXyXpXgXiXv.3.2.1.U g * # i >.<.0.0.0.9.",
"&...+.@.*.Z.S.G.K.K.K.P.G.-XkXzXaX!.N v v k k v p.2.p p t w 3 g.l E n.dX!.d.E.].wXtXtXqXwXwXtXaXzX6Xv.5.g.3.b * X h >.<.0.0.9.9.",
"=.X...+.*.V.Z.S.K.K.K.D.:XzXzXgX^.W v z k z N w.g.^ D p p t 3 E.x.^.tXtX_.aXlX|.W._.`.{._.].tXdXtXtX/.x.!.!.p.E # ' >.9.0.0.0.9.",
"=.&.X.o.&.*.V.S.S.K.G.T.zXlXaXqXx.r.R z R x.[.].R.( H D p p 3 rXuXhXlXqXhXzXzXzX/.y.y.r.z.].wXsXsX{.wXqXc.t.w.a.g ] ] >.9.9.9.#.",
"-.&.+.X.+.*.*.Z.S.S.K.kXlXgXuXQ.~ y.j.!.qXwXsXhX,._ ( ( D p 3 aXlXlXrXaXlXgXaXlXyXr.x l M !.dXsXdXsXwXwX_.e.wXM.8.` ' ] >.>.] ` ",
"-.=.&.X.+.+.*.*.V.V.gXzXlXsXc.~ r.d.rXrXpXpXsXhXR.{ ) F F p f lXlXhXhXlXuX/.6X/.j.! c n ~ s.rXdXhXaXtXwX{.wXyX}.g.` ` ' ] ] ` a ",
":.=.=.&...+.+.@.A.fXlXdX{.c.l.f.e./.pXaXfXiXpXpXaXrX6XR./ Z f dXjXhXqXj.5.s.f.5.E x 9 I R s.x.yXlXhXaXtX{.{.tXwX4.h ` ` ` ` h r ",
":.:.=.&.+.X.} T.lXzXsXz.d.d.s.T Q.iXiXqX/.Q.Q.].wXsXjXsXqX2.v.sXn.~ ~ h.b.n.x.i.E ~ b.Q.h.d.x.E.tXdXhXyXtX.X{.{.6Xq.` ` ` h r 0 ",
":.:.-.-.&...9.hXzXhX[.p.W c l ! j.Q.E.h.5.I J U Y 5.x.].}.M.eXd.~ i.M.a.u.u.u.u.i.h.W.'._.x.l.x.W.tXdXdXaXtX X`.`.tX6X1.h h r 0 ",
":.:.:.:.=.T.aXzXlXtXk.k.i.n b n c T I g H o.@.V.V.o.G J g.m.c.s.[.n.k z 3.3.z z c j.W.!.l.x.x.x.x.W. XyXsXaXtX X{.`.{./.v.f r * ",
"H.H.:.:.I.rXzXzXyXc.y.i.T n c 8 H [ { *.S.K.K.G.G.Z.V.+.) J 2.2.[.d.M n.h.h.u.p.z.^.).c.l.x.b.b.l.E.W. XtXyXaXyXwX{.`.(.[.~.U * ",
"H.H.H.I.rXuXzXsX!.r.r.R z z J +.G.G.K.G.G.G.G.G.G.Z.*.&...) D / |.rXrX^.h.i.i.p.h.d.!.z.l.d.h.h.x.x.E.'..XtXyXaXyXtX X`.(.).qX4.",
"OXOX=XrXdXlXaX[.k.r.W c z J V.Z.Z.Z.G.G.G.G.G.G.G.G.V.*...) ^ F /.aXrXj.W i.h.r.r.i.z.d.d.y.r.d.h.d.f.E.[.tXyXyXyXyXtX{._.(.c.pX",
"#X;XuXjXlXsX{.c.r.r.T l J +.V.V.Z.S.S.G.G.G.G.G.G.G.Z.*.+.{ ( D ~.[.[.^.n.x.i.W M W W r.~ ~ T W ~ r.l.x.!. XtXtXyXaXyXtX[.).m.c.",
";XiXlXlXdX{.W.d.W T l g &.*.*.V.Z.Z.S.G.G.G.G.G.G.G.Z.V.+. .) D 6.Q.!.[.^.h.M l l ; ; c c n n c T r.W.!.E.[. X.XtXyXyXyX X_.).m.",
"iXlXlXdX.X).k.r.R n x { *.*.*.V.Z.Z.Z.G.G.G.G.G.G.G.G.Z.*.X. .F S 7.h.h.s.n 9 : o o o - 7 7 c T R k.W._.E.E. X.X{.tXtXtXtX[._.W.",
"hXlXdXyX[.l.r.R T n ' *.*.*.*.V.V.Z.Z.G.G.G.J.G.G.G.G.Z.-.+. .) D f b x 9 8 o X X o # - 9 x T W r.k.c.].8.Q !.{.{.{.[.{. X{.`._.",
"zXlXyX{.W.r.R T c 2.*.&.*.*.V.V.V.Z.Z.G.G.G.G.G.J.G.G.G.-.&. .) F y s # # O # # # # - 6 l I W r.d.k.c.^.8.& 5.'.[.[.[.'.[.{.{.[.",
"lXdX{.).l.W T n Y F.-.*.*.*.*.V.Z.F.G.G.G.G.G.J.J.L.G.G.Z.*.X.) ^ y 8.I # # * * * - - - 9 n W s.d.y.c.!.q.1 s x.).[.[.[.'.'.'.[.",
"yX.X'.c.d.T T n 0.oXF.*.*.*.V.V.F.G.G.G.G.G.G.G.G.G.L.G.Z.*.X.{ ( Z g.!.Q 9 8 8 6 6 - - ; T ~ y.y.d.c.!.~.w w Q W.'.'.[.'.'.'.[.",
".X{.).l.r.T n 6.@XoXoXF.*.*.V.V.Z.F.G.G.G.G.G.J.G.G.J.G.Z.*.+.{ ( D 7. XE.y.I 7 7 6 - ; 7 c ~ ~ r.d.x.!.6X6.w 3 x.).).'._._.'._.",
"{.'.W.d.W T E -X@XoXOXF.-.*.*.Z.Z.Z.G.G.G.G.G.G.J.G.G.J.F.*.&. .( D 7. X[.'.!.x.s.c l 7 7 ; c W W d.f.x.^.8.i e g x.W.(.).)._.).",
"`.).x.r.T T q.$X+XOXOXH.V.*.*.V.V.Z.Z.F.G.G.G.G.J.G.G.J.Z.-.&.{ ( D 4. X X'.!.|./.s.~ I l 7 ; c R r.d.x.b . 0 s p 6.x.c.W.(.(.(.",
"_.W.d.W T 2.-X$X@X+X+XJ.F.*.-.V.V.V.Z.Z.S.G.G.G.G.J.G.G.G.V.&.X.) F 1.'.|.'.W./.f.~ s.5.~ b ; - n r.i.8     + F O.} L l.l.c.c.W.",
").z.r.M T q.1X>X$X@X+XoXF.-.-.-.V.V.V.Z.S.G.G.L.G.G.L.G.G.Z.*.X.+.N.A !.|. X).W.~ 5.s.f.s.T b 7 b b X   % V G | G B 4 P d.k.l.c.",
"c.y.T M E ;X1X>X>X$X+XoXF.-.*.V.K.P.Y.%XK.P.Z.o.| G.Z.S.G.G.*.V.} V   x.[.yX[.!.s.s.j.Q.f.T b 9 #   @ A [ C C B 5 2 % O 2.y.y.k.",
"k.W T T E <X1X1X>X-X#XoXF.-.Z.P.K N.O.N.[ [ G 4 K o.V C @.} | C.B 2   Q '.tX{.!.f.f.x.Q.5.9 #     w o.O.G 4 C 4 + . O < C P r.y.",
"e.R M T 2.0X1X1X1X>X$X>XL.2X&X| B C > G C C B 4 K K O C K < C B.C 2 X O Y g.g.5.E I 8 * X       y } O.N.O.o.H 5 .   . 5 y u x.e.",
"W M n n 7.7Xq.9.>.%.&.&X-.0XC C K B , G G V 4 B | K > B K 4 G y 2 4 % $     . X X X           Z o.N.C.@.O.V.H , + @ . 4 4 J uXj.",
"R n b b 9 ; l n - . @ V V B C 5 C C B G C 4 y C B.K @ > K | N.V , B G , + $ $ . $ $ % % % , A N.O.C.K.S.@.{ y @ @ y < B V J rX|.",
"T n x l ; = o = ;     + y 5 < 2 > C } K B 4 B K B.O., @ G B.D.O.2 < G } H H ( ) ..+.+.o.o.| O.O.o.V.V.+X@X%.%./  .A B C A f rX/.",
"M x x ; = = = = l 9     2 5 , @ > < O.} G 4 B } D.U.y , G D.D.C.H , H C.C.N.C.S.V.@.+.@.@.o.@.-.2XxXVXGXGXmX,X<XcX>XF G y a ~.Q.",
"l x 7 ; = = = l E ~ :   @ 5 < , < < o.4X:Xp B B.U.U.| , A C.C.N.o.t V ) O.V.S.K.K.K.S.V.oX0XnXAXIXLXLXGXBXcX<X<XvXZX3XC B D 8.j.",
"9 x 7 ; = ; b 5.s.5.g   . 2 2 < < , ;XDXDX;XZ | D.D.B.V 2 o.C.D.} H Z A [ o.N.C.S.C.V.@XHXLXLXJXHXHXFXCXmX9XvX9XMXNXDX&.V t 8 3.",
"9 9 7 ; ; b 5.s.i.~ m   . < 5 2 < , 9.NXDX0X,XoXL.P.%X2X=X) o.G.+...H ( { [ } o.N.N.F.GXLXLXIXHXHXFXBXvX9XbXbXcXAXDXDX3X( > , & ",
"7 7 ; ; 9 ! 5.5.~ ~ I X   2 2 5 , , ^ BXmXmXcXGXKXIXmXCXmX9XxXAXMX#X:.F +.O.} [ [ } MXvXcXnXnXnXmXMXBXBX] bXcXNXFXDXFXvX,.> w . ",
"7 7 l l n E E E E ! I X   2 < 5 % , 1 BXvXBXvXHXIXUX8X:X3XBXFXJXNXLXKX_ [ C.C.o.) 4XHXGXFXVX0X>X=.$.X._ w 9XcXHXLXFXNXcX0X@ @ 2 ",
"l l x b Y I P n I I P X   < , 5 @ , + vXMXBXMXHXGX3X-X=X-X9XGXFXNXIXJX3X_ &.J.&XMXLXJXLXLXLXLXHXBX0X=X( >.9XMXLXLXLXbXcXBX/   @ ",
"x x b I I I b b b b 9     % 2 2 @ % + 8XNXNXMXGX3X<.<X=X8XMXHXZXFXIXJXMXcXMXAXIXIXLXHXLXLXHXGXAXNXZXZXmXvXcXGXIXLXLXNXcXZX<X& . ",
"x x x x b b b b b 9 #     @ 2 , , % % <XNXBXMXmXXX8X8X3XmXFXHXNXHXJXJXAXbXAXLXIXLXHXHXHXHXFXFXNXNXMXvXMX9XNXLXJXIXUXNXvXBX8Xa   ",
"- 7 7 9 x b b b b 9 #     + 2 @ , + % 9XNXNXBX<X;X8X,.3XCXHXFXBXJXHXJXHXAXLXLXFXHXHXHXHXGXZXNXNXMXcXbX9XvXJXIXUXKX5X%.$.&.( +   ",
"J # - 7 7 9 9 9 x x *     . @ @ % + / 9XNXNXBX=X=X,.0.8XHXFXBXAXJXHXLXIXIXGXBXFXIXIXLXHXFXZXBXMXvXcXxX<XnXnX0X4XL.S.H Z { A + r ",
"4X0.J 8 - 6 7 7 7 7 X     . . + + . 0.cXMXZXFX,XI.=X8XFXGXFXBXGXHXHXHXHXFXBXBXCX5X2X$XOXoX:.:.=.$. .D ( -.V.@.V.K.K.H A } ( @ + ",
"4X4X4X;X9.j 6 6 6 o     . . . + . % XX-X$.@X1X4X-X3XJXHXFXAXBXJXFXFXAXMX3X$X+XS.C.@.{ ( H H A Z Z p D [ V.Z.N.D.Y.S.A A o.[ % O ",
"4X4X4X4X4X,X&                 . . a 9.D ( +.{ ( $X@X+X+XJ.=.H.nXxX=X;.$.( o.N.S.S...) H H H A ) <.;X8XmX5XZ.V.D.Y.V.Z H @.{ < + ",
"1X1X1X1X1X1X0.                  . ] ` y ) *.} @.t [ ..o.@.{ ) &.+.{ [ [ @.C.C.G.+.( A H H H =.3X8XvXCXPXUXL.D.Y.D.*.y H o.| y % ",
"*X*X*X>X1X>X1X`       . .         i & Z ) V...V.( V o.*.V.@...} ..+.@.N.N.G.%X%X:X,X-XH H  .<X9XcXBX4XnXUX4XD.Y.V.o.y H } o.H 2 ",
"@X+X@X$X*X>X$X$X%./ _ $.X.) ( y + + + y ) @.+.+.*.( { @.@.V.J.Z.J.F.-.L.2XCXGXSXCX;XmX .H $.8XcXNX-.+.2XUXVXD.P.N...t H } o.H t ",
"OXOX+X@X$X$X$X#X@XOXoXF.-.*.*.*.+.( + y { ..*...+XVX=XVXZ.2XUXVXVXCXPXGX4X4XUX3XmX0.mX-.H _ <XmXFX+.V.$XUXGXS.K.o...2 H { | ( y "
};
