/* XPM */
static char *pote1714003039[] = {
/* columns rows colors chars-per-pixel */
"64 64 254 2 ",
"   c #020403",
".  c #0A0505",
"X  c #040A05",
"o  c #0A0B05",
"O  c #030609",
"+  c #09070A",
"@  c #040B0B",
"#  c #0B0C0C",
"$  c #120D03",
"%  c #120D0C",
"&  c #1A0A03",
"*  c #0D1205",
"=  c #06110D",
"-  c #0C120D",
";  c #0C190D",
":  c #041407",
">  c #12130D",
",  c #1A140C",
"<  c #131C0E",
"1  c #1C1A0E",
"2  c #161205",
"3  c #050D12",
"4  c #0B0D12",
"5  c #060C19",
"6  c #120E12",
"7  c #100D18",
"8  c #051213",
"9  c #0C1313",
"0  c #061A14",
"q  c #0D1A13",
"w  c #041319",
"e  c #0D1419",
"r  c #0D1B1B",
"t  c #041A19",
"y  c #131413",
"u  c #1A1613",
"i  c #141A14",
"p  c #1B1B15",
"a  c #13151A",
"s  c #141B1B",
"d  c #1B1C1B",
"f  c #19171A",
"g  c #231B0D",
"h  c #27160B",
"j  c #231C13",
"k  c #211D1B",
"l  c #281912",
"z  c #2D1609",
"x  c #082118",
"c  c #132116",
"v  c #15221C",
"b  c #1C221D",
"n  c #19261A",
"m  c #08240B",
"M  c #2A260F",
"N  c #232215",
"B  c #2B2214",
"V  c #22231C",
"C  c #2A241A",
"Z  c #2B2A1D",
"A  c #27291A",
"S  c #352919",
"D  c #303C1A",
"F  c #161D21",
"G  c #1B1E22",
"H  c #141A26",
"J  c #0B1525",
"K  c #0E2526",
"L  c #142322",
"P  c #1C2224",
"I  c #1D2429",
"U  c #1A2927",
"Y  c #183227",
"T  c #143534",
"R  c #112E2E",
"E  c #222423",
"W  c #2A2622",
"Q  c #242A25",
"!  c #2B2B22",
"~  c #232629",
"^  c #232A2C",
"/  c #2A2C2B",
"(  c #29232F",
")  c #332D22",
"_  c #3C2E25",
"`  c #2D322C",
"'  c #24382B",
"]  c #313125",
"[  c #33342B",
"{  c #393728",
"}  c #252D31",
"|  c #292C34",
" . c #2B3333",
".. c #293835",
"X. c #333434",
"o. c #353A33",
"O. c #3D3D33",
"+. c #383A3B",
"@. c #332F30",
"#. c #211F2C",
"$. c #432A1D",
"%. c #62381F",
"&. c #473729",
"*. c #453D35",
"=. c #563D31",
"-. c #653C20",
";. c #184732",
":. c #23432B",
">. c #24423C",
",. c #284736",
"<. c #39423B",
"1. c #314C2E",
"2. c #284519",
"3. c #4A4538",
"4. c #574539",
"5. c #564833",
"6. c #664839",
"7. c #68523C",
"8. c #72543E",
"9. c #393C43",
"0. c #2D344A",
"q. c #433D47",
"w. c #1E4242",
"e. c #284C45",
"r. c #344443",
"t. c #3A4945",
"y. c #265747",
"u. c #3C5349",
"i. c #3C4953",
"p. c #375954",
"a. c #255350",
"s. c #38675B",
"d. c #266051",
"f. c #3F7166",
"g. c #444544",
"h. c #434C43",
"j. c #4B4B45",
"k. c #454A4B",
"l. c #584A44",
"z. c #49544A",
"x. c #57554A",
"c. c #484F53",
"v. c #4B5B55",
"b. c #475656",
"n. c #515354",
"m. c #555A5A",
"M. c #5C5D5C",
"N. c #555957",
"B. c #504F55",
"V. c #644A47",
"C. c #67544A",
"Z. c #745749",
"A. c #685C56",
"S. c #735B57",
"D. c #764F4B",
"F. c #49665C",
"G. c #58635A",
"H. c #4D6855",
"J. c #64645C",
"K. c #78655A",
"L. c #767149",
"P. c #5B5C64",
"I. c #445263",
"U. c #615C63",
"Y. c #466A67",
"T. c #5A6766",
"R. c #587568",
"E. c #4F7670",
"W. c #656C6D",
"Q. c #666A68",
"!. c #786966",
"~. c #767668",
"^. c #696D71",
"/. c #697774",
"(. c #777878",
"). c #687369",
"_. c #845B4D",
"`. c #86685A",
"'. c #93755E",
"]. c #976D53",
"[. c #866A66",
"{. c #897466",
"}. c #987765",
"|. c #887C74",
" X c #957A73",
".X c #A4755B",
"XX c #588478",
"oX c #5C9278",
"OX c #64857C",
"+X c #7A847B",
"@X c #6E937F",
"#X c #87877B",
"$X c #9A8576",
"%X c #9A826D",
"&X c #A68B76",
"*X c #AD8A73",
"=X c #A2AF73",
"-X c #9EAF78",
";X c #7C7C81",
":X c #698C85",
">X c #798987",
",X c #789691",
"<X c #6E978A",
"1X c #6EA28A",
"2X c #858888",
"3X c #879289",
"4X c #8B8D93",
"5X c #828E91",
"6X c #8A9595",
"7X c #969A9B",
"8X c #959A97",
"9X c #97948A",
"0X c #B29888",
"qX c #A3998D",
"wX c #9DA59E",
"eX c #8BAE99",
"rX c #A3A59B",
"tX c #ADAA90",
"yX c #979DA1",
"uX c #88A9A3",
"iX c #9AA6A6",
"pX c #94B2AE",
"aX c #A5A8A7",
"sX c #A8B5AD",
"dX c #ACACB4",
"fX c #A9B7B5",
"gX c #B5B7B8",
"hX c #B8AFAA",
"jX c #A89DA3",
"kX c #C79B82",
"lX c #C6AA9A",
"zX c #CDBAAF",
"xX c #94C6B7",
"cX c #AAC3BC",
"vX c #B8C2BB",
"bX c #C7C1B3",
"nX c #B8BEC5",
"mX c #A7BFC9",
"MX c #B7C4C6",
"NX c #B9D1CE",
"BX c #ACC9C8",
"VX c #C6CCC8",
"CX c #C8D3CB",
"ZX c #C8D7D7",
"AX c #D4D9D8",
"SX c #CFD1CD",
"DX c #DBF3E9",
"FX c #DBF3F2",
"GX c #D0E5E7",
"HX c #E5ECEB",
"JX c #EAFEFC",
"KX c #E6F8F8",
"LX c #EDF5F7",
"PX c #DFE8DD",
/* pixels */
"3 4 e 4 @ 3 8 e 8 q s s q 8 - = : = = = #   + + 7 O 6 @ # < > p + +     # y G k d 6 O . X o X - . + - # - + - u - y p d p u % > ",
"# + O O O @ @ @ @ @ = = = = = 9 0 : -   @ a 4 O O 7 a a y y p u % - O . + # f G d a y o . X o o X + # # + @ # > y y - u p u 6 o ",
"a 9 3 O 3 3 @ @ 8 e e = @ 8 9 =   z.3X..O # G f G E f - p p   . - # 3 + O O + 3 d G f - - u p p y # # #     # y 9 - # > u u > . ",
"G s 9 e 9 e 9 8 r P U v i 9 9 @ = ' v.W.@ y 6 a . a y d i V Q.V y # % 4 O   . O # y y 6 > i b p a 9 4 @ @ @ - y - > y u y u % % ",
"a a y y a 9 9 3 r P ^ I s 4 3 O O 8 U r.- t.7Xn.% o y g.2X).gXwX^ 4 9 9 O O O 4 4 # # y i u > y y # 8 # @ - 9 9 y 9 > 9 y 6 6 % ",
"y f G d s a e s r P ^ I s 4 O O 3 ....G.<.z.rXrXj.  3.M.2Xg.M.4Xt.9 4 3 O 3 4 a a 4 a d E d f u # @ @ @ = 3 @ 9 y # O + u y 6 + ",
"y d ~ ( ~ G F G G G G G 7 3 3 3 r r.u.z./.<.o.h.! <.J.J.(.E ^.dXc.9 O 3 O 3 O e 9 9 y f E G d y @ @ @ @ 8 @ 3 = - @   O # a % + ",
"+ a E ~ P d s s F e 4 9 7 3 3 e R t.b.u.v.G.1.3.A o A j.x.# (.nXc.e 8 8 @ @ O 8 y a a f k E d 9 9 @ X @ @ - @ =         . + % 6 ",
"a y 6 G ^ ^ P G s G F a 5 3 5 4 5 i.b.r.r.H.1.o.o.V * j.Q # ^.MXW.9.3 O O 3 O O @ a G f y f y 9 # - 9 9 9 @ = 8 @   @ # y y 6 a ",
"6 6 a a E ^ } ~ G G G F a 7 e a w ..b.u.u.' A v.3.] J.O.N.I r.VX5Xc.8 3 O @   @ @ 9 y y # % # . X X @ = : X X @ X @ # y d a y 6 ",
"4 a 4 # a G ^ I I F F F H 4 4 e 3 U b.i.u...' ).z.] J.g.W. .L NXyXc.4 9 4 4 O # d G E f f d f y # @ - - @ X X * @ X @ e f i y 6 ",
"4 6 a 3 4 F I ^ F s r F G F e 7 3 Y t.F.r.Y u.Q.o.d E M.(.^ t.BXiXB.9 e a 9 @ 9 E Q Q P d E d f i p d d i # X X @     X - 4 6 6 ",
"4 a a 7 9 e F I F r r I } ^ P s r } 9.>Xt.x T.5Xb + o X.7XU F.ZXnXP.7 # O + # y d E E d d d P V p p d V p - X X * X     . @ - > ",
"e 4 5 4 3 3 3 r r e e L }  .^ I L X.Y.iXp.t 5XNX` 4 a X.VXb.K NXnXm.3 +   # > p d V V d i p d d > u u p p > # o : X X . .   . + ",
"H a e 5 5 e r r e e 9 e L I ^ I F ^ ,XiXT.x ,XCX;X .4 / 6X/.: pXgXB.  4 3 6 u b u u i - # - > - $ o o > u > > - # * - - = .   X ",
"G G a e I | | I F s s 8 e P ^ ^ P e yX,X/.K v.yXW.( G +.u.T.: r.ZXP.O + + + # k u i > o # o . . . . . # > > % > > i p i > o # - ",
"a a 9 a s ^ | ^ #.J 5 3 3 3 s P P a ;X4X>XT w.E.k.7 9.c.I.n.0 L dXk.  9 y + - f d V p > - # - > # o . + 6 6 6 , % , p u > o X * ",
"a a s s s ~ ^ ^ G r 3 3 3 3 q s H #.jXW.;XE.e.I.( ( U.;XT.b.x ..yXk.3 e # # # - f b V b u u p f i # @ + + % 6 , 6 , , , - o @ 9 ",
"5 a s i s s G I F e 8 8 9 e 9 q e 0.4XW.R.pXT k./ 9.;X5XgXt.8 v.iXB.O e 4 # # @ y b Q b b i b b f y @ O O . % 6 , , % o     @ 9 ",
"+ 8 a e - 9 r s s e 8 e e r q e 5 ..W.W.T.sX..h.+. .m.(.nX..  T.VXP.  9 4 = o = : s P P i i i s s a 3 + O + # % 6 % % .     O @ ",
"5 3 9 e 9 = = : 9 = 8 8 - 8 = e w K >Xk.N.2Xg.j.N./ / n.P...t ;XAX/.@ q = : = = - i v v 9 8 q q i 9 9 4 @ + 3 6 > > > o X @ O @ ",
"w 5 3 8 q q ; ; ; ; q e 0 8 0 t w K 6Xk.A.l.K.A.x.E W g.i.} ..4XMXW.@ q @ q q @ = - q - = @ = 9 = @ @ 4 3 @ + # # # o # - = O @ ",
"J 5 3 3 q q i ; ; q x e 0 8 t r w K ,XF.S.V.!.{.<.< W g.^.^ q.yXaXT.X s @ = i = X = = @ @ @ 3 4 X X @ = 3 O @ 3 # X X @ @ 3 O O ",
"#.J 5 3 = X X : : = 9 8 3 8 w w w w 6Xk.C.[.S.|.3.< E j./.o.!.7XgXG.  b - * * : - = = @ @ - 9 3 = = 8 e 4 @ 4 9 - @ X X = @ 3 O ",
"I.0.R J 3     X q e 8 8 3 3 w 5 t t ,Xv.S.D. X[.j.n V Q.Q.k.dXgXgX, u # > - i * > 9 - @ @ . @ # 9 @ @ @ 3 9 3 3 @ @ = X @ # 9 3 ",
"I.0.#.5 O X X : i s s e w w w w 8 r >XJ.[.[.`.!.#XV <./ 0.(.dXgX(.o u y y > i 9 ; - - - 4 @ # + - = - 3 3 3 3 4 X @ o X . X @ . ",
"I.#.J 5 + O X @ 4 F F r 5 w w 3 0 v 8XJ.S.!.A.zXCXq h.@ W.AX4XdX@.% k u i > > < - - - 9 9 4 # @ # 9 e 9 4 9 e r 8 9 - - % # + + ",
"0.5 5 5 3 @ + @ 6 a G e 3 3 5 8 3 - 8X/.x.|.C.PXsXq t s ;XHXSXU.% j k u > > - y > - - - y a # + + 9 a e e e s P P b i i > u > # ",
"5 5 5 4 . + % 6 a y 7 a 5 + 8 s q 9 |.4X3.G.o.VXvXv x R i.JX4X3 % k f d p - ; - q ; - 9 9 9 # # X + 9 a e 9 a P Q b u > , , > $ ",
"5 5 3 # . . % > u 4 7 4 3 O @ s P y (.jXH.c :.pXuXR T w i.MX>X4 y d u V Q b c i ; q q ; * @ - - # # # a 7 4 e G Q b p 1 1 p , & ",
"5 O   . - . . % 6 6 % 4 3 @ # e v X |.hXpXy.F.uX>XI.T w.t pX6XF f 6 y E Q n n c ; q i q 9 = - 9 6 6 4 4 a 5 9 a i b V V j l g , ",
"  5 #   . o o . 6 u % 4 # 6 9 > p W aXPXcXR.Y.xXcXY.T R v.MX4XX.6 + u s v i n ; ; q q q q q 9 9 # + + 4 4 4 4 # o i V A V u u j ",
"@ @ @ + + . . .   k f f 6 y u & z 9XSXnXBXp.a.s.OX>.L F aXaXwX).u f f d a v i s ; 9 i 9 ; ; ; = = = # 4 + # 6 % $ % 1 N V b i 9 ",
"@ @ @ + . . . + . % > p % u % . D.zXlXdXpXf.E.XXE...~ a g.vX3Xx.*.u k d f d 9 i 9 > - i i q q q = q e 9 4 + % % j l N A V P F s ",
"= @ + + + + . . %   + p u f * l 0XlX9XyXuX;X1XoXR.u...Z k N.J.J.U.k k d p < # - > - > - i q ; q : q i 9 # + % $ V A Z A b d r s ",
"8 @ # 4 + 4 # 4 % . + > l k j V.zX*X(.:X:X:XpX1X@XsX#XG.~.9XsX~.J.$.l j A N > > > > > < ; q ; m q ; 9 - + + o % B V A A b 9 9 9 ",
"* # * # # 7 4 6 4 + . . j C l {.kX$XZ Q p.OX<X:.m D n A Z ] 1.3.l.l.h l C ) Z V j p p p i ; ; c q q q = # - > $ 1 A ) ! N i y e ",
"# # # 4 6 6 6 4 4 #     j l h `.*X7.2 J./.E.Y X * :   o   o . $ =.K.l g l ) ] ! V V b N n q c x x q q - - > > o , N Z Z A d i i ",
"o o > % 4 4 4 3 4 # . . , h z `.'.&.Z / 0 U X ; 2 2 g Z / l l . _ C.B h g C ] Z V N b b b v q q ; c q ; - < - o * < p N V p p u ",
"> % - y 6 6 4 3 @ @ - , 2 h &.&X'.5.& o ' s < { 3.4.*.&._ l & h l 5.S g j ! { ] A b u b P L r 0 q q x < q ; - o $ * * 2 i p i u ",
"* > > % a a 4   @ @ 4 o 2 l S &X}.6.S % b V & C.*XlX}. X4.& & S 5.&., Z N V V V f i 9 9 v U K t x x c c < ; * * * 2 * * , j N Q ",
"# > > # # 4 + O   O u u , h S $X`.8.&.1 1 A 4.{.*X_.`.K.=.& $.6.l.) > p p b i q 9 9 = 9 r t r t q q c x c ; ; ; i < - # > p V [ ",
"o > y +   O O O   X o < , 2 S 0X%X8.5.1 $ 4.`.'.*X-.6.5.z S 6.-.4.p % u b n i 8 @ @ 8 8 3 8 8 t = = q q ; < < ; < - # o o * p ] ",
"- > # .   O O O + @   o > 1 _ 0X'._.7.N o 4..X*XkX].*X}.$.$.6.5.3.> - i v P v q - 8 9 s t 8 = 8 8 0 q m < ; ; < - - o - > o % A ",
"9 - @ .   O + O + #     > u N $X%X7.~.Z * g 8.0X.X-.Z.5.&.&.=.S.3.3 9 @ - = q q e - 9 s s 9 8 8 t e ; ; ; < c c q - - y > # $ 1 ",
"@ @ O O + + + . X -     X i d 9X~.K.9Xb i B D..X.X].Z.&.z !.l.l.V @ 9 = = X = @ @ @ @ # @ @ @ : e - : : : ; < ; q e 8 9 y * * , ",
"@ @   O + . .   . X       i i rXwX#X>XyX4XX.V.D._.}.K.C.[ (.!.l.+ O @ q r = - X # y i > * # * 9 8 = @ : : ; ; q i s s e - o . * ",
"O   O O . . .   X     X   i X 8X8XG.>XFXLXHXS.V.V.$.l l.(.B.jX!.y 9 @ i c 9 i > p ! [ ) d p d b s i e q c c c c U U I G y - @ * ",
"O @   4 +   #             #   2XpX3XcXDXDXHXVXJ.~.j.  Q.fXT.q.X.u - # > u > 2 % B { &.S l N S Z Q d s v P n n q ` <.+. .G 4 H 5 ",
"@   4 #   . u         X .     v.KXxXXXOX3XCX8X~.<.).O.2XG./.h.- b y o # % u $ $ g M S M S B l u f u s d e : = ; Q o.` / d 3 7 5 ",
"# + 4 .   4   # . i +         v oXs.y.Y.R.sX+XwX/.4XB.m.R.,.<.U U y @ # y > > , B Z ] { ) B g j k k d a e @ @ @ n Q ! ] Q a 5 3 ",
"O #   # #   # .     d   - y   : ;.y.oXNXCXCXsXMX^.2XB.4XNXF.Y Y v i @ # 4 % u b { 3.3.{ ! N V E W E G E P s q 8 i p n / ` b s 9 ",
"  #   . a c.+ (.M.M.G ^.    + X :.,.eXJXJXHXHXJXyXP.q.gXHXiX- b v e @ @   O 4 d o.[ ] W V V d f u k E E G d a i i * , < p n c c ",
"    y   +.HXM.^.7XVXE 7XG +   @ ;.;.eXFXFXJXGXGXZX^.m.iXCXpX .Q ^ s 8 = O O @ y ! ` [ ` V d f y % , p d G d y - - : * * * < < < ",
"O + X   2X4X7XgX;X;X4X4Xa O #   m ;.1XxX1X:Xs.Y.s.s.>.t.>.s.Y v U U ^ ^ I a y v Q ` o.o.E 9 a V l l j p d d y @ # o , * < < * : ",
"X . . X E # + G 7 + + a   @ # X m ;.y.d.f.d.y.y.R R u.,.>.r.n c 9 P +.k.9.~ P ^ / Q / Q d 9 y V { _ ] V d y e 9 > - c * * < * ; ",
"  y #   O 4 g.4XyX^.7 O O       X >.y.<XmXBXcXfXsX~.1.#XsXsXm.X * * b  .| / ^ G P V d p - @ y W S D A N p - # 4 + - > - > - : i ",
"y   y E . q.gX^.N.aX;X@.G n.|   = t Y.FXFXLXDXSXSXbX$XhXVXZX2X# y + p [ X.@.~ k d V p > o . - p M M M N < X @ @   # > - 9 : = - ",
"  . u aX2X4X^.. + X.7X(.2XVXj.    t >.BXKXKXJXPXSXtX9X9XvXvX6Xd b % u / @./ Q E Q ! V i p d d u M M S N > X X - # - y - 9 - * 8 ",
"    ! dXN.4XB.O O #.aX~.vX2XJ.  X c R eXmX,XOXR.H.H.tX#Xx.3.+./ V p p E E G E ( / Q b A o.O.@.p M M M c - * @ # s b p y - - = e ",
"  . Q wXM.Q.aX| d (.9X` O., n X . X :.p.a.d.a.K m Y J.H.m n n n k k f f a H f G P s i b o.+.! V 2 2 * * = = @ = n b d > i > 9 9 ",
"-   . # O y ;XdXaXaX/ o   * .   o 2.2.;.f.,X,X;X<XR.).J.+X3X8X' u k f f G G H a d s i p n E d E 1 - .   @ 8 :   i p i > i i q - ",
". X #   O O O ~ +.  - o   X * D +X=X2.XXFXFXGXmXmXnXvXtXSXwXCXn.+ u H G ~ G G G }  .U i i f v G y a @ @ @ @ @ X * i < > < i - : ",
"X   @   + + O     #   * * ] +XtX=X=X2.eXFXFXZXpXnXdXdXzXCXrXsX).  4 G G H H H | r.t.` i q v s a 4 4 3 O O @ O = i i i 2 > < i - "
};
