/* XPM */
static char *_4f600c03ad3464dcbac8b3593107f7dC4c1gzxFKEEjLazu[] = {
/* columns rows colors chars-per-pixel */
"64 64 129 2 ",
"   c None",
".  c #007F57",
"X  c #007F58",
"o  c #00825B",
"O  c #0C855A",
"+  c #148757",
"@  c #1F8A57",
"#  c #128759",
"$  c #158859",
"%  c #1A8958",
"&  c #258C57",
"*  c #2D8E56",
"=  c #208A58",
"-  c #328F56",
";  c #369055",
":  c #3C9255",
">  c #078660",
",  c #098761",
"<  c #0E8964",
"1  c #118A66",
"2  c #168D69",
"3  c #1A8E6B",
"4  c #1E916E",
"5  c #249472",
"6  c #299676",
"7  c #2C9877",
"8  c #2E9978",
"9  c #309773",
"0  c #359C7D",
"q  c #459454",
"w  c #4C9653",
"e  c #519753",
"r  c #569952",
"t  c #5D9B51",
"y  c #6F9F4F",
"u  c #669D50",
"i  c #6B9F50",
"p  c #74A14F",
"a  c #7BA24E",
"s  c #82A54D",
"d  c #8BA74D",
"f  c #95A94C",
"g  c #9BAB4B",
"h  c #A4AD4A",
"j  c #AAAF49",
"k  c #AFB049",
"l  c #BDB447",
"z  c #B4B148",
"x  c #B9B348",
"c  c #C3B547",
"v  c #C9B746",
"b  c #CEB846",
"n  c #D1B945",
"m  c #DBBC45",
"M  c #E2BD44",
"N  c #ECC043",
"B  c #F2C242",
"V  c #F8C341",
"C  c #3B9F81",
"Z  c #3FA183",
"A  c #43A386",
"S  c #47A589",
"D  c #4AA68A",
"F  c #4EA88D",
"G  c #51AA8F",
"H  c #55AC92",
"J  c #5AAE95",
"K  c #5EB097",
"L  c #5FB098",
"P  c #63B29A",
"I  c #69B59F",
"U  c #6CB7A0",
"Y  c #6FB8A2",
"T  c #73BAA5",
"R  c #77BCA8",
"E  c #7ABEA9",
"W  c #7EC0AC",
"Q  c #82C1AE",
"!  c #85C3B0",
"~  c #8CC7B5",
"^  c #8FC8B7",
"/  c #90C8B7",
"(  c #93CABA",
")  c #9ACDBE",
"_  c #9DCFC0",
"`  c #9FD0C1",
"'  c #A5D3C5",
"]  c #A8D4C7",
"[  c #ABD6C9",
"{  c #AFD8CC",
"}  c #B1D9CD",
"|  c #B0D8CC",
" . c #B3DACE",
".. c #B4DACF",
"X. c #B3DACE",
"o. c #B9DCD2",
"O. c #BADDD3",
"+. c #BBDDD3",
"@. c #BCDED4",
"#. c #BDDFD4",
"$. c #BDDFD5",
"%. c #BEDFD5",
"&. c #BDDFD5",
"*. c #C1E1D7",
"=. c #C1E1D7",
"-. c #C3E2D8",
";. c #C6E3DA",
":. c #C7E3DB",
">. c #C7E4DB",
",. c #C8E4DC",
"<. c #CAE5DD",
"1. c #CEE7DF",
"2. c #CEE7DF",
"3. c #CFE7E0",
"4. c #CEE7E0",
"5. c #CFE8E0",
"6. c #CFE8E0",
"7. c #D0E8E0",
"8. c #D3EAE3",
"9. c #D6EBE4",
"0. c #D7ECE5",
"q. c #D5EBE4",
"w. c #E1F0EB",
"e. c #E1F0EC",
"r. c #E3F1ED",
"t. c #E8F4F0",
"y. c #F2F8F6",
"u. c white",
"i. c #FDFEFE",
/* pixels */
"                                                                                                                                ",
"                                                                                                                                ",
"                                                                                                                                ",
"                                                                                                                                ",
"                                                                                                                                ",
"                                                                o                                                               ",
"                                                          o o o o o o o                                                         ",
"                                          o o o       o o o o                 o o o o                                           ",
"                                      o o o           o o o                   o o o o o o                                       ",
"                                    o o o             o o o                   o o       o o                                     ",
"                                    o o o o o o o     o o o                 o o o o o o o o                                     ",
"                                    o o o o o o o o     o o o o o o o o     o o o o o o o o                                     ",
"                                              o o o         o o o o o       o o                                                 ",
"                                        o o o o o                             o                                                 ",
"                                        o o o           o o o o o o o o                                                         ",
"                                                  o o o o o o o o o o o o o o                                                   ",
"                                              o o o o o o o o o o o o o o o o o o                                               ",
"                                        o o o o o 4 < > ~ ) / ~ F ~ ] _ D 4 1 o o o o o                                         ",
"                              o o o o o o o o 8 W  .) 0 -./ Q 0.5 A :.I C o.P 4 6 o o o o o o o o                               ",
"                            o o o o o o o , 2  .E C >.! ` *.#.[ < D _ < 6 #.A E o.2 o o o o o o o o                             ",
"                            o o o o o , H / J 7.H < o.! T E 0 ] D U Q o T ..6 <.t.J 6 J < o o o o o                             ",
"                            o o o o 2 Q ~ ( / { 1.` ) 5 2 3 o 3 3 3 3 o H R E { ' ] { ! o o o o o o                             ",
"                          o o o o < 7 #.o./ 0 3 K D < o o o o o o o o o o o Z A C e.<.J ~ E 4 o o o o                           ",
"                          o o o 5 / C H 3.! o o o o o o o o o o o o o o o o o o 2 ' Y  .#.] ( 2 o o o                           ",
"                          o o o E ) / #./ T o o o o o , 6 G W ! ! W G 6 , o o o o < 0 7.A 3 E H o o o                           ",
"                          o o 3 <.7. .1.J o o o , , 0 I T A 4 4 4 4 Z T I 0 , , o o > ! ~ / H D o o o                           ",
"                          o o o I W ! ) 1 o 6 P E ! P 0 > o O & * @ o > 0 P ! E P 6 o 5 [ :.C o o o o                           ",
"                        o o o o o 2 U 6 o o R Z 1 1 > o o & u j M v i # o , 2 1 Z R o o 6 Z o o o o o o                         ",
"                        o o o o o o X o o 4 I 1 @ * O o o u z l B N z & o o o o 1 I 4 o o o o o o o o o                         ",
"                        ^ ~ ~ ~ ~ ~ ~ ~ Q P K o a b w o O ; p h B N x ; o O $ O o K P Q ~ ~ ~ ~ ~ ~ ~ ^                         ",
"                        u.u.u.u.u.u.u.u.y.E H o * d j q $ O t z B M g * O u z r o H E y.u.u.u.u.u.u.u.u.                        ",
"                        w.w.w.w.w.w.w.e.9.T 0 o o o t c s * s N B N d * w ; t % o 0 T 9.e.w.w.w.w.w.w.w.                        ",
"                        4 4 4 4 4 4 4 4 6 L 3 o o o O e p d x z l k w : t o o o o 3 L 6 4 4 4 4 4 4 4 4                         ",
"                        . . . . . . . . , P , o $ o o & g l i a a s ; & e o o o o , P , . . . . . . . .                         ",
"                        T T T T T T T T P T o O s s a c c x j z M m r o e : o o o o T P T T T T T T T T                         ",
"                        u.u.u.u.u.u.u.u.9.Q < # a z f p t w d n M M a o % p # o o 1 Q 9.u.u.u.u.u.u.u.u.                        ",
"                        i.i.i.i.i.i.i.i.e.E 7 o = # o o o O : p x m z = o u ; o o 7 E e.i.i.i.i.i.i.i.i.                        ",
"                          T T T T T T T U J H o o o o o o p z u r z B g w a % o o H J U T T T T T T T                           ",
"                          o o o o o o o o Z P o o o o o o d V v d v B B v e o o o P Z o o o o o o o o                           ",
"                          1 2 2 2 2 2 2 2 5 T 3 o o : : $ a m h y z N B c q o o 3 T 5 2 2 2 2 2 2 2 1                           ",
"                          { #.#.#.#.#.#.#.[ ~ D o o g n f f j w & p N M d % o o D ~ [ #.#.#.#.#.#.#.{                           ",
"                            u.u.u.u.u.u.u.u.[ Q 4 o - u & % % O o * h m y # o 4 Q [ u.u.u.u.u.u.u.u.                            ",
"                            3.1.3.3.3.3.3.5. .Y I o o o o o o o o o a j % o o I Y ..5.3.3.3.3.3.1.3.                            ",
"                            2 1 1 1 1 1 1 1 < , H F o o o o o o * s b w o o F H , < 1 1 1 1 1 1 1 2                             ",
"                              o o o o o o o o o > J H < o o o o & g z * , H J o o o o o o o o o o                               ",
"                              o o o o 7 H , o o o o H T 6 o o o o + = 9 T H o o o o < 5 o o o o o                               ",
"                                o o 6  .] J o o o o o 0 T J 5 o o 5 J T 0 o o o o o 4 ' H 8 6 o                                 ",
"                                  o Y / ~ ' D C < o o o 1 D U T T U D 1 o o o o 0 / D H  .E 4                                   ",
"                                  o 1 < A /  .Q U 5 4 o o o < 5 5 1 o o o 5 J C F 9.3.~ D 2 o                                   ",
"                                    o o o J E 3 ( ! ' ! A 0 6 6 2 , 5 S A ~ T J 0 ..P F 1 o                                     ",
"                                      o o 5 Q _ ' ) ..o.( Q o.U I A H { ~ ' J ..H F o o o                                       ",
"                                        o o 1 C 0 ) ! *.0 0 / o P E L  .A ` ^ E 3 o o o                                         ",
"                                          o o o o , 1 H 3 0 T o 8 ~ W P o , 1 > o o o                                           ",
"                                            o o o o o o o > < o o < 1 o o o o o o o                                             ",
"                                                o o o o o o o o o o o o o o o o                                                 ",
"                                                  o o o o o o o o o o o o o o                                                   ",
"                                                      o o o o o o o o o o                                                       ",
"                                                          o o o o o o                                                           ",
"                                                                                                                                ",
"                                                                                                                                ",
"                                                                                                                                ",
"                                                                                                                                ",
"                                                                                                                                ",
"                                                                                                                                "
};
