/* XPM */
static char *_1df3333e71142e7fcfed0df4ca1673aomKLlnStEbuRZMpK[] = {
/* columns rows colors chars-per-pixel */
"32 32 2 1 ",
"  c #6E0124",
". c #990030",
/* pixels */
"                                ",
" .....  ....... ........  ..... ",
" ..... ........ ........  ..... ",
" .....  ....... ......... ..... ",
" ...... .......  ........ ..... ",
" ...... .......  .......  ..... ",
" ...... ....... ........ ...... ",
"                 ...            ",
" ...  .....   ..     ...  ..... ",
" .... ....... ........... ..... ",
" ...  ....... ........... ..... ",
" ... ........ ...........  .... ",
" ... ........   ........... ... ",
" ... ..........  .......... ... ",
" ... ........... ........... .. ",
" ...             ........... .. ",
"       . .......                ",
" ....... ....... ....... ...... ",
" ......  .....  .........  .... ",
" .....  ...... ........... .... ",
" ..... ....... ........... .... ",
" .....  ......  .......... .... ",
" ...... ....... ........... ..  ",
" ...... ....... .........     . ",
" ...... ....... ......    ..  . ",
"      . ...  .. ....  ....... . ",
" ...        .        ........ . ",
" ...  ..........   ..........   ",
" ...  ............ ...........  ",
" ... ............. ............ ",
" ... ............. ............ ",
"                                "
};
